<svg width="539" height="518" viewBox="0 0 539 518" fill="none" xmlns="http://www.w3.org/2000/svg">
<path fill-rule="evenodd" clip-rule="evenodd" d="M363.521 105.697C361.754 106.025 359.479 106.169 357.08 106.123C359.481 106.165 361.766 106.019 363.521 105.697ZM352.755 105.838C351.666 105.717 350.451 105.539 349.226 105.328C350.466 105.548 351.682 105.721 352.755 105.838ZM288.477 115.634C290.239 115.577 292.064 115.518 294.003 115.457C295.946 115.569 300.414 115.778 300.414 115.778C300.414 115.778 307.352 116.825 326.085 118.146L333.756 118.675C333.756 118.675 334.909 122.12 335.404 126.217C337.05 139.818 335.404 164.196 335.404 164.196L330.402 161.713C327.669 160.571 321.425 158.535 316.53 157.186C311.627 155.828 303.9 153.999 299.345 153.105C294.79 152.22 287.428 151.086 282.989 150.597C278.542 150.109 270.069 149.712 264.148 149.712C258.226 149.712 249 150.283 243.65 150.97C238.292 151.665 230.192 153.014 225.637 153.966C221.083 154.918 214.556 156.548 211.144 157.591C207.724 158.634 200.833 161.392 200.833 161.392C200.833 161.392 200.742 159.015 200.163 140.558L199.542 120.744C199.61 120.718 199.679 120.691 199.751 120.666L201.413 120.016C202.245 119.685 206.557 119.238 211.708 118.923C212.742 118.857 213.798 118.799 214.863 118.749C217.981 118.604 221.849 118.389 225.599 118.158C229.502 117.91 233.175 117.643 235.576 117.425C237.168 117.278 240.161 117.11 244.024 116.941C251.212 116.628 261.41 116.311 271.187 116.118C277.561 115.988 282.687 115.822 288.477 115.634ZM211.787 92.4662C211.027 93.2781 210.212 94.1116 209.413 94.8883C208.795 95.4873 208.088 96.1211 207.34 96.7539C205.167 98.5729 202.746 100.326 201.082 101.236C198.639 102.561 194.78 104.141 192.502 104.737C194.78 104.141 198.506 102.66 200.784 101.443C202.491 100.531 205.101 98.6475 207.34 96.7539C208.347 95.9108 209.301 95.0535 210.101 94.2593C210.686 93.678 211.249 93.0794 211.787 92.4662ZM229.794 111.37C230.561 111.848 231.303 112.271 231.965 112.6C232.25 112.742 232.55 112.884 232.86 113.026C235.094 114.073 238.042 115.102 239.708 115.389C238.1 115.112 235.194 114.092 232.86 113.026C232.652 112.928 232.449 112.83 232.255 112.732C231.485 112.344 230.635 111.871 229.794 111.37ZM246.334 115.464C248.156 115.182 250.392 114.437 251.303 113.808C251.618 113.59 251.861 113.408 252.008 113.248C251.845 113.401 251.605 113.578 251.303 113.792C250.392 114.429 248.156 115.182 246.334 115.464ZM250.051 111.859C249.54 111.704 248.925 111.529 248.197 111.325C248.58 111.452 248.928 111.56 249.232 111.64C249.529 111.718 249.802 111.791 250.051 111.859ZM97.6177 351.46C99.183 352.254 101.237 353.959 102.173 355.242C103.448 356.972 103.887 358.793 103.862 362.277C103.837 365.522 103.175 368.385 101.717 371.53C100.549 374.03 98.5204 377.357 97.1954 378.921C95.8703 380.486 93.1042 382.82 91.0586 384.102C88.9219 385.451 86.1806 386.445 84.6402 386.436C83.1577 386.428 80.4579 385.683 78.6359 384.773C76.8139 383.862 74.76 382.182 74.0809 381.048C73.9949 380.905 73.9142 380.773 73.838 380.647C73.3052 379.769 72.5896 378.376 72.142 376.794C71.5448 374.684 71.5271 373.392 71.6374 371.201C71.7619 368.728 72.1272 367.642 72.9304 365.253C73.0428 364.919 73.1637 364.559 73.2938 364.166C74.6357 360.115 76.0209 358.044 79.091 355.242C81.5752 352.975 85.1371 351.245 86.5036 350.856C87.8701 350.475 90.2884 350.127 91.8867 350.086C93.4768 350.045 96.0608 350.665 97.6177 351.46ZM368.407 364.065C368.68 364.065 369.641 365.273 370.544 366.755C371.447 368.245 374.271 372.068 376.83 375.255C379.389 378.441 383.314 382.389 385.55 384.02C387.786 385.658 392.226 388.431 395.414 390.177C400.996 393.231 401.559 393.364 410.735 393.711C420.177 394.076 420.317 394.051 427.713 391.03C431.812 389.35 436.119 387.819 436.119 387.819C436.119 387.819 450.032 404.43 451.631 406.706C453.237 408.982 461.461 420.039 461.461 420.039L468.087 430.376L427 435.508C427 435.508 419.124 418.375 417.816 416.224C413.12 408.502 400.068 403.817 391.952 403.817C391.683 403.644 390.734 403.654 386.346 403.702C382.352 403.746 375.508 403.821 363.736 403.817C334.617 403.809 318.658 403.511 318.393 402.981C318.162 402.526 319.561 401.74 321.499 401.243C323.429 400.746 327.628 399.141 330.816 397.676C334.005 396.203 338.659 393.695 341.168 392.089C343.669 390.475 349.26 385.658 353.591 381.379C357.914 377.092 362.908 371.448 364.68 368.832C366.453 366.217 368.126 364.073 368.407 364.065ZM391.952 418.185C390.669 419.278 388.532 422.158 387.223 424.599C385.907 427.049 384.35 430.716 383.753 432.768C383.157 434.821 382.221 440.407 381.675 445.183C381.087 450.323 380.888 457.929 381.186 463.805C381.467 469.268 382.412 476.716 383.298 480.358C384.184 484 386.155 489.553 387.671 492.69C389.194 495.835 391.464 499.278 392.714 500.346C393.965 501.414 395.828 502.514 396.855 502.796C397.882 503.069 399.836 503.036 401.203 502.721C402.569 502.407 405.087 500.685 406.793 498.906C408.499 497.126 410.363 494.155 410.934 492.309C411.638 490.017 412.563 487.852 412 487.008C411.545 486.329 408.077 485.556 405.344 484.439C402.611 483.313 399.489 481.567 398.404 480.549C397.319 479.531 395.547 476.841 394.478 474.565C393.252 471.966 392.515 468.887 392.507 466.288C392.499 464.012 393.269 459.17 394.213 455.529C395.157 451.887 396.582 447.79 397.368 446.425C398.164 445.059 400.284 443.106 402.081 442.096C403.878 441.078 407.389 439.663 409.899 438.951C412.4 438.239 414.918 437.486 415.489 437.279L416 437.008C416 437.008 411.577 424.436 408.5 421.508C404.894 418.076 402.917 416.21 398.5 416.224C395.831 416.232 393.244 417.101 391.952 418.185Z" fill="#AAB6BC"/>
<path fill-rule="evenodd" clip-rule="evenodd" d="M232.86 113.026C232.652 112.928 232.449 112.83 232.255 112.732C231.485 112.344 230.635 111.871 229.794 111.37C230.561 111.848 231.303 112.271 231.965 112.6C232.25 112.742 232.55 112.884 232.86 113.026Z" fill="#483E4B"/>
<path d="M387.223 424.599C388.532 422.158 390.669 419.278 391.952 418.185C393.244 417.101 395.831 416.232 398.5 416.224C402.917 416.21 404.894 418.076 408.5 421.508C411.577 424.436 416 437.008 416 437.008L415.489 437.279C414.918 437.486 412.4 438.239 409.899 438.951C407.389 439.663 403.878 441.078 402.081 442.096C400.284 443.106 398.164 445.059 397.368 446.425C396.582 447.79 395.157 451.887 394.213 455.529C393.269 459.17 392.499 464.012 392.507 466.288C392.515 468.887 393.252 471.966 394.478 474.565C395.547 476.841 397.319 479.531 398.404 480.549C399.489 481.567 402.611 483.313 405.344 484.439C408.077 485.556 411.545 486.329 412 487.008C412.563 487.852 411.638 490.017 410.934 492.309C410.363 494.155 408.499 497.126 406.793 498.906C405.087 500.685 402.569 502.407 401.203 502.721C399.836 503.036 397.882 503.069 396.855 502.796C395.828 502.514 393.965 501.414 392.714 500.346C391.464 499.278 389.194 495.835 387.671 492.69C386.155 489.553 384.184 484 383.298 480.358C382.412 476.716 381.467 469.268 381.186 463.805C380.888 457.929 381.087 450.323 381.675 445.183C382.221 440.407 383.157 434.821 383.753 432.768C384.35 430.716 385.907 427.049 387.223 424.599Z" fill="#E98140"/>
<path d="M406.172 182.776C407.994 182.181 411.539 181.229 414.04 180.641C416.963 179.971 422.893 179.681 430.603 179.847C439.771 180.045 444.177 180.542 449.237 181.924C452.881 182.917 458.281 184.854 461.246 186.228C464.211 187.593 470.265 191.111 474.704 194.041C479.143 196.971 482.588 199.561 482.364 199.785C482.141 200.008 478.878 199.065 475.118 197.674C471.358 196.292 464.368 194.198 459.59 193.023C453.155 191.45 448.633 190.879 442.198 190.854C434.827 190.821 432.492 191.161 426.876 193.081C423.233 194.322 417.642 196.954 414.454 198.924C411.067 201.018 405.733 205.57 401.617 209.874C397.675 214.004 392.871 220.145 390.702 223.828C388.565 227.445 386.031 232.27 385.062 234.546C384.093 236.822 382.221 242.218 380.904 246.547C379.579 250.876 378.113 257.298 377.641 260.824C377.161 264.35 376.797 272.543 376.83 279.032C376.863 285.521 377.194 292.879 377.558 295.378C377.923 297.878 378.08 300.021 377.906 300.137C377.741 300.253 376.714 298.573 375.621 296.413C374.536 294.253 372.316 288.567 370.693 283.791C369.07 279.016 366.983 271.285 366.047 266.617C364.854 260.675 364.349 254.914 364.349 247.375C364.349 239.421 364.796 234.728 366.047 229.373C366.983 225.392 369.078 219.524 370.693 216.338C372.316 213.151 375.364 208.119 377.467 205.164C379.571 202.21 383.554 197.55 386.312 194.819C389.161 192.005 393.84 188.553 397.103 186.848C400.267 185.201 404.35 183.364 406.172 182.776Z" fill="#483E4B"/>
<path d="M180.286 220.401C181.537 220.137 182.937 219.772 183.392 219.599C183.848 219.425 185.893 219.458 187.947 219.681C190.001 219.897 193.537 220.973 195.815 222.065C198.092 223.158 201.165 225.392 202.647 227.023C204.13 228.653 205.339 230.457 205.331 231.028C205.322 231.798 202.291 232.121 193.529 232.287C187.044 232.411 178.837 233.263 178.837 233.263C178.837 233.263 173.918 235.821 166.961 241.995L167.566 238.27C167.905 236.218 168.99 232.717 169.984 230.49C170.986 228.256 173.197 225.185 174.903 223.662C176.609 222.14 179.036 220.675 180.286 220.401Z" fill="#483E4B"/>
<path d="M308.29 223.563C309.565 222.868 311.611 222.007 312.845 221.659C314.07 221.32 316.745 220.997 318.799 220.948C320.853 220.898 323.835 221.304 325.425 221.833C327.015 222.371 329.814 223.811 331.636 225.028C333.458 226.253 336.141 229.083 337.599 231.318C339.056 233.545 340.829 237.045 341.533 239.098C342.237 241.151 342.717 242.889 342.609 242.971C342.493 243.046 340.166 241.424 337.433 239.355C334.7 237.294 331.156 234.993 329.566 234.256C327.412 233.263 323.155 232.808 299.378 232.063L302.666 228.446C304.48 226.46 307.006 224.258 308.29 223.563Z" fill="#483E4B"/>
<path d="M222.316 302.132C224.594 300.493 228.884 298.292 231.841 297.232C235.973 295.759 238.383 295.403 242.193 295.693C244.926 295.9 249.116 296.661 251.51 297.381C254.582 298.308 257.257 299.988 260.62 303.133C263.237 305.575 265.945 308.554 266.624 309.746C267.303 310.938 267.585 312.105 267.245 312.337C266.906 312.569 265.415 311.849 263.932 310.739C262.45 309.63 259.75 308.091 257.928 307.321C256.106 306.552 252.562 305.418 250.06 304.814C247.559 304.209 243.36 303.704 240.743 303.688C238.126 303.671 232.346 304.383 227.907 305.277C223.468 306.171 218.971 307.172 217.919 307.503C216.188 308.05 216.105 307.967 217.091 306.609C217.687 305.782 220.039 303.771 222.316 302.132Z" fill="#483E4B"/>
<path d="M212.585 337.415C214.291 336.413 217.745 334.94 220.246 334.154C223.054 333.26 227.584 332.697 232.048 332.664C236.031 332.639 241.066 332.995 243.228 333.45C245.39 333.905 248.934 335.395 251.096 336.761C253.257 338.126 255.957 340.642 257.092 342.347C258.218 344.052 259.941 347.504 262.674 354.555L258.947 350.831C256.893 348.778 253.034 346.022 250.359 344.706C247.692 343.382 243.642 341.785 241.365 341.147C239.087 340.518 232.934 339.79 227.7 339.525C222.466 339.269 216.229 339.376 213.844 339.773C211.459 340.162 209.505 340.204 209.496 339.865C209.488 339.525 210.879 338.424 212.585 337.415Z" fill="#483E4B"/>
<path d="M201.819 363.593C203.525 363.328 205.297 363.014 205.753 362.898C206.208 362.782 208.072 362.832 209.894 363.014C211.716 363.188 215.633 364.032 218.59 364.893C221.546 365.745 226.209 367.922 228.942 369.718C231.675 371.514 234.888 374.237 236.089 375.776C237.282 377.307 239.145 380.312 240.23 382.464C241.307 384.607 242.002 386.561 241.779 386.792C241.555 387.032 239.22 385.178 236.603 382.679C233.986 380.188 229.141 376.356 225.836 374.179C222.532 371.994 217.405 369.379 214.449 368.361C211.492 367.342 206.879 366.233 204.213 365.911C201.546 365.58 199.219 365.033 199.036 364.694C198.862 364.355 200.113 363.858 201.819 363.593Z" fill="#483E4B"/>
<path d="M186.895 387.405C184.726 385.725 182.961 384.069 182.961 383.73C182.97 383.391 183.169 383.109 183.392 383.109C183.616 383.109 186.109 384.318 188.916 385.799C191.724 387.281 195.939 390.351 198.274 392.627C200.618 394.903 203.335 398.437 204.328 400.49C205.314 402.542 206.366 405.522 206.664 407.111C207.186 409.9 207.078 409.826 203.666 405.042C201.72 402.311 198.043 397.916 195.484 395.267C192.933 392.619 189.073 389.085 186.895 387.405Z" fill="#483E4B"/>
<path d="M79.8699 450.612C64.4658 448.394 59.8031 447.765 59.5795 447.79C29.0631 443.511 26.0876 453.139 26.0876 462.243C26.0876 467.294 27.3299 478.796 45.5498 481.693C53.4175 482.943 64.8105 481.306 76.9713 479.448C80.1517 478.962 84.9466 478.124 85.0874 478.033C85.2199 477.941 84.5739 475.078 83.6546 471.668C82.7271 468.25 81.4931 462.117 80.9217 458.036L79.8699 450.612Z" fill="#E98140"/>
<path d="M497.735 447.345C495.841 446.66 492.98 446.297 492.43 446.228C492.426 446.227 492.423 446.227 492.419 446.226C492.388 446.222 492.366 446.219 492.352 446.218C491.615 446.118 490.857 446.026 490.081 445.942C488.292 445.749 486.404 445.596 484.44 445.48C480.994 445.275 477.313 445.183 473.517 445.176C469.429 445.169 465.209 445.262 461.004 445.422C459.922 445.463 459.006 445.499 457.726 445.555C442.1 446.244 417.816 448.907 417.816 448.907C417.816 448.907 411.343 450.563 410.106 451.39C409.079 452.069 407.315 454.585 406.189 456.977C405.062 459.369 404.135 462.44 404.135 463.805C404.135 465.171 405.062 467.869 406.189 469.806C407.754 472.487 409.071 473.605 411.762 474.507C413.7 475.152 419.754 475.905 425.22 476.179C430.686 476.443 443.73 477.619 454.206 478.794C467.424 480.267 476.17 480.822 482.779 480.606C490.091 480.366 493.164 479.903 496.029 478.612C498.075 477.685 501.214 475.649 502.994 474.085C504.775 472.529 506.912 469.764 507.74 467.943C508.568 466.123 509.247 462.862 509.264 460.702C509.28 457.275 508.468 455.39 505.967 453.046C505.621 452.832 505.123 452.409 504.508 451.879C504.467 451.844 504.426 451.808 504.384 451.772C502.75 450.364 500.34 448.288 497.735 447.345Z" fill="#E98140"/>
<path fill-rule="evenodd" clip-rule="evenodd" d="M50.8919 178.961C53.1694 177.124 56.1509 174.939 57.5173 174.103C65.5094 168.731 80.459 160.364 96.8968 158.495C106.217 157.435 116.056 158.717 120.942 159.354C120.963 159.357 120.984 159.359 121.005 159.362C125.011 159.884 127.954 160.748 131.123 161.678C132.09 161.962 133.078 162.252 134.124 162.54C138.447 163.732 144.973 166.141 148.617 167.887C152.261 169.633 158.315 173.333 162.075 176.114C167.731 180.302 168.775 181.411 168.137 182.611C167.723 183.414 165.636 186.112 163.499 188.611C161.371 191.119 159.383 193.486 159.093 193.875C158.795 194.264 156.692 193.354 154.414 191.848C152.137 190.341 147.665 187.908 144.476 186.443C141.288 184.978 135.325 182.776 131.225 181.56C125.809 179.954 121.155 179.226 114.248 178.911C108.748 178.655 101.568 178.895 97.2699 179.474C95.7854 179.672 94.0158 179.808 92.0899 179.957C88.6976 180.219 84.8202 180.518 81.1614 181.255C69.8933 183.526 57.734 192.195 56.1107 193.784C54.4792 195.382 54.1549 199.147 54.3123 199.371C54.4697 199.603 56.0018 199.172 57.7078 198.427C59.4222 197.682 64.7391 196.002 69.5259 194.703C77.5427 192.526 79.3481 192.336 92.7149 192.336C105.27 192.336 107.978 192.576 113.005 194.14C116.194 195.133 121.213 197.55 124.169 199.52C127.117 201.49 131.217 205.206 133.279 207.771C135.333 210.345 138.497 215.378 140.302 218.945C142.679 223.646 143.59 226.476 143.59 229.166C143.59 231.219 143.101 237.55 142.497 243.236C141.735 250.379 141.519 260.501 141.801 275.929C142.074 291.381 142.637 300.957 143.623 306.965C144.402 311.749 145.702 318.263 146.513 321.449C147.317 324.636 149.279 329.85 150.861 333.036C152.443 336.223 156.601 343.299 160.095 348.762C163.59 354.224 166.448 359.165 166.439 359.728C166.431 360.299 165.205 361.681 163.731 362.807C162.249 363.924 158.058 366.01 154.414 367.434C148.923 369.577 147.077 369.933 143.648 369.519C141.37 369.246 137.826 368.187 135.78 367.169C133.602 366.084 127.399 360.721 120.873 354.274C114.72 348.199 110.247 343.514 110.935 343.854C110.59 343.495 110.241 343.151 109.89 342.823C109.068 342.056 108.096 341.232 106.826 340.377C105.612 339.558 104.891 339.146 103.563 338.528C97.368 335.644 89.4522 336.266 86.0895 337.58C84.9466 337.572 82.3627 335.677 82.3627 335.677C82.3627 335.677 80.0686 333.955 77.3522 331.025C74.6441 328.095 71.2233 324.025 71.2233 324.025C71.2233 324.025 63.5713 316.483 55.1488 307.379C52.9841 305.039 51.3025 303.232 49.8991 301.723C45.8419 297.362 44.1097 295.5 39.7525 290.505C39.3136 290.002 38.9478 289.589 38.6125 289.212C38.587 289.183 38.5626 289.155 38.5374 289.127C38.5153 289.102 38.4933 289.077 38.4714 289.053C38.425 289.001 38.3787 288.948 38.3331 288.897C38.2679 288.824 38.202 288.749 38.1379 288.677C37.3733 287.814 36.663 286.999 35.3967 285.447C33.3428 282.947 28.0591 275.498 23.6531 268.893C19.2472 262.297 15.0401 255.03 14.303 252.754C13.334 249.75 13.0856 246.812 13.4003 241.995C13.6819 237.724 14.7668 232.584 16.4728 227.511C17.9222 223.191 21.0444 215.974 23.4047 211.479C25.765 206.994 30.0301 200.381 32.8791 196.789C35.728 193.197 40.7053 188.156 42.8503 186.071C44.9953 183.993 48.6144 180.79 50.8919 178.961Z" fill="#AAB6BC"/>
<path fill-rule="evenodd" clip-rule="evenodd" d="M335.404 164.196C335.404 164.196 337.05 139.818 335.404 126.217C334.909 122.12 333.756 118.675 333.756 118.675C330.992 118.488 328.44 118.312 326.085 118.146C307.352 116.825 300.414 115.778 300.414 115.778C300.414 115.778 295.946 115.569 294.003 115.457C285.692 115.717 279.501 115.948 271.187 116.118C261.41 116.311 251.212 116.628 244.024 116.941C240.161 117.11 237.168 117.278 235.576 117.425C233.175 117.643 229.502 117.91 225.599 118.158C222.096 118.38 218.407 118.588 215.285 118.733C215.144 118.739 215.003 118.743 214.863 118.749C213.792 118.8 212.733 118.86 211.708 118.923C206.557 119.238 202.245 119.685 201.413 120.016L199.751 120.666L199.542 120.744L200.833 161.392C200.833 161.392 207.724 158.634 211.144 157.591C214.556 156.548 221.083 154.918 225.637 153.966C230.192 153.014 238.292 151.665 243.65 150.97C249 150.283 258.226 149.712 264.148 149.712C270.069 149.712 278.542 150.109 282.989 150.597C287.428 151.086 294.79 152.22 299.345 153.105C303.9 153.999 311.627 155.828 316.53 157.186C321.425 158.535 327.669 160.571 330.402 161.713L335.404 164.196ZM349.226 105.328C350.466 105.548 351.682 105.721 352.755 105.838C351.666 105.717 350.451 105.539 349.226 105.328ZM209.413 94.8883C210.212 94.1116 211.027 93.2781 211.787 92.4662C211.249 93.0794 210.686 93.678 210.101 94.2593C209.301 95.0535 208.347 95.9108 207.34 96.7539C208.088 96.1211 208.795 95.4873 209.413 94.8883Z" fill="#FEF8EB"/>
<path fill-rule="evenodd" clip-rule="evenodd" d="M497.212 186.473C497.3 186.556 497.387 186.64 497.475 186.725C497.388 186.641 497.3 186.557 497.212 186.473Z" fill="#483E4B"/>
<path d="M232.86 113.026C235.194 114.092 238.1 115.112 239.708 115.389C241.53 115.712 244.512 115.745 246.334 115.464C248.156 115.182 250.392 114.429 251.303 113.792C251.605 113.578 251.845 113.401 252.008 113.248C252.615 112.679 252.178 112.439 250.051 111.859C249.802 111.791 249.529 111.718 249.232 111.64C248.928 111.56 248.58 111.452 248.197 111.325L248.164 111.316L248.138 111.309L248.125 111.305C247.123 110.971 245.896 110.497 244.621 109.957C243.086 109.307 241.483 108.562 240.122 107.849C239.318 107.43 238.417 106.912 237.486 106.34C237.021 106.056 236.549 105.758 236.078 105.452C234.56 104.468 233.049 103.403 231.818 102.442C231.618 102.286 231.425 102.133 231.242 101.983C231.013 101.797 230.798 101.617 230.598 101.443C228.767 99.8532 226.364 97.1934 224.67 94.93C224.391 94.5579 224.132 94.1964 223.898 93.8522C223.784 93.6856 223.676 93.5231 223.575 93.3654C222.938 92.3713 222.282 91.1533 221.695 89.9058C221.591 89.6844 221.49 89.4614 221.391 89.2393C220.662 87.6077 220.314 86.5766 219.824 84.8075C219.39 83.241 218.962 80.7355 218.962 80.7355L217.737 83.566C217.066 85.122 216.536 88.2588 216.561 90.5348C216.576 92.156 216.901 94.0596 217.462 95.954C217.518 96.1432 217.576 96.3324 217.637 96.5212C217.91 97.3699 218.229 98.2109 218.587 99.0177C218.618 99.0871 218.649 99.1563 218.681 99.2252C218.807 99.5026 218.95 99.7927 219.106 100.092C220.361 102.494 222.49 105.468 224.147 107.088C225.509 108.413 227.741 110.09 229.794 111.37C230.635 111.871 231.485 112.344 232.255 112.732C232.449 112.83 232.652 112.928 232.86 113.026Z" fill="#483E4B"/>
<path fill-rule="evenodd" clip-rule="evenodd" d="M145.345 76.5577C144.956 82.7395 145.439 86.4124 147.416 92.283C148.076 94.2447 149.1 96.3686 149.756 97.7299C149.984 98.2023 150.168 98.5842 150.276 98.8344C150.399 99.1175 150.522 99.3924 150.643 99.6576C150.772 99.939 150.901 100.209 151.027 100.467C151.06 100.534 151.093 100.601 151.128 100.669C151.221 100.855 151.318 101.044 151.418 101.237C151.594 101.574 151.78 101.92 151.974 102.27C152.083 102.467 152.194 102.665 152.307 102.864C152.485 103.177 152.668 103.492 152.855 103.807C152.985 104.026 153.116 104.245 153.249 104.463C153.626 105.083 154.013 105.696 154.398 106.284C154.676 106.708 154.954 107.119 155.226 107.51C155.234 107.522 155.241 107.534 155.249 107.545L155.257 107.557C155.542 107.966 155.82 108.352 156.087 108.709C156.426 109.16 156.747 109.563 157.04 109.902C158.383 111.443 160.206 113.235 161.596 114.41C164.875 117.38 172.675 123.32 177.644 123.32C182.613 123.32 193.902 115.34 193.902 115.34C193.902 115.34 193.032 127.738 193.14 140.955C193.264 155.563 193.794 164.289 193.794 164.289L200.833 161.392C200.833 161.392 200.742 159.015 200.163 140.558L199.542 120.744C199.61 120.718 199.679 120.691 199.751 120.666L201.413 120.016C202.245 119.685 206.557 119.238 211.708 118.923C212.742 118.857 213.798 118.799 214.863 118.749C217.981 118.604 221.849 118.389 225.599 118.158C229.502 117.91 233.175 117.643 235.576 117.425C237.168 117.278 240.161 117.11 244.024 116.941C251.212 116.628 261.41 116.311 271.187 116.118C279.501 115.948 285.692 115.717 294.003 115.457C291.933 115.457 288.83 115.144 286.941 114.289C285.741 113.747 284.041 112.569 284.041 112.569C284.041 112.569 289.708 111.54 291.865 110.624C292.257 110.458 292.516 110.333 292.857 110.173C293.067 110.075 293.281 109.974 293.498 109.869C293.702 109.77 293.905 109.669 294.107 109.566C294.56 109.336 295.01 109.093 295.458 108.84C295.869 108.607 296.279 108.364 296.685 108.112C297.348 107.701 298.005 107.265 298.653 106.804C300.6 105.42 302.478 103.815 304.265 101.998C306.171 100.07 308.45 97.3386 310.195 94.9529C310.482 94.5601 310.755 94.1767 311.009 93.8077C311.445 93.1761 311.826 92.5869 312.132 92.066C313.48 89.7957 314.271 87.9934 315.048 85.1778C315.565 83.3038 315.95 80.2821 315.95 80.2821C315.931 80.2932 315.97 80.2701 315.95 80.2821C315.582 80.4998 310.599 84.5497 310.31 84.8654C308.726 86.4053 303.644 90.5679 301.822 91.8177C300 93.0757 295.527 95.2607 291.883 96.6843C288.24 98.1078 282.086 99.8211 278.219 100.491C274.351 101.17 268.57 101.708 265.382 101.692C261.953 101.675 255.849 100.748 250.441 99.4072C244.503 97.9506 239.584 96.138 236.412 94.2593C233.729 92.6619 228.818 88.565 219.484 78.9477L217.082 84.3275C215.823 87.1587 214.01 89.9364 211.787 92.4662C211.249 93.0794 210.686 93.678 210.101 94.2593C209.301 95.0535 208.347 95.9108 207.34 96.7539C205.101 98.6475 202.491 100.531 200.784 101.443C198.506 102.66 194.78 104.141 192.502 104.737C190.225 105.342 185.844 105.83 182.771 105.838C179.698 105.838 175.226 105.424 172.833 104.919C170.439 104.406 167.512 103.429 164.344 101.898C159.451 99.5352 154.217 95.7322 152.998 93.8454C148.244 86.4895 149.072 89.3862 145.345 76.5577ZM231.965 112.6C231.303 112.271 230.561 111.848 229.794 111.37C227.741 110.09 225.509 108.413 224.147 107.088C222.49 105.468 220.361 102.494 219.106 100.092C218.95 99.7927 218.807 99.5026 218.681 99.2252C218.649 99.1563 218.618 99.0871 218.587 99.0177C218.229 98.2109 217.91 97.3699 217.637 96.5212C217.576 96.3324 217.518 96.1432 217.462 95.954C216.901 94.0596 216.576 92.156 216.561 90.5348C216.536 88.2588 217.066 85.122 217.737 83.566L218.962 80.7355C218.962 80.7355 219.39 83.241 219.824 84.8075C220.314 86.5766 220.662 87.6077 221.391 89.2393C221.49 89.4614 221.591 89.6844 221.695 89.9058C222.282 91.1533 222.938 92.3713 223.575 93.3654C223.676 93.5231 223.784 93.6856 223.898 93.8522C224.132 94.1964 224.391 94.5579 224.67 94.93C226.364 97.1934 228.767 99.8532 230.598 101.443C230.798 101.617 231.013 101.797 231.242 101.983C231.425 102.133 231.618 102.286 231.818 102.442C233.049 103.403 234.56 104.468 236.078 105.452C236.549 105.758 237.021 106.056 237.486 106.34C238.417 106.912 239.318 107.43 240.122 107.849C241.483 108.562 243.086 109.307 244.621 109.957C245.896 110.497 247.123 110.971 248.125 111.305L248.138 111.309L248.164 111.316L248.197 111.325C248.925 111.529 249.54 111.704 250.051 111.859C252.178 112.439 252.615 112.679 252.008 113.248C251.861 113.408 251.618 113.59 251.303 113.808C250.392 114.437 248.156 115.182 246.334 115.464C244.512 115.745 241.53 115.712 239.708 115.389C238.042 115.102 235.094 114.073 232.86 113.026C232.55 112.884 232.25 112.742 231.965 112.6Z" fill="#D4D4D4"/>
<path d="M315.95 80.2821C315.95 80.2821 315.565 83.3038 315.048 85.1778C314.271 87.9934 313.48 89.7957 312.132 92.066C311.826 92.5869 311.445 93.1761 311.009 93.8077C310.755 94.1767 310.482 94.5601 310.195 94.9529C308.45 97.3386 306.171 100.07 304.265 101.998C302.478 103.815 300.6 105.42 298.653 106.804C298.005 107.265 297.348 107.701 296.685 108.112C296.279 108.364 295.869 108.607 295.458 108.84C295.01 109.093 294.56 109.336 294.107 109.566C293.905 109.669 293.702 109.77 293.498 109.869C293.281 109.974 293.067 110.075 292.857 110.173C292.516 110.333 292.257 110.458 291.865 110.624C289.708 111.54 284.041 112.569 284.041 112.569C284.041 112.569 285.741 113.747 286.941 114.289C288.83 115.144 291.933 115.457 294.003 115.457C296.902 115.457 300.708 114.05 302.857 112.964C305.018 111.88 308.464 109.521 310.517 107.725C312.836 105.706 314.981 102.776 316.182 99.9866C316.23 99.8753 316.278 99.7642 316.324 99.6533C316.354 99.581 316.384 99.5088 316.414 99.4366C316.43 99.3954 316.447 99.3541 316.464 99.3129C316.464 99.3129 316.485 99.2607 316.498 99.2272C317.832 95.8671 318.145 92.583 318.162 90.121C318.186 86.9015 315.95 80.2821 315.95 80.2821Z" fill="#483E4B"/>
<path fill-rule="evenodd" clip-rule="evenodd" d="M251.717 0.817534C248.76 1.20653 242.98 2.65492 238.88 4.04537C234.781 5.43582 227.898 8.51468 223.584 10.8983C217.695 14.1427 213.77 17.1388 207.848 22.9241L199.956 30.6295C194.158 28.9411 188.833 28.4942 184.22 28.5355C178.895 28.5852 174.166 29.1315 170.969 30.0833C168.236 30.8943 163.392 32.7648 160.203 34.2381C155.789 36.2823 153.015 38.3763 148.559 43.036C145.337 46.4045 141.553 50.8324 140.145 52.8767C138.737 54.921 136.857 58.2813 135.962 60.3256C135.076 62.3699 133.685 67.7745 132.882 72.3265C131.871 78.0042 131.598 82.159 131.987 85.5689C132.31 88.3002 133.155 92.9599 133.867 95.9146C134.588 98.8693 136.699 104.274 138.571 107.915C140.691 112.029 144.012 116.68 147.366 120.214C150.323 123.335 155.358 127.514 158.547 129.501C159.25 129.94 159.93 130.401 160.61 130.861C163.015 132.49 165.428 134.124 168.899 134.872C174.661 136.114 183.856 132.838 183.856 132.838C183.856 132.838 180.195 171.231 179.665 171.231C179.21 171.231 176.883 169.633 174.489 167.68C172.096 165.727 167.533 162.607 164.344 160.744C161.156 158.882 156.311 156.242 153.578 154.876C150.845 153.511 144.973 151.235 140.534 149.811C136.095 148.388 129.014 146.625 124.799 145.896C118.877 144.862 114.04 144.663 103.473 145.027C95.9614 145.292 87.7541 146.029 85.253 146.666C82.7519 147.312 78.2715 148.586 75.3149 149.505C72.3583 150.424 67.323 152.36 64.1345 153.8C60.946 155.249 54.6104 158.89 50.0555 161.903C44.5343 165.556 38.599 170.574 32.2496 176.958C27.0155 182.23 20.8042 189.34 18.4439 192.75C16.0919 196.168 12.1332 203.244 9.63209 208.475C7.13927 213.706 4.07501 220.973 2.82447 224.614C1.1267 229.564 0.447595 233.429 0.132887 239.926C-0.198384 246.663 0.0583509 250.106 1.25921 255.237C2.32756 259.789 4.00048 263.803 6.60924 268.066C8.70453 271.484 13.3423 278.37 16.9201 283.377C20.5061 288.385 25.9306 295.461 28.9866 299.103C32.0343 302.744 40.5728 312.055 47.9602 319.794C55.3475 327.533 63.3974 336.289 65.8405 339.244C68.2919 342.198 70.3044 344.905 70.321 345.244C70.3293 345.584 68.764 347.446 66.8261 349.383C64.8881 351.319 62.1883 355.143 60.8301 357.866C58.9667 361.59 58.271 364.28 58.0391 368.625C57.8403 372.342 58.2047 376.124 59.066 379.178C59.8031 381.793 61.9895 386.569 63.9274 389.788C66.0062 393.248 70.1802 398.247 74.114 401.996C77.7746 405.489 82.0066 409.288 83.5138 410.422L86.2468 412.491C83.3151 421.471 81.8741 427.057 81.1453 430.699C80.3005 434.937 79.4558 437.246 78.8098 437.113C78.2549 436.998 74.3542 436.352 70.1388 435.665C65.9234 434.986 58.006 434.424 52.54 434.415C45.7738 434.407 41.1525 434.837 38.0469 435.748C35.5375 436.484 31.6285 438.04 29.351 439.207C27.0735 440.366 23.5289 442.874 21.4833 444.786C19.4377 446.698 17.524 449.012 15.9842 452.309C13.3197 458.015 13.5825 464.947 14.4355 468.357C15.1809 471.32 17.0691 475.69 18.6344 478.082C20.1996 480.474 23.4378 483.967 25.8313 485.854C28.2247 487.741 31.4794 489.843 33.0778 490.53C34.6762 491.217 38.2125 492.268 40.9455 492.864C43.6785 493.468 50.3867 493.965 55.8527 493.965C61.3187 493.973 70.0808 493.435 75.3149 492.773C80.549 492.103 85.8659 491.366 87.1164 491.134C88.6292 490.853 89.3801 491.054 89.3691 491.738C89.3608 492.309 91.1579 495.38 93.3692 498.566C95.5804 501.753 99.4149 505.991 101.883 507.993C104.351 509.988 108.235 512.496 110.512 513.563C112.79 514.631 117.262 516.063 120.451 516.742C125.469 517.818 143.83 517.991 256.686 518C370.411 518.008 388.134 517.842 394.992 516.733C399.323 516.03 404.491 514.631 406.478 513.63C408.474 512.628 411.605 510.501 413.443 508.912C415.274 507.323 417.8 504.526 419.058 502.705C420.309 500.884 422.206 496.87 423.274 493.783C424.533 490.149 425.659 488.188 426.462 488.213C427.15 488.237 431.804 488.8 436.815 489.471C441.825 490.133 453.005 491.283 461.66 492.011C471.416 492.831 479.913 493.121 484.021 492.765C487.665 492.442 492.7 491.639 495.201 490.977C497.702 490.315 501.603 488.775 503.856 487.55C506.108 486.326 510.158 483.271 512.858 480.772C515.558 478.272 518.556 474.73 519.508 472.909C520.875 470.31 521.256 468.092 521.272 462.564C521.289 456.505 520.966 454.891 519.003 450.977C517.744 448.477 515.657 445.117 514.365 443.528C513.073 441.939 509.819 439.439 507.127 437.991C504.444 436.534 498.887 434.573 494.787 433.637L487.333 431.932C464.029 400.829 455.184 388.911 452.633 385.385C448.674 379.906 448.144 378.756 449.014 377.523C449.569 376.728 451.747 374.022 453.858 371.522C455.962 369.023 464.708 358.404 473.296 347.934C481.884 337.464 492.659 324.247 497.247 318.553C501.835 312.867 508.593 304.292 512.27 299.517C515.939 294.741 520.825 288.037 523.127 284.619C525.421 281.209 529.38 274.497 531.923 269.721C534.457 264.946 537.157 258.606 537.919 255.651C538.945 251.645 539.186 248.161 538.871 241.995C538.573 236.259 537.695 231.177 535.997 225.442C534.647 220.89 532.403 214.558 531.012 211.372C529.612 208.185 526.713 202.599 524.568 198.957C522.423 195.315 518.357 189.356 515.525 185.715C512.701 182.073 507.433 176.387 503.831 173.076C500.22 169.766 494.1 164.783 490.232 161.994C486.364 159.213 480.211 155.514 476.567 153.767C472.923 152.021 466.588 149.571 462.488 148.313C455.175 146.078 434.793 145.253 434.793 145.253C434.793 145.253 420.303 144.866 411.969 145.987C402.619 147.246 391.58 151.875 387.049 153.776C386.363 154.063 385.827 154.288 385.468 154.429C382.735 155.514 377.708 158.146 374.287 160.289C370.875 162.425 365.84 165.959 363.107 168.144C360.374 170.32 357.856 172.091 357.517 172.083C357.177 172.067 356.987 164.328 357.102 154.885L356.117 132.424C356.117 132.424 363.952 136.618 366.005 135.94C368.059 135.253 372.15 133.415 375.115 131.859C378.08 130.312 382.735 127.241 385.468 125.04C388.548 122.565 392.226 118.394 395.124 114.065C397.708 110.233 400.549 105.408 401.435 103.363C402.329 101.319 403.514 97.4043 404.077 94.6731C404.632 91.9418 405.071 85.8007 405.054 81.0169C405.013 73.6177 404.632 71.1595 402.454 64.4639C401.037 60.1435 399.033 55.3018 397.981 53.7044C396.938 52.107 394.486 48.9454 392.54 46.6694C390.586 44.3933 386.155 40.5613 382.677 38.1611C379.198 35.7527 373.376 32.6324 369.732 31.2254C364.838 29.3384 361.268 28.5687 356.067 28.279C351.62 28.0307 346.204 28.3783 341.367 29.2059L333.706 30.5302C323.76 20.5735 319.197 16.5263 317.143 15.1111C315.089 13.6958 310.716 11.188 307.412 9.53269C304.107 7.87739 298.144 5.43582 294.161 4.09503C289.697 2.58871 283.569 1.31412 278.219 0.776151C273.44 0.287838 266.732 -0.0514991 263.311 0.00643641C259.899 0.0643719 254.673 0.428538 251.717 0.817534ZM200.833 161.392C200.833 161.392 207.724 158.634 211.144 157.591C214.556 156.548 221.083 154.918 225.637 153.966C230.192 153.014 238.292 151.665 243.65 150.97C249 150.283 258.226 149.712 264.148 149.712C270.069 149.712 278.542 150.109 282.989 150.597C287.428 151.086 294.79 152.22 299.345 153.105C303.9 153.999 311.627 155.828 316.53 157.186C321.425 158.535 327.669 160.571 330.402 161.713L335.404 164.196C335.404 164.196 343.843 167.639 344.084 167.299C344.324 166.96 344.506 155.596 344.498 142.056C344.481 128.516 344.663 116.871 344.887 116.192C346.683 116.952 348.994 117.752 351.59 118.413C352.839 118.732 354.154 119.018 355.51 119.253C355.67 119.281 355.831 119.308 355.992 119.334C359.316 119.875 363.185 120.358 367.662 119.503C369.626 119.127 371.279 118.678 372.588 118.1C375.399 116.858 377.156 115.549 378.891 113.388C379.775 112.288 380.467 111.35 381.394 109.987C384.081 106.037 385.31 103.415 387.173 98.9042C389.36 93.6103 390.786 88.1868 391.328 84.839C391.896 81.3334 391.28 74.8357 390.064 71.4989C389.214 68.6166 386.884 63.6693 385.203 61.1781C383.53 58.6868 380.664 55.1942 378.842 53.4064C377.02 51.627 374.411 49.3013 373.045 48.2336C371.678 47.166 367.952 45.3617 364.763 44.2278C360.68 42.7629 357.252 42.1504 353.169 42.1504C349.98 42.1504 345.972 42.6056 344.257 43.1684C341.649 44.0209 341.235 44.4595 341.732 45.8417C342.055 46.7521 342.253 48.7054 342.154 50.1869C342.063 51.6684 341.491 54.0851 340.878 55.5666C340.266 57.0481 338.402 59.6552 336.738 61.3602C335.073 63.0651 333.243 64.3397 332.671 64.1907C332.1 64.0335 331.412 62.2706 331.131 60.2594C330.849 58.2482 329.971 54.5569 329.168 52.0491C328.365 49.5413 326.949 46.1976 326.021 44.6002C325.093 43.0029 322.808 39.7088 320.944 37.2755C319.081 34.834 315.694 31.4572 313.416 29.7605C311.139 28.0638 306.857 25.3325 303.892 23.6855C300.927 22.0302 295.9 19.6962 292.712 18.4879C289.523 17.2795 283.743 15.7732 279.875 15.1359C276.007 14.5069 271.527 14.0351 269.937 14.0931C268.338 14.151 263.502 14.5234 259.17 14.9124C254.839 15.3014 248.603 16.3691 245.298 17.2795C241.994 18.1982 237.149 19.9032 234.532 21.0701C231.915 22.2371 227.344 24.8028 224.387 26.7644C221.43 28.7342 217.049 32.7069 214.664 35.6037C212.271 38.5005 209.223 43.1105 207.89 45.8417C206.548 48.573 204.668 53.7872 203.707 57.4288C202.747 61.0705 201.794 64.2321 201.595 64.4639C201.388 64.6956 199.724 63.8514 197.902 62.6016C196.072 61.3519 193.943 59.2993 193.165 58.0496C192.394 56.7998 191.748 54.2838 191.74 52.4629C191.724 50.6421 191.989 47.7536 192.32 46.0486L192.916 42.9449C181.098 41.9849 179.16 42.2083 174.282 43.814C170.58 45.0306 166.539 47.2073 163.102 49.8475C160.145 52.1236 157.056 54.7555 156.253 55.7073C155.441 56.6508 153.611 58.9259 152.153 61.1532L151.794 61.7015C151.427 62.2623 151.08 62.792 150.751 63.3002L150.611 63.5167C148.024 67.5346 146.273 71.8705 145.345 76.5577C144.956 82.7395 145.439 86.4124 147.416 92.283C148.076 94.2447 149.1 96.3686 149.756 97.7299C149.984 98.2023 150.168 98.5842 150.276 98.8344C150.399 99.1175 150.522 99.3924 150.643 99.6576C150.772 99.939 150.901 100.209 151.027 100.467C151.06 100.534 151.093 100.601 151.128 100.669C151.221 100.855 151.318 101.044 151.418 101.237C151.594 101.574 151.78 101.92 151.974 102.27C152.083 102.467 152.194 102.665 152.307 102.864C152.485 103.177 152.668 103.492 152.855 103.807C152.985 104.026 153.116 104.245 153.249 104.463C153.626 105.083 154.013 105.696 154.398 106.284C154.676 106.708 154.954 107.119 155.226 107.51C155.23 107.516 155.234 107.522 155.237 107.528C155.241 107.534 155.245 107.54 155.249 107.545L155.257 107.557C155.542 107.966 155.82 108.352 156.087 108.709C156.426 109.16 156.747 109.563 157.04 109.902C158.383 111.443 160.206 113.235 161.596 114.41C164.875 117.38 172.675 123.32 177.644 123.32C182.613 123.32 193.902 115.34 193.902 115.34C193.902 115.34 193.032 127.738 193.14 140.955C193.264 155.563 193.794 164.289 193.794 164.289L200.833 161.392ZM102.173 355.242C101.237 353.959 99.183 352.254 97.6177 351.46C96.0608 350.665 93.4768 350.045 91.8867 350.086C90.2884 350.127 87.8701 350.475 86.5036 350.856C85.1371 351.245 81.5752 352.975 79.091 355.242C76.0209 358.044 74.6357 360.115 73.2938 364.166C73.1637 364.559 73.0428 364.919 72.9304 365.253C72.1272 367.642 71.7619 368.728 71.6374 371.201C71.5271 373.392 71.5448 374.684 72.142 376.794C72.5896 378.376 73.3052 379.769 73.838 380.647C73.9142 380.773 73.9949 380.905 74.0809 381.048C74.76 382.182 76.8139 383.862 78.6359 384.773C80.4579 385.683 83.1577 386.428 84.6402 386.436C86.1806 386.445 88.9219 385.451 91.0586 384.102C93.1042 382.82 95.8703 380.486 97.1954 378.921C98.5204 377.357 100.549 374.03 101.717 371.53C103.175 368.385 103.837 365.522 103.862 362.277C103.887 358.793 103.448 356.972 102.173 355.242ZM370.544 366.755C369.641 365.273 368.68 364.065 368.407 364.065C368.126 364.073 366.453 366.217 364.68 368.832C362.908 371.448 357.914 377.092 353.591 381.379C349.26 385.658 343.669 390.475 341.168 392.089C338.659 393.695 334.005 396.203 330.816 397.676C327.628 399.141 323.429 400.746 321.499 401.243C319.561 401.74 318.162 402.526 318.393 402.981C318.658 403.511 334.617 403.809 363.736 403.817C375.508 403.821 382.352 403.746 386.346 403.702C390.734 403.654 391.683 403.644 391.952 403.817C400.068 403.817 413.12 408.502 417.816 416.224C419.124 418.375 427 435.508 427 435.508L468.087 430.376L461.461 420.039C461.461 420.039 453.237 408.982 451.631 406.706C450.032 404.43 436.119 387.819 436.119 387.819C436.119 387.819 431.812 389.35 427.713 391.03C420.317 394.051 420.177 394.076 410.735 393.711C401.559 393.364 400.996 393.231 395.414 390.177C392.226 388.431 387.786 385.658 385.55 384.02C383.314 382.389 379.389 378.441 376.83 375.255C374.271 372.068 371.447 368.245 370.544 366.755ZM387.223 424.599C388.532 422.158 390.669 419.278 391.952 418.185C393.244 417.101 395.831 416.232 398.5 416.224C402.917 416.21 404.894 418.076 408.5 421.508C411.577 424.436 416 437.008 416 437.008L415.489 437.279C414.918 437.486 412.4 438.239 409.899 438.951C407.389 439.663 403.878 441.078 402.081 442.096C400.284 443.106 398.164 445.059 397.368 446.425C396.582 447.79 395.157 451.887 394.213 455.529C393.269 459.17 392.499 464.012 392.507 466.288C392.515 468.887 393.252 471.966 394.478 474.565C395.547 476.841 397.319 479.531 398.404 480.549C399.489 481.567 402.611 483.313 405.344 484.439C408.077 485.556 411.545 486.329 412 487.008C412.563 487.852 411.638 490.017 410.934 492.309C410.363 494.155 408.499 497.126 406.793 498.906C405.087 500.685 402.569 502.407 401.203 502.721C399.836 503.036 397.882 503.069 396.855 502.796C395.828 502.514 393.965 501.414 392.714 500.346C391.464 499.278 389.194 495.835 387.671 492.69C386.155 489.553 384.184 484 383.298 480.358C382.412 476.716 381.467 469.268 381.186 463.805C380.888 457.929 381.087 450.323 381.675 445.183C382.221 440.407 383.157 434.821 383.753 432.768C384.35 430.716 385.907 427.049 387.223 424.599ZM271.642 417.963C271.642 417.963 291.743 417.043 325.425 417.043C359.38 417.043 377.649 417.963 377.649 417.963C377.649 417.963 375.736 423.723 374.751 427.481C372.352 436.631 371.422 445.473 370.875 451.39C370.014 460.627 370.072 463.731 371.256 473.323C372.01 479.464 373.227 486.549 373.964 489.049C374.701 491.548 376.465 495.835 377.898 498.566C379.323 501.298 380.581 503.723 380.697 503.946C380.813 504.17 326.22 504.319 259.378 504.277C192.535 504.228 134.482 503.806 133 503.508C133 503.508 120.485 502.382 114.032 498.194C111.395 496.482 109.775 494.974 107.862 493.021C105.842 490.952 102.993 486.508 101.071 482.427C99.2492 478.562 96.9303 472.04 95.9034 467.943C94.4624 462.191 94.0317 458.053 94.0069 449.735C93.982 442.286 94.4458 436.807 95.4976 431.941C96.3341 428.076 97.5349 423.681 98.1726 422.191L99.3238 419.476L103.481 422.191L130.157 437.329C137.279 440.813 143.118 442.981 149.644 444.571C154.77 445.82 162.406 447.203 166.622 447.649C170.837 448.096 176.982 448.469 180.286 448.477C183.591 448.485 190.672 447.923 196.022 447.227C201.372 446.532 209.662 445.216 214.449 444.314C219.227 443.404 226.126 441.699 229.77 440.515C233.414 439.332 240.868 436.203 246.334 433.555C251.8 430.906 258.599 427.223 261.448 425.369C264.297 423.523 271.642 417.963 271.642 417.963ZM79.8699 450.612C64.4658 448.394 59.8031 447.765 59.5795 447.79C29.0631 443.511 26.0876 453.139 26.0876 462.243C26.0876 467.294 27.3299 478.796 45.5498 481.693C53.4175 482.943 64.8105 481.306 76.9713 479.448C80.1517 478.962 84.9466 478.124 85.0874 478.033C85.2199 477.941 84.5739 475.078 83.6546 471.668C82.7271 468.25 81.4931 462.117 80.9217 458.036L79.8699 450.612ZM492.43 446.228L492.419 446.226L492.352 446.218C491.615 446.118 490.857 446.026 490.081 445.942C488.292 445.749 486.404 445.596 484.44 445.48C480.994 445.275 477.313 445.183 473.517 445.176C469.429 445.169 465.209 445.262 461.004 445.422C459.922 445.463 459.006 445.499 457.726 445.555C442.1 446.244 417.816 448.907 417.816 448.907C417.816 448.907 411.343 450.563 410.106 451.39C409.079 452.069 407.315 454.585 406.189 456.977C405.062 459.369 404.135 462.44 404.135 463.805C404.135 465.171 405.062 467.869 406.189 469.806C407.754 472.487 409.071 473.605 411.762 474.507C413.7 475.152 419.754 475.905 425.22 476.179C430.686 476.443 443.73 477.619 454.206 478.794C467.424 480.267 476.17 480.822 482.779 480.606C490.091 480.366 493.164 479.903 496.029 478.612C498.075 477.685 501.214 475.649 502.994 474.085C504.775 472.529 506.912 469.764 507.74 467.943C508.568 466.123 509.247 462.862 509.264 460.702C509.28 457.275 508.468 455.39 505.967 453.046C505.621 452.832 505.123 452.409 504.508 451.879L504.384 451.772C502.75 450.364 500.34 448.288 497.735 447.345C495.841 446.66 492.98 446.297 492.43 446.228ZM50.8919 178.961C53.1694 177.124 56.1509 174.939 57.5173 174.103C65.5094 168.731 80.459 160.364 96.8968 158.495C106.217 157.435 116.056 158.717 120.942 159.354L121.005 159.362C125.011 159.884 127.954 160.748 131.123 161.678C132.09 161.962 133.078 162.252 134.124 162.54C138.447 163.732 144.973 166.141 148.617 167.887C152.261 169.633 158.315 173.333 162.075 176.114C167.731 180.302 168.775 181.411 168.137 182.611C167.723 183.414 165.636 186.112 163.499 188.611C161.371 191.119 159.383 193.486 159.093 193.875C158.795 194.264 156.692 193.354 154.414 191.848C152.137 190.341 147.665 187.908 144.476 186.443C141.288 184.978 135.325 182.776 131.225 181.56C125.809 179.954 121.155 179.226 114.248 178.911C108.748 178.655 101.568 178.895 97.2699 179.474C95.7854 179.672 94.0158 179.808 92.0899 179.957C88.6976 180.219 84.8202 180.518 81.1614 181.255C69.8933 183.526 57.734 192.195 56.1107 193.784C54.4792 195.382 54.1549 199.147 54.3123 199.371C54.4697 199.603 56.0018 199.172 57.7078 198.427C59.4222 197.682 64.7391 196.002 69.5259 194.703C77.5427 192.526 79.3481 192.336 92.7149 192.336C105.27 192.336 107.978 192.576 113.005 194.14C116.194 195.133 121.213 197.55 124.169 199.52C127.117 201.49 131.217 205.206 133.279 207.771C135.333 210.345 138.497 215.378 140.302 218.945C142.679 223.646 143.59 226.476 143.59 229.166C143.59 231.219 143.101 237.55 142.497 243.236C141.735 250.379 141.519 260.501 141.801 275.929C142.074 291.381 142.637 300.957 143.623 306.965C144.402 311.749 145.702 318.263 146.513 321.449C147.317 324.636 149.279 329.85 150.861 333.036C152.443 336.223 156.601 343.299 160.095 348.762C163.59 354.224 166.448 359.165 166.439 359.728C166.431 360.299 165.205 361.681 163.731 362.807C162.249 363.924 158.058 366.01 154.414 367.434C148.923 369.577 147.077 369.933 143.648 369.519C141.37 369.246 137.826 368.187 135.78 367.169C133.602 366.084 127.399 360.721 120.873 354.274C114.72 348.199 110.247 343.514 110.935 343.854C110.59 343.495 110.241 343.151 109.89 342.823C109.068 342.056 108.096 341.232 106.826 340.377C105.612 339.558 104.891 339.146 103.563 338.528C97.368 335.644 89.4522 336.266 86.0895 337.58C84.9466 337.572 82.3627 335.677 82.3627 335.677C82.3627 335.677 80.0686 333.955 77.3522 331.025C74.6441 328.095 71.2233 324.025 71.2233 324.025C71.2233 324.025 63.5713 316.483 55.1488 307.379C52.9908 305.047 51.313 303.243 49.9122 301.737L49.8991 301.723C45.8419 297.362 44.1097 295.5 39.7525 290.505C39.3136 290.002 38.9478 289.589 38.6125 289.212L38.5374 289.127L38.4714 289.053L38.3331 288.897L38.1379 288.677C37.3733 287.814 36.663 286.999 35.3967 285.447C33.3428 282.947 28.0591 275.498 23.6531 268.893C19.2472 262.297 15.0401 255.03 14.303 252.754C13.334 249.75 13.0856 246.812 13.4003 241.995C13.6819 237.724 14.7668 232.584 16.4728 227.511C17.9222 223.191 21.0444 215.974 23.4047 211.479C25.765 206.994 30.0301 200.381 32.8791 196.789C35.728 193.197 40.7053 188.156 42.8503 186.071C44.9953 183.993 48.6144 180.79 50.8919 178.961ZM437.651 158.41C446.181 158.642 450.049 159.164 456.285 160.926C460.608 162.143 466.016 163.972 468.294 164.982C470.571 165.992 475.002 168.458 478.141 170.469C480.3 171.853 481.612 172.969 483.14 174.27C483.833 174.86 484.571 175.488 485.454 176.197C486.323 176.895 487.171 177.55 487.987 178.178L488.335 178.445C490.531 180.133 492.477 181.629 493.959 183.232C494.988 184.346 496.001 185.314 497.059 186.326L497.212 186.473C498.27 187.485 499.376 188.55 500.593 189.853C504.688 194.241 508.195 198.618 510.407 201.68C512.609 204.734 515.458 209.286 516.726 211.786C517.984 214.293 520.187 219.971 521.612 224.407C523.028 228.852 524.643 234.993 525.19 238.064C525.96 242.392 525.968 244.958 525.206 249.444C524.61 252.945 522.912 257.861 520.916 261.858C519.094 265.5 515.26 272.022 512.394 276.342C509.52 280.671 504.071 288.12 500.278 292.895C498.679 294.907 497.673 296.246 496.831 297.378C496.711 297.539 496.594 297.697 496.479 297.852C495.489 299.186 494.656 300.309 493.18 302.092C491.89 303.652 490.934 304.764 490.027 305.812L489.64 306.258C488.177 307.947 486.735 309.612 484.079 312.908C479.549 318.519 467.954 332.788 458.306 344.624C448.658 356.459 439.034 367.732 436.922 369.66C434.819 371.597 431.324 374.063 429.162 375.131C426.992 376.207 423.175 377.746 420.673 378.549C417.609 379.534 414.487 379.898 411.149 379.666C407.762 379.426 404.234 378.4 400.077 376.455C395.687 374.394 392.648 372.201 389.244 368.625C386.644 365.894 382.337 359.935 379.67 355.383C377.012 350.831 373.086 344.499 370.958 341.313C368.821 338.126 366.279 333.939 365.301 332.002C364.324 330.073 363.43 328.493 363.322 328.493C363.206 328.501 363.049 331.754 362.983 335.735C362.908 339.716 362.328 344.648 361.699 346.693C361.061 348.745 358.146 353.761 355.206 357.849C352.266 361.938 346.883 368.228 343.239 371.828C339.454 375.569 333.947 379.948 330.402 382.017C326.982 384.011 321.764 386.354 318.808 387.214C315.843 388.075 310.534 388.994 307.006 389.259C302.956 389.557 300.588 389.424 300.588 388.903C300.588 388.448 302.227 385.567 304.24 382.488C306.244 379.418 308.671 375.139 309.623 372.971C310.973 369.892 312.025 368.774 314.46 367.798C316.166 367.119 318.866 365.861 320.464 365.017C322.054 364.164 323.992 362.401 324.762 361.085C325.541 359.77 326.385 357.204 326.659 355.383C327.089 352.42 326.783 351.601 323.677 347.52C321.772 345.021 318.592 341.578 316.613 339.865C314.625 338.16 312.265 336.761 311.354 336.761C309.929 336.761 309.557 337.63 308.753 342.761C308.24 346.064 307.296 350.252 306.65 352.072C306.012 353.893 303.379 359.107 300.811 363.659C298.236 368.212 292.322 377.15 287.668 383.523C281.043 392.602 277.829 396.186 272.86 400.076C269.748 402.514 266.929 404.473 263.294 407.001C262.857 407.304 262.408 407.617 261.945 407.939C252.173 414.741 240.354 422.414 236.304 424.434C231.791 426.677 224.793 429.168 218.184 430.881C209.049 433.257 204.958 433.819 191.268 434.63C176.833 435.483 174.191 435.425 166.423 434.126C161.636 433.323 154.555 431.783 150.687 430.699C146.812 429.615 140.476 427.413 136.608 425.799C132.732 424.194 125.097 420.221 119.631 416.985C114.165 413.741 105.875 408.237 92.7315 398.421L96.5991 395.938C98.7275 394.572 102.173 391.518 104.251 389.143C106.33 386.767 109.452 382.48 111.192 379.625C112.922 376.761 114.604 373.384 114.918 372.126C115.233 370.86 116.111 369.85 116.111 369.85C116.111 369.85 118.147 371.188 119.424 372.085C120.483 372.829 121.29 373.476 122.08 374.11C123.011 374.857 123.919 375.585 125.188 376.43C128.441 378.596 131.987 380.494 133.942 381.28C135.888 382.058 139.37 383.428 143.027 383.573C147.058 383.733 150.663 382.497 153.172 381.628C155.673 380.759 160.336 378.764 163.524 377.192C166.713 375.619 170.903 373.326 172.841 372.101C174.771 370.877 177.893 367.914 179.773 365.522C181.645 363.138 184.676 358.197 186.498 354.555C188.32 350.914 190.473 346.262 191.268 344.21C192.071 342.165 194.639 336.67 196.966 332.002C200.519 324.884 201.206 322.79 201.206 318.966C201.206 315.879 200.867 314.414 200.171 314.414C199.6 314.414 197.082 315.159 194.581 316.078C192.071 316.988 189.388 318.569 188.601 319.595C187.823 320.613 185.529 324.801 183.5 328.898C181.471 332.995 178.937 338.863 177.876 341.934C176.816 345.013 175.665 347.52 175.326 347.52C174.978 347.52 173.073 345.567 171.077 343.175C169.081 340.791 166.34 336.595 164.982 333.864C163.624 331.133 161.338 325.364 159.905 321.035C158.464 316.715 156.874 310.193 156.36 306.552C155.847 302.91 155.267 289.13 155.068 275.929C154.87 262.579 155.093 247.706 155.582 242.409C156.054 237.178 157.048 229.911 157.785 226.27C158.53 222.628 160.435 216.669 162.017 213.027C163.64 209.327 166.978 203.857 169.586 200.612C172.162 197.426 176.883 192.195 180.079 188.992C185.106 183.943 187.541 182.33 198.308 176.875C205.14 173.416 213.803 169.617 217.563 168.425C221.314 167.241 229.331 165.487 235.369 164.527C245.307 162.946 248.437 162.838 268.703 163.31C286.393 163.716 292.356 164.146 297.275 165.363C300.687 166.215 308.331 168.243 314.253 169.873C321.391 171.835 328.083 174.392 334.129 177.446C339.139 179.987 345.061 183.629 347.289 185.541C351.073 188.802 351.363 189.323 351.686 193.577C351.877 196.085 352.109 198.783 352.191 199.578C352.274 200.381 352.531 201.018 352.763 200.993C352.986 200.976 353.649 200.323 354.237 199.545C354.825 198.767 356.937 195.713 358.933 192.75C360.929 189.795 364.92 185.119 367.803 182.371C370.693 179.623 374.171 176.561 375.538 175.568C376.904 174.574 379.847 172.516 382.784 170.85C386.647 168.659 389.332 167.58 393.067 166.078L393.551 165.884C394.523 165.491 395.53 165.051 396.58 164.589L396.791 164.497C400.026 163.074 403.68 161.467 408.044 160.43C411.778 159.543 414.453 159.295 417.711 158.994C418.265 158.943 418.835 158.89 419.431 158.833C423.531 158.435 431.73 158.245 437.651 158.41Z" fill="#483E4B"/>
<path fill-rule="evenodd" clip-rule="evenodd" d="M363.521 105.697C361.754 106.025 359.479 106.169 357.08 106.123C356.307 106.11 355.522 106.077 354.739 106.024L354.644 106.018C354.01 105.974 353.378 105.908 352.755 105.838C351.682 105.721 350.466 105.548 349.226 105.328C346.523 104.848 343.703 104.183 341.988 103.587C339.487 102.718 334.825 100.343 331.636 98.2899C331.142 97.9734 330.621 97.6173 330.084 97.2321C327.297 95.204 324.193 92.49 322.377 90.4272L320.872 88.7201C319.183 86.5602 315.95 80.2821 315.95 80.2821C315.95 80.2821 318.186 86.9015 318.162 90.121C318.145 92.583 317.832 95.8671 316.498 99.2272L316.464 99.3129C316.447 99.3541 316.43 99.3954 316.414 99.4366C316.384 99.5088 316.354 99.581 316.324 99.6533C316.278 99.7642 316.23 99.8753 316.182 99.9866C314.981 102.776 312.836 105.706 310.517 107.725C308.464 109.521 305.018 111.88 302.857 112.964C300.708 114.05 296.902 115.457 294.003 115.457C295.946 115.569 300.414 115.778 300.414 115.778C300.414 115.778 307.352 116.825 326.085 118.146L333.756 118.675C333.756 118.675 334.909 122.12 335.404 126.217C337.05 139.818 335.404 164.196 335.404 164.196C335.404 164.196 343.843 167.639 344.084 167.299C344.324 166.96 344.506 155.596 344.498 142.056C344.481 128.516 344.663 116.871 344.887 116.192C346.683 116.952 348.994 117.752 351.59 118.413C352.839 118.732 354.154 119.018 355.51 119.253C355.67 119.281 355.831 119.308 355.992 119.334C359.316 119.875 363.185 120.358 367.662 119.503C369.626 119.127 371.279 118.678 372.588 118.1C375.399 116.858 377.156 115.549 378.891 113.388C379.775 112.288 380.467 111.35 381.394 109.987C384.081 106.037 385.31 103.415 387.173 98.9042C389.36 93.6103 390.786 88.1868 391.328 84.839C391.896 81.3334 391.28 74.8357 390.064 71.4989C390.072 77.7991 387.097 83.6948 387.097 83.6948C387.097 83.6948 385.694 87.3114 384.971 88.7802C383.347 92.0577 380.573 95.956 378.428 97.9589C376.374 99.8707 373.211 102.205 371.389 103.14C369.567 104.083 366.022 105.234 363.521 105.697Z" fill="#D4D4D4"/>
<path fill-rule="evenodd" clip-rule="evenodd" d="M357.08 106.123C359.481 106.165 361.766 106.019 363.521 105.697C366.022 105.234 369.567 104.083 371.389 103.14C373.211 102.205 376.374 99.8707 378.428 97.9589C380.573 95.956 383.347 92.0577 384.971 88.7802C385.694 87.3114 387.097 83.6948 387.097 83.6948C387.097 83.6948 390.072 77.7991 390.064 71.4989C389.214 68.6166 386.884 63.6693 385.203 61.1781C383.53 58.6868 380.664 55.1942 378.842 53.4064C377.02 51.627 374.411 49.3013 373.045 48.2336C371.678 47.166 367.952 45.3617 364.763 44.2278C360.68 42.7629 357.252 42.1504 353.169 42.1504C349.98 42.1504 345.972 42.6056 344.257 43.1684C341.649 44.0209 341.235 44.4595 341.732 45.8417C342.055 46.7521 342.253 48.7054 342.154 50.1869C342.063 51.6684 341.491 54.0851 340.878 55.5666C340.266 57.0481 338.402 59.6552 336.738 61.3602C335.073 63.0651 333.243 64.3397 332.671 64.1907C332.1 64.0335 331.412 62.2706 331.131 60.2594C330.849 58.2482 329.971 54.5569 329.168 52.0491C328.365 49.5413 326.949 46.1976 326.021 44.6002C325.093 43.0029 322.808 39.7088 320.944 37.2755C319.081 34.834 315.694 31.4572 313.416 29.7605C311.139 28.0638 306.857 25.3325 303.892 23.6855C300.927 22.0302 295.9 19.6962 292.712 18.4879C289.523 17.2795 283.743 15.7732 279.875 15.1359C276.007 14.5069 271.527 14.0351 269.937 14.0931C268.338 14.151 263.502 14.5234 259.17 14.9124C254.839 15.3014 248.603 16.3691 245.298 17.2795C241.994 18.1982 237.149 19.9032 234.532 21.0701C231.915 22.2371 227.344 24.8028 224.387 26.7644C221.43 28.7342 217.049 32.7069 214.664 35.6037C212.271 38.5005 209.223 43.1105 207.89 45.8417C206.548 48.573 204.668 53.7872 203.707 57.4288C202.747 61.0705 201.794 64.2321 201.595 64.4639C201.388 64.6956 199.724 63.8514 197.902 62.6016C196.072 61.3519 193.943 59.2993 193.165 58.0496C192.394 56.7998 191.748 54.2838 191.74 52.4629C191.724 50.6421 191.989 47.7536 192.32 46.0486L192.916 42.9449C181.098 41.9849 179.16 42.2083 174.282 43.814C170.58 45.0306 166.539 47.2073 163.102 49.8475C160.145 52.1236 157.056 54.7555 156.253 55.7073C155.441 56.6508 153.611 58.9259 152.153 61.1532L151.794 61.7015C151.427 62.2623 151.08 62.792 150.751 63.3002L150.611 63.5167C148.024 67.5346 146.273 71.8705 145.345 76.5577C148.379 87.0004 148.395 87.0233 150.86 90.6384C151.423 91.4642 152.114 92.4775 152.998 93.8454C154.217 95.7322 159.451 99.5352 164.344 101.898C167.512 103.429 170.439 104.406 172.833 104.919C175.226 105.424 179.698 105.838 182.771 105.838C185.844 105.83 190.225 105.342 192.502 104.737C194.78 104.141 198.639 102.561 201.082 101.236C202.746 100.326 205.167 98.5729 207.34 96.7539C208.088 96.1211 208.795 95.4873 209.413 94.8883C210.212 94.1116 211.027 93.2781 211.787 92.4662C214.01 89.9364 215.823 87.1587 217.082 84.3275L219.484 78.9477C228.818 88.565 233.729 92.6619 236.412 94.2593C239.584 96.138 244.503 97.9506 250.441 99.4072C255.849 100.748 261.953 101.675 265.382 101.692C268.57 101.708 274.351 101.17 278.219 100.491C282.086 99.8211 288.24 98.1078 291.883 96.6843C295.527 95.2607 300 93.0757 301.822 91.8177C303.644 90.5679 308.726 86.4053 310.31 84.8654C310.506 84.6517 315.701 80.4295 315.95 80.2821C315.95 80.2821 319.183 86.5602 320.872 88.7201L322.377 90.4272C324.193 92.49 327.297 95.204 330.084 97.2321C330.621 97.6173 331.142 97.9734 331.636 98.2899C334.825 100.343 339.487 102.718 341.988 103.587C343.703 104.183 346.523 104.848 349.226 105.328C350.451 105.539 351.666 105.717 352.755 105.838C353.378 105.908 354.01 105.974 354.644 106.018L354.739 106.024C355.522 106.077 356.307 106.11 357.08 106.123Z" fill="#FEF8EB"/>
<path d="M310.517 272.204C310.973 271.294 312.373 270.003 313.623 269.34C314.874 268.678 316.555 268.116 317.35 268.099C318.145 268.082 319.752 268.902 320.919 269.928C322.294 271.128 323.197 272.957 323.478 275.101C323.851 277.948 323.586 278.734 321.565 280.729C319.362 282.897 318.99 282.988 315.694 282.177C313.665 281.672 311.644 280.522 310.923 279.446C310.236 278.42 309.681 276.748 309.681 275.722C309.689 274.695 310.062 273.115 310.517 272.204Z" fill="#FEF8EB"/>
<path fill-rule="evenodd" clip-rule="evenodd" d="M313.623 269.34C312.373 270.003 310.973 271.294 310.517 272.204C310.062 273.115 309.689 274.695 309.681 275.722C309.681 276.748 310.236 278.42 310.923 279.446C311.644 280.522 313.665 281.672 315.694 282.177C318.99 282.988 319.362 282.897 321.565 280.729C323.586 278.734 323.851 277.948 323.478 275.101C323.197 272.957 322.294 271.128 320.919 269.928C319.752 268.902 318.145 268.082 317.35 268.099C316.555 268.116 314.874 268.678 313.623 269.34ZM414.04 180.641C411.539 181.229 407.994 182.181 406.172 182.776C404.35 183.364 400.267 185.201 397.103 186.848C393.84 188.553 389.161 192.005 386.312 194.819C383.554 197.55 379.571 202.21 377.467 205.164C375.364 208.119 372.316 213.151 370.693 216.338C369.078 219.524 366.983 225.392 366.047 229.373C364.796 234.728 364.349 239.421 364.349 247.375C364.349 254.914 364.854 260.675 366.047 266.617C366.983 271.285 369.07 279.016 370.693 283.791C372.316 288.567 374.536 294.253 375.621 296.413C376.714 298.573 377.741 300.253 377.906 300.137C378.08 300.021 377.923 297.878 377.558 295.378C377.194 292.879 376.863 285.521 376.83 279.032C376.797 272.543 377.161 264.35 377.641 260.824C378.113 257.298 379.579 250.876 380.904 246.547C382.221 242.218 384.093 236.822 385.062 234.546C386.031 232.27 388.565 227.445 390.702 223.828C392.871 220.145 397.675 214.004 401.617 209.874C405.733 205.57 411.067 201.018 414.454 198.924C417.642 196.954 423.233 194.322 426.876 193.081C432.492 191.161 434.827 190.821 442.198 190.854C448.633 190.879 453.155 191.45 459.59 193.023C464.368 194.198 471.358 196.292 475.118 197.674C478.878 199.065 482.141 200.008 482.364 199.785C482.588 199.561 479.143 196.971 474.704 194.041C470.265 191.111 464.211 187.593 461.246 186.228C458.281 184.854 452.881 182.917 449.237 181.924C444.177 180.542 439.771 180.045 430.603 179.847C422.893 179.681 416.963 179.971 414.04 180.641ZM183.392 219.599C182.937 219.772 181.537 220.137 180.286 220.401C179.036 220.675 176.609 222.14 174.903 223.662C173.197 225.185 170.986 228.256 169.984 230.49C168.99 232.717 167.905 236.218 167.566 238.27L166.961 241.995C173.918 235.821 178.837 233.263 178.837 233.263C178.837 233.263 187.044 232.411 193.529 232.287C202.291 232.121 205.322 231.798 205.331 231.028C205.339 230.457 204.13 228.653 202.647 227.023C201.165 225.392 198.092 223.158 195.815 222.065C193.537 220.973 190.001 219.897 187.947 219.681C185.893 219.458 183.848 219.425 183.392 219.599ZM312.845 221.659C311.611 222.007 309.565 222.868 308.29 223.563C307.006 224.258 304.48 226.46 302.666 228.446L299.378 232.063C323.155 232.808 327.412 233.263 329.566 234.256C331.156 234.993 334.7 237.294 337.433 239.355C340.166 241.424 342.493 243.046 342.609 242.971C342.717 242.889 342.237 241.151 341.533 239.098C340.829 237.045 339.056 233.545 337.599 231.318C336.141 229.083 333.458 226.253 331.636 225.028C329.814 223.811 327.015 222.371 325.425 221.833C323.835 221.304 320.853 220.898 318.799 220.948C316.745 220.997 314.07 221.32 312.845 221.659ZM186.291 264.416C184.237 265.583 181.86 267.164 180.99 267.925C180.129 268.687 178.688 270.979 177.794 273.032C176.651 275.655 176.187 278.469 176.245 282.55C176.286 285.736 176.709 289.643 177.181 291.24C177.661 292.837 178.597 294.973 179.268 295.999C179.939 297.025 182.075 298.747 184.013 299.839C185.951 300.924 189.488 302.041 191.881 302.322C195.136 302.703 196.991 302.463 199.252 301.379C200.916 300.584 203.649 298.441 205.339 296.62C207.641 294.12 208.652 292.084 209.43 288.343C210.035 285.413 210.225 281.681 209.886 279.239C209.571 276.963 208.685 273.611 207.906 271.79C207.128 269.969 205.206 267.495 203.641 266.286C202.068 265.078 199.293 263.679 197.471 263.183C197.356 263.151 197.244 263.12 197.134 263.089C197.063 263.069 196.992 263.049 196.921 263.029L196.9 263.023L196.794 262.992L196.717 262.97L196.701 262.965L196.675 262.958L196.622 262.942C195.172 262.525 193.873 262.151 192.088 262.289C189.71 262.473 188.374 263.232 186.358 264.377L186.291 264.416ZM313.83 263.853C312.687 264.192 310.642 265.111 309.275 265.906C307.909 266.692 305.954 268.62 304.927 270.185C303.9 271.749 302.633 274.803 302.111 276.963C301.59 279.123 301.366 282.757 301.606 285.033C301.846 287.309 302.923 291.182 304 293.64C305.085 296.107 307.172 299.177 308.654 300.468C310.136 301.768 312.745 303.059 314.451 303.349C316.157 303.63 319.048 303.647 320.87 303.382C322.692 303.117 325.11 302.19 326.253 301.337C327.387 300.477 329.466 298.325 330.866 296.545C332.265 294.766 333.914 291.257 334.518 288.757C335.52 284.594 335.462 283.708 333.831 278.411C332.787 275.035 330.891 271.236 329.292 269.307C327.777 267.486 325.168 265.343 323.495 264.548C321.822 263.754 319.429 263.133 318.178 263.174C316.928 263.208 314.965 263.514 313.83 263.853ZM231.841 297.232C228.884 298.292 224.594 300.493 222.316 302.132C220.039 303.771 217.687 305.782 217.091 306.609C216.105 307.967 216.188 308.05 217.919 307.503C218.971 307.172 223.468 306.171 227.907 305.277C232.346 304.383 238.126 303.671 240.743 303.688C243.36 303.704 247.559 304.209 250.06 304.814C252.562 305.418 256.106 306.552 257.928 307.321C259.75 308.091 262.45 309.63 263.932 310.739C265.415 311.849 266.906 312.569 267.245 312.337C267.585 312.105 267.303 310.938 266.624 309.746C265.945 308.554 263.237 305.575 260.62 303.133C257.257 299.988 254.582 298.308 251.51 297.381C249.116 296.661 244.926 295.9 242.193 295.693C238.383 295.403 235.973 295.759 231.841 297.232ZM220.246 334.154C217.745 334.94 214.291 336.413 212.585 337.415C210.879 338.424 209.488 339.525 209.496 339.865C209.505 340.204 211.459 340.162 213.844 339.773C216.229 339.376 222.466 339.269 227.7 339.525C232.934 339.79 239.087 340.518 241.365 341.147C243.642 341.785 247.692 343.382 250.359 344.706C253.034 346.022 256.893 348.778 258.947 350.831L262.674 354.555C259.941 347.504 258.218 344.052 257.092 342.347C255.957 340.642 253.257 338.126 251.096 336.761C248.934 335.395 245.39 333.905 243.228 333.45C241.066 332.995 236.031 332.639 232.048 332.664C227.584 332.697 223.054 333.26 220.246 334.154ZM205.753 362.898C205.297 363.014 203.525 363.328 201.819 363.593C200.113 363.858 198.862 364.355 199.036 364.694C199.219 365.033 201.546 365.58 204.213 365.911C206.879 366.233 211.492 367.342 214.449 368.361C217.405 369.379 222.532 371.994 225.836 374.179C229.141 376.356 233.986 380.188 236.603 382.679C239.22 385.178 241.555 387.032 241.779 386.792C242.002 386.561 241.307 384.607 240.23 382.464C239.145 380.312 237.282 377.307 236.089 375.776C234.888 374.237 231.675 371.514 228.942 369.718C226.209 367.922 221.546 365.745 218.59 364.893C215.633 364.032 211.716 363.188 209.894 363.014C208.072 362.832 206.208 362.782 205.753 362.898ZM182.961 383.73C182.961 384.069 184.726 385.725 186.895 387.405C189.073 389.085 192.933 392.619 195.484 395.267C198.043 397.916 201.72 402.311 203.666 405.042C207.078 409.826 207.186 409.9 206.664 407.111C206.366 405.522 205.314 402.542 204.328 400.49C203.335 398.437 200.618 394.903 198.274 392.627C195.939 390.351 191.724 387.281 188.916 385.799C186.109 384.318 183.616 383.109 183.392 383.109C183.169 383.109 182.97 383.391 182.961 383.73ZM182.199 274.78C182.133 273.903 183.367 272.063 184.204 271.219C185.198 270.234 186.556 269.132 188.411 268.986C190.094 268.854 191.731 269.483 192.551 270.228C193.529 271.097 194.382 274.83 194.208 276.435C193.976 278.686 191.508 281.401 188.825 281.401C187.201 281.401 184.911 281.381 183.441 279.746C182.296 278.471 182.244 276.379 182.216 275.254L182.213 275.148L182.211 275.052L182.21 275.02C182.209 275.003 182.209 274.987 182.208 274.97C182.206 274.9 182.203 274.837 182.199 274.78Z" fill="#483E4B"/>
<path d="M184.204 271.219C183.367 272.063 182.133 273.903 182.199 274.78C182.203 274.837 182.206 274.9 182.208 274.97C182.209 274.997 182.21 275.024 182.211 275.052L182.213 275.148L182.216 275.254C182.244 276.379 182.296 278.471 183.441 279.746C184.911 281.381 187.201 281.401 188.825 281.401C191.508 281.401 193.976 278.686 194.208 276.435C194.382 274.83 193.529 271.097 192.551 270.228C191.731 269.483 190.094 268.854 188.411 268.986C186.556 269.132 185.198 270.234 184.204 271.219Z" fill="#FEF8EB"/>
<path fill-rule="evenodd" clip-rule="evenodd" d="M437.651 158.41C446.181 158.642 450.049 159.164 456.285 160.926C460.608 162.143 466.016 163.972 468.294 164.982C470.571 165.992 475.002 168.458 478.141 170.469C480.3 171.853 481.612 172.969 483.14 174.27C483.833 174.86 484.571 175.488 485.454 176.197C486.323 176.895 487.171 177.55 487.987 178.178L488.335 178.445C490.531 180.133 492.477 181.629 493.959 183.232C494.988 184.346 496.001 185.314 497.059 186.326L497.212 186.473C498.27 187.485 499.376 188.55 500.593 189.853C504.688 194.241 508.195 198.618 510.407 201.68C512.609 204.734 515.458 209.286 516.726 211.786C517.984 214.293 520.187 219.971 521.612 224.407C523.028 228.852 524.643 234.993 525.19 238.064C525.96 242.392 525.968 244.958 525.206 249.444C524.61 252.945 522.912 257.861 520.916 261.858C519.094 265.5 515.26 272.022 512.394 276.342C509.52 280.671 504.071 288.12 500.278 292.895C498.679 294.907 497.673 296.246 496.831 297.378C496.711 297.539 496.594 297.697 496.479 297.852C495.489 299.186 494.656 300.309 493.18 302.092C491.89 303.652 490.934 304.764 490.027 305.812L489.64 306.258C488.177 307.947 486.735 309.612 484.079 312.908C479.549 318.519 467.954 332.788 458.306 344.624C448.658 356.459 439.034 367.732 436.922 369.66C434.819 371.597 431.324 374.063 429.162 375.131C426.992 376.207 423.175 377.746 420.673 378.549C417.609 379.534 414.487 379.898 411.149 379.666C407.762 379.426 404.234 378.4 400.077 376.455C395.687 374.394 392.648 372.201 389.244 368.625C386.644 365.894 382.337 359.935 379.67 355.383C377.012 350.831 373.086 344.499 370.958 341.313C368.821 338.126 366.279 333.939 365.301 332.002C364.324 330.073 363.43 328.493 363.322 328.493C363.206 328.501 363.049 331.754 362.983 335.735C362.908 339.716 362.328 344.648 361.699 346.693C361.061 348.745 358.146 353.761 355.206 357.849C352.266 361.938 346.883 368.228 343.239 371.828C339.454 375.569 333.947 379.948 330.402 382.017C326.982 384.011 321.764 386.354 318.808 387.214C315.843 388.075 310.534 388.994 307.006 389.259C302.956 389.557 300.588 389.424 300.588 388.903C300.588 388.448 302.227 385.567 304.24 382.488C306.244 379.418 308.671 375.139 309.623 372.971C310.973 369.892 312.025 368.774 314.46 367.798C316.166 367.119 318.866 365.861 320.464 365.017C322.054 364.164 323.992 362.401 324.762 361.085C325.541 359.77 326.385 357.204 326.659 355.383C327.089 352.42 326.783 351.601 323.677 347.52C321.772 345.021 318.592 341.578 316.613 339.865C314.625 338.16 312.265 336.761 311.354 336.761C309.929 336.761 309.557 337.63 308.753 342.761C308.24 346.064 307.296 350.252 306.65 352.072C306.012 353.893 303.379 359.107 300.811 363.659C298.236 368.212 292.322 377.15 287.668 383.523C281.043 392.602 277.829 396.186 272.86 400.076C269.748 402.514 266.929 404.473 263.294 407.001C262.857 407.304 262.408 407.617 261.945 407.939C252.173 414.741 240.354 422.414 236.304 424.434C231.791 426.677 224.793 429.168 218.184 430.881C209.049 433.257 204.958 433.819 191.268 434.63C176.833 435.483 174.191 435.425 166.423 434.126C161.636 433.323 154.555 431.783 150.687 430.699C146.812 429.615 140.476 427.413 136.608 425.799C132.732 424.194 125.097 420.221 119.631 416.985C114.165 413.741 105.875 408.237 92.7315 398.421L96.5991 395.938C98.7275 394.572 102.173 391.518 104.251 389.143C106.33 386.767 109.452 382.48 111.192 379.625C112.922 376.761 114.604 373.384 114.918 372.126C115.233 370.86 116.111 369.85 116.111 369.85C116.111 369.85 118.147 371.188 119.424 372.085C120.483 372.829 121.29 373.476 122.08 374.11C123.011 374.857 123.919 375.585 125.188 376.43C128.441 378.596 131.987 380.494 133.942 381.28C135.888 382.058 139.37 383.428 143.027 383.573C147.058 383.733 150.663 382.497 153.172 381.628C155.673 380.759 160.336 378.764 163.524 377.192C166.713 375.619 170.903 373.326 172.841 372.101C174.771 370.877 177.893 367.914 179.773 365.522C181.645 363.138 184.676 358.197 186.498 354.555C188.32 350.914 190.473 346.262 191.268 344.21C192.071 342.165 194.639 336.67 196.966 332.002C200.519 324.884 201.206 322.79 201.206 318.966C201.206 315.879 200.867 314.414 200.171 314.414C199.6 314.414 197.082 315.159 194.581 316.078C192.071 316.988 189.388 318.569 188.601 319.595C187.823 320.613 185.529 324.801 183.5 328.898C181.471 332.995 178.937 338.863 177.876 341.934C176.816 345.013 175.665 347.52 175.326 347.52C174.978 347.52 173.073 345.567 171.077 343.175C169.081 340.791 166.34 336.595 164.982 333.864C163.624 331.133 161.338 325.364 159.905 321.035C158.464 316.715 156.874 310.193 156.36 306.552C155.847 302.91 155.267 289.13 155.068 275.929C154.87 262.579 155.093 247.706 155.582 242.409C156.054 237.178 157.048 229.911 157.785 226.27C158.53 222.628 160.435 216.669 162.017 213.027C163.64 209.327 166.978 203.857 169.586 200.612C172.162 197.426 176.883 192.195 180.079 188.992C185.106 183.943 187.541 182.33 198.308 176.875C205.14 173.416 213.803 169.617 217.563 168.425C221.314 167.241 229.331 165.487 235.369 164.527C245.307 162.946 248.437 162.838 268.703 163.31C286.393 163.716 292.356 164.146 297.275 165.363C300.687 166.215 308.331 168.243 314.253 169.873C321.391 171.835 328.083 174.392 334.129 177.446C339.139 179.987 345.061 183.629 347.289 185.541C351.073 188.802 351.363 189.323 351.686 193.577C351.877 196.085 352.109 198.783 352.191 199.578C352.274 200.381 352.531 201.018 352.763 200.993C352.986 200.976 353.649 200.323 354.237 199.545C354.825 198.767 356.937 195.713 358.933 192.75C360.929 189.795 364.92 185.119 367.803 182.371C370.693 179.623 374.171 176.561 375.538 175.568C376.904 174.574 379.847 172.516 382.784 170.85C386.647 168.659 389.332 167.58 393.067 166.078L393.551 165.884C394.523 165.491 395.53 165.051 396.58 164.589L396.791 164.497C400.026 163.074 403.68 161.467 408.044 160.43C411.778 159.543 414.453 159.295 417.711 158.994C418.265 158.943 418.835 158.89 419.431 158.833C423.531 158.435 431.73 158.245 437.651 158.41ZM414.04 180.641C411.539 181.229 407.994 182.181 406.172 182.776C404.35 183.364 400.267 185.201 397.103 186.848C393.84 188.553 389.161 192.005 386.312 194.819C383.554 197.55 379.571 202.21 377.467 205.164C375.364 208.119 372.316 213.151 370.693 216.338C369.078 219.524 366.983 225.392 366.047 229.373C364.796 234.728 364.349 239.421 364.349 247.375C364.349 254.914 364.854 260.675 366.047 266.617C366.983 271.285 369.07 279.016 370.693 283.791C372.316 288.567 374.536 294.253 375.621 296.413C376.714 298.573 377.741 300.253 377.906 300.137C378.08 300.021 377.923 297.878 377.558 295.378C377.194 292.879 376.863 285.521 376.83 279.032C376.797 272.543 377.161 264.35 377.641 260.824C378.113 257.298 379.579 250.876 380.904 246.547C382.221 242.218 384.093 236.822 385.062 234.546C386.031 232.27 388.565 227.445 390.702 223.828C392.871 220.145 397.675 214.004 401.617 209.874C405.733 205.57 411.067 201.018 414.454 198.924C417.642 196.954 423.233 194.322 426.876 193.081C432.492 191.161 434.827 190.821 442.198 190.854C448.633 190.879 453.155 191.45 459.59 193.023C464.368 194.198 471.358 196.292 475.118 197.674C478.878 199.065 482.141 200.008 482.364 199.785C482.588 199.561 479.143 196.971 474.704 194.041C470.265 191.111 464.211 187.593 461.246 186.228C458.281 184.854 452.881 182.917 449.237 181.924C444.177 180.542 439.771 180.045 430.603 179.847C422.893 179.681 416.963 179.971 414.04 180.641ZM183.392 219.599C182.937 219.772 181.537 220.137 180.286 220.401C179.036 220.675 176.609 222.14 174.903 223.662C173.197 225.185 170.986 228.256 169.984 230.49C168.99 232.717 167.905 236.218 167.566 238.27L166.961 241.995C173.918 235.821 178.837 233.263 178.837 233.263C178.837 233.263 187.044 232.411 193.529 232.287C202.291 232.121 205.322 231.798 205.331 231.028C205.339 230.457 204.13 228.653 202.647 227.023C201.165 225.392 198.092 223.158 195.815 222.065C193.537 220.973 190.001 219.897 187.947 219.681C185.893 219.458 183.848 219.425 183.392 219.599ZM312.845 221.659C311.611 222.007 309.565 222.868 308.29 223.563C307.006 224.258 304.48 226.46 302.666 228.446L299.378 232.063C323.155 232.808 327.412 233.263 329.566 234.256C331.156 234.993 334.7 237.294 337.433 239.355C340.166 241.424 342.493 243.046 342.609 242.971C342.717 242.889 342.237 241.151 341.533 239.098C340.829 237.045 339.056 233.545 337.599 231.318C336.141 229.083 333.458 226.253 331.636 225.028C329.814 223.811 327.015 222.371 325.425 221.833C323.835 221.304 320.853 220.898 318.799 220.948C316.745 220.997 314.07 221.32 312.845 221.659ZM186.291 264.416C184.237 265.583 181.86 267.164 180.99 267.925C180.129 268.687 178.688 270.979 177.794 273.032C176.651 275.655 176.187 278.469 176.245 282.55C176.286 285.736 176.709 289.643 177.181 291.24C177.661 292.837 178.597 294.973 179.268 295.999C179.939 297.025 182.075 298.747 184.013 299.839C185.951 300.924 189.488 302.041 191.881 302.322C195.136 302.703 196.991 302.463 199.252 301.379C200.916 300.584 203.649 298.441 205.339 296.62C207.641 294.12 208.652 292.084 209.43 288.343C210.035 285.413 210.225 281.681 209.886 279.239C209.571 276.963 208.685 273.611 207.906 271.79C207.128 269.969 205.206 267.495 203.641 266.286C202.068 265.078 199.293 263.679 197.471 263.183C197.356 263.151 197.244 263.12 197.134 263.089C197.063 263.069 196.992 263.049 196.921 263.029L196.9 263.023L196.794 262.992L196.717 262.97L196.701 262.965L196.675 262.958L196.622 262.942C195.172 262.525 193.873 262.151 192.088 262.289C189.71 262.473 188.374 263.232 186.358 264.377L186.291 264.416ZM313.83 263.853C312.687 264.192 310.642 265.111 309.275 265.906C307.909 266.692 305.954 268.62 304.927 270.185C303.9 271.749 302.633 274.803 302.111 276.963C301.59 279.123 301.366 282.757 301.606 285.033C301.846 287.309 302.923 291.182 304 293.64C305.085 296.107 307.172 299.177 308.654 300.468C310.136 301.768 312.745 303.059 314.451 303.349C316.157 303.63 319.048 303.647 320.87 303.382C322.692 303.117 325.11 302.19 326.253 301.337C327.387 300.477 329.466 298.325 330.866 296.545C332.265 294.766 333.914 291.257 334.518 288.757C335.52 284.594 335.462 283.708 333.831 278.411C332.787 275.035 330.891 271.236 329.292 269.307C327.777 267.486 325.168 265.343 323.495 264.548C321.822 263.754 319.429 263.133 318.178 263.174C316.928 263.208 314.965 263.514 313.83 263.853ZM231.841 297.232C228.884 298.292 224.594 300.493 222.316 302.132C220.039 303.771 217.687 305.782 217.091 306.609C216.105 307.967 216.188 308.05 217.919 307.503C218.971 307.172 223.468 306.171 227.907 305.277C232.346 304.383 238.126 303.671 240.743 303.688C243.36 303.704 247.559 304.209 250.06 304.814C252.562 305.418 256.106 306.552 257.928 307.321C259.75 308.091 262.45 309.63 263.932 310.739C265.415 311.849 266.906 312.569 267.245 312.337C267.585 312.105 267.303 310.938 266.624 309.746C265.945 308.554 263.237 305.575 260.62 303.133C257.257 299.988 254.582 298.308 251.51 297.381C249.116 296.661 244.926 295.9 242.193 295.693C238.383 295.403 235.973 295.759 231.841 297.232ZM220.246 334.154C217.745 334.94 214.291 336.413 212.585 337.415C210.879 338.424 209.488 339.525 209.496 339.865C209.505 340.204 211.459 340.162 213.844 339.773C216.229 339.376 222.466 339.269 227.7 339.525C232.934 339.79 239.087 340.518 241.365 341.147C243.642 341.785 247.692 343.382 250.359 344.706C253.034 346.022 256.893 348.778 258.947 350.831L262.674 354.555C259.941 347.504 258.218 344.052 257.092 342.347C255.957 340.642 253.257 338.126 251.096 336.761C248.934 335.395 245.39 333.905 243.228 333.45C241.066 332.995 236.031 332.639 232.048 332.664C227.584 332.697 223.054 333.26 220.246 334.154ZM205.753 362.898C205.297 363.014 203.525 363.328 201.819 363.593C200.113 363.858 198.862 364.355 199.036 364.694C199.219 365.033 201.546 365.58 204.213 365.911C206.879 366.233 211.492 367.342 214.449 368.361C217.405 369.379 222.532 371.994 225.836 374.179C229.141 376.356 233.986 380.188 236.603 382.679C239.22 385.178 241.555 387.032 241.779 386.792C242.002 386.561 241.307 384.607 240.23 382.464C239.145 380.312 237.282 377.307 236.089 375.776C234.888 374.237 231.675 371.514 228.942 369.718C226.209 367.922 221.546 365.745 218.59 364.893C215.633 364.032 211.716 363.188 209.894 363.014C208.072 362.832 206.208 362.782 205.753 362.898ZM182.961 383.73C182.961 384.069 184.726 385.725 186.895 387.405C189.073 389.085 192.933 392.619 195.484 395.267C198.043 397.916 201.72 402.311 203.666 405.042C207.078 409.826 207.186 409.9 206.664 407.111C206.366 405.522 205.314 402.542 204.328 400.49C203.335 398.437 200.618 394.903 198.274 392.627C195.939 390.351 191.724 387.281 188.916 385.799C186.109 384.318 183.616 383.109 183.392 383.109C183.169 383.109 182.97 383.391 182.961 383.73Z" fill="#AAB6BC"/>
<path d="M325.425 417.043C291.743 417.043 271.642 417.963 271.642 417.963C271.642 417.963 264.297 423.523 261.448 425.369C258.599 427.223 251.8 430.906 246.334 433.555C240.868 436.203 233.414 439.332 229.77 440.515C226.126 441.699 219.227 443.404 214.449 444.314C209.662 445.216 201.372 446.532 196.022 447.227C190.672 447.923 183.591 448.485 180.286 448.477C176.982 448.469 170.837 448.096 166.622 447.649C162.406 447.203 154.77 445.82 149.644 444.571C143.118 442.981 137.279 440.813 130.157 437.329L103.481 422.191L99.3238 419.476L98.1726 422.191C97.5349 423.681 96.3341 428.076 95.4976 431.941C94.4458 436.807 93.982 442.286 94.0069 449.735C94.0317 458.053 94.4624 462.191 95.9034 467.943C96.9303 472.04 99.2492 478.562 101.071 482.427C102.993 486.508 105.842 490.952 107.862 493.021C109.775 494.974 111.395 496.482 114.032 498.194C120.485 502.382 133 503.508 133 503.508C134.482 503.806 192.535 504.228 259.378 504.277C326.22 504.319 380.813 504.17 380.697 503.946C380.581 503.723 379.323 501.298 377.898 498.566C376.465 495.835 374.701 491.548 373.964 489.049C373.227 486.549 372.01 479.464 371.256 473.323C370.072 463.731 370.014 460.627 370.875 451.39C371.422 445.473 372.352 436.631 374.751 427.481C375.736 423.723 377.649 417.963 377.649 417.963C377.649 417.963 359.38 417.043 325.425 417.043Z" fill="#E98140"/>
</svg>
