<svg width="587" height="712" viewBox="0 0 587 712" fill="none" xmlns="http://www.w3.org/2000/svg">
<path fill-rule="evenodd" clip-rule="evenodd" d="M387.521 105.697C385.754 106.025 383.479 106.169 381.08 106.123C383.481 106.165 385.766 106.019 387.521 105.697ZM376.755 105.838C375.666 105.717 374.451 105.539 373.226 105.328C374.466 105.548 375.682 105.721 376.755 105.838ZM312.477 115.634C314.239 115.577 316.064 115.518 318.003 115.457C319.946 115.569 324.414 115.778 324.414 115.778C324.414 115.778 331.352 116.825 350.085 118.146L357.756 118.675C357.756 118.675 358.909 122.12 359.404 126.217C361.05 139.818 359.404 164.196 359.404 164.196L354.402 161.713C351.669 160.571 345.425 158.535 340.53 157.186C335.627 155.828 327.9 153.999 323.345 153.105C318.79 152.22 311.428 151.086 306.989 150.597C302.542 150.109 294.069 149.712 288.148 149.712C282.226 149.712 273 150.283 267.65 150.97C262.292 151.665 254.192 153.014 249.637 153.966C245.083 154.918 238.556 156.548 235.144 157.591C231.724 158.634 224.833 161.392 224.833 161.392C224.833 161.392 224.742 159.015 224.163 140.558L223.542 120.744C223.61 120.718 223.679 120.691 223.751 120.666L225.413 120.016C226.245 119.685 230.557 119.238 235.708 118.923C236.742 118.857 237.798 118.799 238.863 118.749C241.981 118.604 245.849 118.389 249.599 118.158C253.502 117.91 257.175 117.643 259.576 117.425C261.168 117.278 264.161 117.11 268.024 116.941C275.212 116.628 285.41 116.311 295.187 116.118C301.561 115.988 306.687 115.822 312.477 115.634ZM235.787 92.4662C235.027 93.2781 234.212 94.1116 233.413 94.8883C232.795 95.4873 232.088 96.1211 231.34 96.7539C229.167 98.5729 226.746 100.326 225.082 101.236C222.639 102.561 218.78 104.141 216.502 104.737C218.78 104.141 222.506 102.66 224.784 101.443C226.491 100.531 229.101 98.6475 231.34 96.7539C232.347 95.9108 233.301 95.0535 234.101 94.2593C234.686 93.678 235.249 93.0794 235.787 92.4662ZM253.794 111.37C254.561 111.848 255.303 112.271 255.965 112.6C256.25 112.742 256.55 112.884 256.86 113.026C259.094 114.073 262.042 115.102 263.708 115.389C262.1 115.112 259.194 114.092 256.86 113.026C256.652 112.928 256.449 112.83 256.255 112.732C255.485 112.344 254.635 111.871 253.794 111.37ZM270.334 115.464C272.156 115.182 274.392 114.437 275.303 113.808C275.618 113.59 275.861 113.408 276.008 113.248C275.845 113.401 275.605 113.578 275.303 113.792C274.392 114.429 272.156 115.182 270.334 115.464ZM274.051 111.859C273.54 111.704 272.925 111.529 272.197 111.325C272.58 111.452 272.928 111.56 273.232 111.64C273.529 111.718 273.802 111.791 274.051 111.859ZM121.618 351.46C123.183 352.254 125.237 353.959 126.173 355.242C127.448 356.972 127.887 358.793 127.862 362.277C127.837 365.522 127.175 368.385 125.717 371.53C124.549 374.03 122.52 377.357 121.195 378.921C119.87 380.486 117.104 382.82 115.059 384.102C112.922 385.451 110.181 386.445 108.64 386.436C107.158 386.428 104.458 385.683 102.636 384.773C100.814 383.862 98.76 382.182 98.0809 381.048C97.9949 380.905 97.9142 380.773 97.838 380.647C97.3052 379.769 96.5896 378.376 96.142 376.794C95.5448 374.684 95.5271 373.392 95.6374 371.201C95.7619 368.728 96.1272 367.642 96.9304 365.253C97.0428 364.919 97.1637 364.559 97.2938 364.166C98.6357 360.115 100.021 358.044 103.091 355.242C105.575 352.975 109.137 351.245 110.504 350.856C111.87 350.475 114.288 350.127 115.887 350.086C117.477 350.045 120.061 350.665 121.618 351.46ZM392.407 364.065C392.68 364.065 393.641 365.273 394.544 366.755C395.447 368.245 398.271 372.068 400.83 375.255C403.389 378.441 407.314 382.389 409.55 384.02C411.786 385.658 416.226 388.431 419.414 390.177C424.996 393.231 425.559 393.364 434.735 393.711C444.177 394.076 444.317 394.051 451.713 391.03C455.812 389.35 460.119 387.819 460.119 387.819C460.119 387.819 474.032 404.43 475.631 406.706C477.237 408.982 485.461 420.039 485.461 420.039L492.087 430.376L451 435.508C451 435.508 443.124 418.375 441.816 416.224C437.12 408.502 424.068 403.817 415.952 403.817C415.683 403.644 414.734 403.654 410.346 403.702C406.352 403.746 399.508 403.821 387.736 403.817C358.617 403.809 342.658 403.511 342.393 402.981C342.162 402.526 343.561 401.74 345.499 401.243C347.429 400.746 351.628 399.141 354.816 397.676C358.005 396.203 362.659 393.695 365.168 392.089C367.669 390.475 373.26 385.658 377.591 381.379C381.914 377.092 386.908 371.448 388.68 368.832C390.453 366.217 392.126 364.073 392.407 364.065ZM415.952 418.185C414.669 419.278 412.532 422.158 411.223 424.599C409.907 427.049 408.35 430.716 407.753 432.768C407.157 434.821 406.221 440.407 405.675 445.183C405.087 450.323 404.888 457.929 405.186 463.805C405.467 469.268 406.412 476.716 407.298 480.358C408.184 484 410.155 489.553 411.671 492.69C413.194 495.835 415.464 499.278 416.714 500.346C417.965 501.414 419.828 502.514 420.855 502.796C421.882 503.069 423.836 503.036 425.203 502.721C426.569 502.407 429.087 500.685 430.793 498.906C432.499 497.126 434.363 494.155 434.934 492.309C435.638 490.017 436.563 487.852 436 487.008C435.545 486.329 432.077 485.556 429.344 484.439C426.611 483.313 423.489 481.567 422.404 480.549C421.319 479.531 419.547 476.841 418.478 474.565C417.252 471.966 416.515 468.887 416.507 466.288C416.499 464.012 417.269 459.17 418.213 455.529C419.157 451.887 420.582 447.79 421.368 446.425C422.164 445.059 424.284 443.106 426.081 442.096C427.878 441.078 431.389 439.663 433.899 438.951C436.4 438.239 438.918 437.486 439.489 437.279L440 437.008C440 437.008 435.577 424.436 432.5 421.508C428.894 418.076 426.917 416.21 422.5 416.224C419.831 416.232 417.244 417.101 415.952 418.185Z" fill="#AAB6BC"/>
<path fill-rule="evenodd" clip-rule="evenodd" d="M256.86 113.026C256.652 112.928 256.449 112.83 256.255 112.732C255.485 112.344 254.635 111.871 253.794 111.37C254.561 111.848 255.303 112.271 255.965 112.6C256.25 112.742 256.55 112.884 256.86 113.026Z" fill="#483E4B"/>
<path d="M411.223 424.599C412.532 422.158 414.669 419.278 415.952 418.185C417.244 417.101 419.831 416.232 422.5 416.224C426.917 416.21 428.894 418.076 432.5 421.508C435.577 424.436 440 437.008 440 437.008L439.489 437.279C438.918 437.486 436.4 438.239 433.899 438.951C431.389 439.663 427.878 441.078 426.081 442.096C424.284 443.106 422.164 445.059 421.368 446.425C420.582 447.79 419.157 451.887 418.213 455.529C417.269 459.17 416.499 464.012 416.507 466.288C416.515 468.887 417.252 471.966 418.478 474.565C419.547 476.841 421.319 479.531 422.404 480.549C423.489 481.567 426.611 483.313 429.344 484.439C432.077 485.556 435.545 486.329 436 487.008C436.563 487.852 435.638 490.017 434.934 492.309C434.363 494.155 432.499 497.126 430.793 498.906C429.087 500.685 426.569 502.407 425.203 502.721C423.836 503.036 421.882 503.069 420.855 502.796C419.828 502.514 417.965 501.414 416.714 500.346C415.464 499.278 413.194 495.835 411.671 492.69C410.155 489.553 408.184 484 407.298 480.358C406.412 476.716 405.467 469.268 405.186 463.805C404.888 457.929 405.087 450.323 405.675 445.183C406.221 440.407 407.157 434.821 407.753 432.768C408.35 430.716 409.907 427.049 411.223 424.599Z" fill="#E98140"/>
<path d="M430.172 182.776C431.994 182.181 435.539 181.229 438.04 180.641C440.963 179.971 446.893 179.681 454.603 179.847C463.771 180.045 468.177 180.542 473.237 181.924C476.881 182.917 482.281 184.854 485.246 186.228C488.211 187.593 494.265 191.111 498.704 194.041C503.143 196.971 506.588 199.561 506.364 199.785C506.141 200.008 502.878 199.065 499.118 197.674C495.358 196.292 488.368 194.198 483.59 193.023C477.155 191.45 472.633 190.879 466.198 190.854C458.827 190.821 456.492 191.161 450.876 193.081C447.233 194.322 441.642 196.954 438.454 198.924C435.067 201.018 429.733 205.57 425.617 209.874C421.675 214.004 416.871 220.145 414.702 223.828C412.565 227.445 410.031 232.27 409.062 234.546C408.093 236.822 406.221 242.218 404.904 246.547C403.579 250.876 402.113 257.298 401.641 260.824C401.161 264.35 400.797 272.543 400.83 279.032C400.863 285.521 401.194 292.879 401.558 295.378C401.923 297.878 402.08 300.021 401.906 300.137C401.741 300.253 400.714 298.573 399.621 296.413C398.536 294.253 396.316 288.567 394.693 283.791C393.07 279.016 390.983 271.285 390.047 266.617C388.854 260.675 388.349 254.914 388.349 247.375C388.349 239.421 388.796 234.728 390.047 229.373C390.983 225.392 393.078 219.524 394.693 216.338C396.316 213.151 399.364 208.119 401.467 205.164C403.571 202.21 407.554 197.55 410.312 194.819C413.161 192.005 417.84 188.553 421.103 186.848C424.267 185.201 428.35 183.364 430.172 182.776Z" fill="#483E4B"/>
<path d="M204.286 220.401C205.537 220.137 206.937 219.772 207.392 219.599C207.848 219.425 209.893 219.458 211.947 219.681C214.001 219.897 217.537 220.973 219.815 222.065C222.092 223.158 225.165 225.392 226.647 227.023C228.13 228.653 229.339 230.457 229.331 231.028C229.322 231.798 226.291 232.121 217.529 232.287C211.044 232.411 202.837 233.263 202.837 233.263C202.837 233.263 197.918 235.821 190.961 241.995L191.566 238.27C191.905 236.218 192.99 232.717 193.984 230.49C194.986 228.256 197.197 225.185 198.903 223.662C200.609 222.14 203.036 220.675 204.286 220.401Z" fill="#483E4B"/>
<path d="M332.29 223.563C333.565 222.868 335.611 222.007 336.845 221.659C338.07 221.32 340.745 220.997 342.799 220.948C344.853 220.898 347.835 221.304 349.425 221.833C351.015 222.371 353.814 223.811 355.636 225.028C357.458 226.253 360.141 229.083 361.599 231.318C363.056 233.545 364.829 237.045 365.533 239.098C366.237 241.151 366.717 242.889 366.609 242.971C366.493 243.046 364.166 241.424 361.433 239.355C358.7 237.294 355.156 234.993 353.566 234.256C351.412 233.263 347.155 232.808 323.378 232.063L326.666 228.446C328.48 226.46 331.006 224.258 332.29 223.563Z" fill="#483E4B"/>
<path d="M246.316 302.132C248.594 300.493 252.884 298.292 255.841 297.232C259.973 295.759 262.383 295.403 266.193 295.693C268.926 295.9 273.116 296.661 275.51 297.381C278.582 298.308 281.257 299.988 284.62 303.133C287.237 305.575 289.945 308.554 290.624 309.746C291.303 310.938 291.585 312.105 291.245 312.337C290.906 312.569 289.415 311.849 287.932 310.739C286.45 309.63 283.75 308.091 281.928 307.321C280.106 306.552 276.562 305.418 274.06 304.814C271.559 304.209 267.36 303.704 264.743 303.688C262.126 303.671 256.346 304.383 251.907 305.277C247.468 306.171 242.971 307.172 241.919 307.503C240.188 308.05 240.105 307.967 241.091 306.609C241.687 305.782 244.039 303.771 246.316 302.132Z" fill="#483E4B"/>
<path d="M236.585 337.415C238.291 336.413 241.745 334.94 244.246 334.154C247.054 333.26 251.584 332.697 256.048 332.664C260.031 332.639 265.066 332.995 267.228 333.45C269.39 333.905 272.934 335.395 275.096 336.761C277.257 338.126 279.957 340.642 281.092 342.347C282.218 344.052 283.941 347.504 286.674 354.555L282.947 350.831C280.893 348.778 277.034 346.022 274.359 344.706C271.692 343.382 267.642 341.785 265.365 341.147C263.087 340.518 256.934 339.79 251.7 339.525C246.466 339.269 240.229 339.376 237.844 339.773C235.459 340.162 233.505 340.204 233.496 339.865C233.488 339.525 234.879 338.424 236.585 337.415Z" fill="#483E4B"/>
<path d="M225.819 363.593C227.525 363.328 229.297 363.014 229.753 362.898C230.208 362.782 232.072 362.832 233.894 363.014C235.716 363.188 239.633 364.032 242.59 364.893C245.546 365.745 250.209 367.922 252.942 369.718C255.675 371.514 258.888 374.237 260.089 375.776C261.282 377.307 263.145 380.312 264.23 382.464C265.307 384.607 266.002 386.561 265.779 386.792C265.555 387.032 263.22 385.178 260.603 382.679C257.986 380.188 253.141 376.356 249.836 374.179C246.532 371.994 241.405 369.379 238.449 368.361C235.492 367.342 230.879 366.233 228.213 365.911C225.546 365.58 223.219 365.033 223.036 364.694C222.862 364.355 224.113 363.858 225.819 363.593Z" fill="#483E4B"/>
<path d="M210.895 387.405C208.726 385.725 206.961 384.069 206.961 383.73C206.97 383.391 207.169 383.109 207.392 383.109C207.616 383.109 210.109 384.318 212.916 385.799C215.724 387.281 219.939 390.351 222.274 392.627C224.618 394.903 227.335 398.437 228.328 400.49C229.314 402.542 230.366 405.522 230.664 407.111C231.186 409.9 231.078 409.826 227.666 405.042C225.72 402.311 222.043 397.916 219.484 395.267C216.933 392.619 213.073 389.085 210.895 387.405Z" fill="#483E4B"/>
<path d="M103.87 450.612C88.4658 448.394 83.8031 447.765 83.5795 447.79C53.0631 443.511 50.0876 453.139 50.0876 462.243C50.0876 467.294 51.3299 478.796 69.5498 481.693C77.4175 482.943 88.8105 481.306 100.971 479.448C104.152 478.962 108.947 478.124 109.087 478.033C109.22 477.941 108.574 475.078 107.655 471.668C106.727 468.25 105.493 462.117 104.922 458.036L103.87 450.612Z" fill="#E98140"/>
<path d="M521.735 447.345C519.841 446.66 516.98 446.297 516.43 446.228C516.426 446.227 516.423 446.227 516.419 446.226C516.388 446.222 516.366 446.219 516.352 446.218C515.615 446.118 514.857 446.026 514.081 445.942C512.292 445.749 510.404 445.596 508.44 445.48C504.994 445.275 501.313 445.183 497.517 445.176C493.429 445.169 489.209 445.262 485.004 445.422C483.922 445.463 483.006 445.499 481.726 445.555C466.1 446.244 441.816 448.907 441.816 448.907C441.816 448.907 435.343 450.563 434.106 451.39C433.079 452.069 431.315 454.585 430.189 456.977C429.062 459.369 428.135 462.44 428.135 463.805C428.135 465.171 429.062 467.869 430.189 469.806C431.754 472.487 433.071 473.605 435.762 474.507C437.7 475.152 443.754 475.905 449.22 476.179C454.686 476.443 467.73 477.619 478.206 478.794C491.424 480.267 500.17 480.822 506.779 480.606C514.091 480.366 517.164 479.903 520.029 478.612C522.075 477.685 525.214 475.649 526.994 474.085C528.775 472.529 530.912 469.764 531.74 467.943C532.568 466.123 533.247 462.862 533.264 460.702C533.28 457.275 532.468 455.39 529.967 453.046C529.621 452.832 529.123 452.409 528.508 451.879C528.467 451.844 528.426 451.808 528.384 451.772C526.75 450.364 524.34 448.288 521.735 447.345Z" fill="#E98140"/>
<path fill-rule="evenodd" clip-rule="evenodd" d="M74.8919 178.961C77.1694 177.124 80.1509 174.939 81.5173 174.103C89.5094 168.731 104.459 160.364 120.897 158.495C130.217 157.435 140.056 158.717 144.942 159.354C144.963 159.357 144.984 159.359 145.005 159.362C149.011 159.884 151.954 160.748 155.123 161.678C156.09 161.962 157.078 162.252 158.124 162.54C162.447 163.732 168.973 166.141 172.617 167.887C176.261 169.633 182.315 173.333 186.075 176.114C191.731 180.302 192.775 181.411 192.137 182.611C191.723 183.414 189.636 186.112 187.499 188.611C185.371 191.119 183.383 193.486 183.093 193.875C182.795 194.264 180.692 193.354 178.414 191.848C176.137 190.341 171.665 187.908 168.476 186.443C165.288 184.978 159.325 182.776 155.225 181.56C149.809 179.954 145.155 179.226 138.248 178.911C132.748 178.655 125.568 178.895 121.27 179.474C119.785 179.672 118.016 179.808 116.09 179.957C112.698 180.219 108.82 180.518 105.161 181.255C93.8933 183.526 81.734 192.195 80.1107 193.784C78.4792 195.382 78.1549 199.147 78.3123 199.371C78.4697 199.603 80.0018 199.172 81.7078 198.427C83.4222 197.682 88.7391 196.002 93.5259 194.703C101.543 192.526 103.348 192.336 116.715 192.336C129.27 192.336 131.978 192.576 137.005 194.14C140.194 195.133 145.213 197.55 148.169 199.52C151.117 201.49 155.217 205.206 157.279 207.771C159.333 210.345 162.497 215.378 164.302 218.945C166.679 223.646 167.59 226.476 167.59 229.166C167.59 231.219 167.101 237.55 166.497 243.236C165.735 250.379 165.519 260.501 165.801 275.929C166.074 291.381 166.637 300.957 167.623 306.965C168.402 311.749 169.702 318.263 170.513 321.449C171.317 324.636 173.279 329.85 174.861 333.036C176.443 336.223 180.601 343.299 184.095 348.762C187.59 354.224 190.448 359.165 190.439 359.728C190.431 360.299 189.205 361.681 187.731 362.807C186.249 363.924 182.058 366.01 178.414 367.434C172.923 369.577 171.077 369.933 167.648 369.519C165.37 369.246 161.826 368.187 159.78 367.169C157.602 366.084 151.399 360.721 144.873 354.274C138.72 348.199 134.247 343.514 134.935 343.854C134.59 343.495 134.241 343.151 133.89 342.823C133.068 342.056 132.096 341.232 130.826 340.377C129.612 339.558 128.891 339.146 127.563 338.528C121.368 335.644 113.452 336.266 110.089 337.58C108.947 337.572 106.363 335.677 106.363 335.677C106.363 335.677 104.069 333.955 101.352 331.025C98.6441 328.095 95.2233 324.025 95.2233 324.025C95.2233 324.025 87.5713 316.483 79.1488 307.379C76.9841 305.039 75.3025 303.232 73.8991 301.723C69.8419 297.362 68.1097 295.5 63.7525 290.505C63.3136 290.002 62.9478 289.589 62.6125 289.212C62.587 289.183 62.5626 289.155 62.5374 289.127C62.5153 289.102 62.4933 289.077 62.4714 289.053C62.425 289.001 62.3787 288.948 62.3331 288.897C62.2679 288.824 62.202 288.749 62.1379 288.677C61.3733 287.814 60.663 286.999 59.3967 285.447C57.3428 282.947 52.0591 275.498 47.6531 268.893C43.2472 262.297 39.0401 255.03 38.303 252.754C37.334 249.75 37.0856 246.812 37.4003 241.995C37.6819 237.724 38.7668 232.584 40.4728 227.511C41.9222 223.191 45.0444 215.974 47.4047 211.479C49.765 206.994 54.0301 200.381 56.8791 196.789C59.728 193.197 64.7053 188.156 66.8503 186.071C68.9953 183.993 72.6144 180.79 74.8919 178.961Z" fill="#AAB6BC"/>
<path fill-rule="evenodd" clip-rule="evenodd" d="M359.404 164.196C359.404 164.196 361.05 139.818 359.404 126.217C358.909 122.12 357.756 118.675 357.756 118.675C354.992 118.488 352.44 118.312 350.085 118.146C331.352 116.825 324.414 115.778 324.414 115.778C324.414 115.778 319.946 115.569 318.003 115.457C309.692 115.717 303.501 115.948 295.187 116.118C285.41 116.311 275.212 116.628 268.024 116.941C264.161 117.11 261.168 117.278 259.576 117.425C257.175 117.643 253.502 117.91 249.599 118.158C246.096 118.38 242.407 118.588 239.285 118.733C239.144 118.739 239.003 118.743 238.863 118.749C237.792 118.8 236.733 118.86 235.708 118.923C230.557 119.238 226.245 119.685 225.413 120.016L223.751 120.666L223.542 120.744L224.833 161.392C224.833 161.392 231.724 158.634 235.144 157.591C238.556 156.548 245.083 154.918 249.637 153.966C254.192 153.014 262.292 151.665 267.65 150.97C273 150.283 282.226 149.712 288.148 149.712C294.069 149.712 302.542 150.109 306.989 150.597C311.428 151.086 318.79 152.22 323.345 153.105C327.9 153.999 335.627 155.828 340.53 157.186C345.425 158.535 351.669 160.571 354.402 161.713L359.404 164.196ZM373.226 105.328C374.466 105.548 375.682 105.721 376.755 105.838C375.666 105.717 374.451 105.539 373.226 105.328ZM233.413 94.8883C234.212 94.1116 235.027 93.2781 235.787 92.4662C235.249 93.0794 234.686 93.678 234.101 94.2593C233.301 95.0535 232.347 95.9108 231.34 96.7539C232.088 96.1211 232.795 95.4873 233.413 94.8883Z" fill="#FEF8EB"/>
<path fill-rule="evenodd" clip-rule="evenodd" d="M521.212 186.473C521.3 186.556 521.387 186.64 521.475 186.725C521.388 186.641 521.3 186.557 521.212 186.473Z" fill="#483E4B"/>
<path d="M256.86 113.026C259.194 114.092 262.1 115.112 263.708 115.389C265.53 115.712 268.512 115.745 270.334 115.464C272.156 115.182 274.392 114.429 275.303 113.792C275.605 113.578 275.845 113.401 276.008 113.248C276.615 112.679 276.178 112.439 274.051 111.859C273.802 111.791 273.529 111.718 273.232 111.64C272.928 111.56 272.58 111.452 272.197 111.325L272.164 111.316L272.138 111.309L272.125 111.305C271.123 110.971 269.896 110.497 268.621 109.957C267.086 109.307 265.483 108.562 264.122 107.849C263.318 107.43 262.417 106.912 261.486 106.34C261.021 106.056 260.549 105.758 260.078 105.452C258.56 104.468 257.049 103.403 255.818 102.442C255.618 102.286 255.425 102.133 255.242 101.983C255.013 101.797 254.798 101.617 254.598 101.443C252.767 99.8532 250.364 97.1934 248.67 94.93C248.391 94.5579 248.132 94.1964 247.898 93.8522C247.784 93.6856 247.676 93.5231 247.575 93.3654C246.938 92.3713 246.282 91.1533 245.695 89.9058C245.591 89.6844 245.49 89.4614 245.391 89.2393C244.662 87.6077 244.314 86.5766 243.824 84.8075C243.39 83.241 242.962 80.7355 242.962 80.7355L241.737 83.566C241.066 85.122 240.536 88.2588 240.561 90.5348C240.576 92.156 240.901 94.0596 241.462 95.954C241.518 96.1432 241.576 96.3324 241.637 96.5212C241.91 97.3699 242.229 98.2109 242.587 99.0177C242.618 99.0871 242.649 99.1563 242.681 99.2252C242.807 99.5026 242.95 99.7927 243.106 100.092C244.361 102.494 246.49 105.468 248.147 107.088C249.509 108.413 251.741 110.09 253.794 111.37C254.635 111.871 255.485 112.344 256.255 112.732C256.449 112.83 256.652 112.928 256.86 113.026Z" fill="#483E4B"/>
<path fill-rule="evenodd" clip-rule="evenodd" d="M169.345 76.5577C168.956 82.7395 169.439 86.4124 171.416 92.283C172.076 94.2447 173.1 96.3686 173.756 97.7299C173.984 98.2023 174.168 98.5842 174.276 98.8344C174.399 99.1175 174.522 99.3924 174.643 99.6576C174.772 99.939 174.901 100.209 175.027 100.467C175.06 100.534 175.093 100.601 175.128 100.669C175.221 100.855 175.318 101.044 175.418 101.237C175.594 101.574 175.78 101.92 175.974 102.27C176.083 102.467 176.194 102.665 176.307 102.864C176.485 103.177 176.668 103.492 176.855 103.807C176.985 104.026 177.116 104.245 177.249 104.463C177.626 105.083 178.013 105.696 178.398 106.284C178.676 106.708 178.954 107.119 179.226 107.51C179.234 107.522 179.241 107.534 179.249 107.545L179.257 107.557C179.542 107.966 179.82 108.352 180.087 108.709C180.426 109.16 180.747 109.563 181.04 109.902C182.383 111.443 184.206 113.235 185.596 114.41C188.875 117.38 196.675 123.32 201.644 123.32C206.613 123.32 217.902 115.34 217.902 115.34C217.902 115.34 217.032 127.738 217.14 140.955C217.264 155.563 217.794 164.289 217.794 164.289L224.833 161.392C224.833 161.392 224.742 159.015 224.163 140.558L223.542 120.744C223.61 120.718 223.679 120.691 223.751 120.666L225.413 120.016C226.245 119.685 230.557 119.238 235.708 118.923C236.742 118.857 237.798 118.799 238.863 118.749C241.981 118.604 245.849 118.389 249.599 118.158C253.502 117.91 257.175 117.643 259.576 117.425C261.168 117.278 264.161 117.11 268.024 116.941C275.212 116.628 285.41 116.311 295.187 116.118C303.501 115.948 309.692 115.717 318.003 115.457C315.933 115.457 312.83 115.144 310.941 114.289C309.741 113.747 308.041 112.569 308.041 112.569C308.041 112.569 313.708 111.54 315.865 110.624C316.257 110.458 316.516 110.333 316.857 110.173C317.067 110.075 317.281 109.974 317.498 109.869C317.702 109.77 317.905 109.669 318.107 109.566C318.56 109.336 319.01 109.093 319.458 108.84C319.869 108.607 320.279 108.364 320.685 108.112C321.348 107.701 322.005 107.265 322.653 106.804C324.6 105.42 326.478 103.815 328.265 101.998C330.171 100.07 332.45 97.3386 334.195 94.9529C334.482 94.5601 334.755 94.1767 335.009 93.8077C335.445 93.1761 335.826 92.5869 336.132 92.066C337.48 89.7957 338.271 87.9934 339.048 85.1778C339.565 83.3038 339.95 80.2821 339.95 80.2821C339.931 80.2932 339.97 80.2701 339.95 80.2821C339.582 80.4998 334.599 84.5497 334.31 84.8654C332.726 86.4053 327.644 90.5679 325.822 91.8177C324 93.0757 319.527 95.2607 315.883 96.6843C312.24 98.1078 306.086 99.8211 302.219 100.491C298.351 101.17 292.57 101.708 289.382 101.692C285.953 101.675 279.849 100.748 274.441 99.4072C268.503 97.9506 263.584 96.138 260.412 94.2593C257.729 92.6619 252.818 88.565 243.484 78.9477L241.082 84.3275C239.823 87.1587 238.01 89.9364 235.787 92.4662C235.249 93.0794 234.686 93.678 234.101 94.2593C233.301 95.0535 232.347 95.9108 231.34 96.7539C229.101 98.6475 226.491 100.531 224.784 101.443C222.506 102.66 218.78 104.141 216.502 104.737C214.225 105.342 209.844 105.83 206.771 105.838C203.698 105.838 199.226 105.424 196.833 104.919C194.439 104.406 191.512 103.429 188.344 101.898C183.451 99.5352 178.217 95.7322 176.998 93.8454C172.244 86.4895 173.072 89.3862 169.345 76.5577ZM255.965 112.6C255.303 112.271 254.561 111.848 253.794 111.37C251.741 110.09 249.509 108.413 248.147 107.088C246.49 105.468 244.361 102.494 243.106 100.092C242.95 99.7927 242.807 99.5026 242.681 99.2252C242.649 99.1563 242.618 99.0871 242.587 99.0177C242.229 98.2109 241.91 97.3699 241.637 96.5212C241.576 96.3324 241.518 96.1432 241.462 95.954C240.901 94.0596 240.576 92.156 240.561 90.5348C240.536 88.2588 241.066 85.122 241.737 83.566L242.962 80.7355C242.962 80.7355 243.39 83.241 243.824 84.8075C244.314 86.5766 244.662 87.6077 245.391 89.2393C245.49 89.4614 245.591 89.6844 245.695 89.9058C246.282 91.1533 246.938 92.3713 247.575 93.3654C247.676 93.5231 247.784 93.6856 247.898 93.8522C248.132 94.1964 248.391 94.5579 248.67 94.93C250.364 97.1934 252.767 99.8532 254.598 101.443C254.798 101.617 255.013 101.797 255.242 101.983C255.425 102.133 255.618 102.286 255.818 102.442C257.049 103.403 258.56 104.468 260.078 105.452C260.549 105.758 261.021 106.056 261.486 106.34C262.417 106.912 263.318 107.43 264.122 107.849C265.483 108.562 267.086 109.307 268.621 109.957C269.896 110.497 271.123 110.971 272.125 111.305L272.138 111.309L272.164 111.316L272.197 111.325C272.925 111.529 273.54 111.704 274.051 111.859C276.178 112.439 276.615 112.679 276.008 113.248C275.861 113.408 275.618 113.59 275.303 113.808C274.392 114.437 272.156 115.182 270.334 115.464C268.512 115.745 265.53 115.712 263.708 115.389C262.042 115.102 259.094 114.073 256.86 113.026C256.55 112.884 256.25 112.742 255.965 112.6Z" fill="#D4D4D4"/>
<path d="M339.95 80.2821C339.95 80.2821 339.565 83.3038 339.048 85.1778C338.271 87.9934 337.48 89.7957 336.132 92.066C335.826 92.5869 335.445 93.1761 335.009 93.8077C334.755 94.1767 334.482 94.5601 334.195 94.9529C332.45 97.3386 330.171 100.07 328.265 101.998C326.478 103.815 324.6 105.42 322.653 106.804C322.005 107.265 321.348 107.701 320.685 108.112C320.279 108.364 319.869 108.607 319.458 108.84C319.01 109.093 318.56 109.336 318.107 109.566C317.905 109.669 317.702 109.77 317.498 109.869C317.281 109.974 317.067 110.075 316.857 110.173C316.516 110.333 316.257 110.458 315.865 110.624C313.708 111.54 308.041 112.569 308.041 112.569C308.041 112.569 309.741 113.747 310.941 114.289C312.83 115.144 315.933 115.457 318.003 115.457C320.902 115.457 324.708 114.05 326.857 112.964C329.018 111.88 332.464 109.521 334.517 107.725C336.836 105.706 338.981 102.776 340.182 99.9866C340.23 99.8753 340.278 99.7642 340.324 99.6533C340.354 99.581 340.384 99.5088 340.414 99.4366C340.43 99.3954 340.447 99.3541 340.464 99.3129C340.464 99.3129 340.485 99.2607 340.498 99.2272C341.832 95.8671 342.145 92.583 342.162 90.121C342.186 86.9015 339.95 80.2821 339.95 80.2821Z" fill="#483E4B"/>
<path fill-rule="evenodd" clip-rule="evenodd" d="M275.717 0.817534C272.76 1.20653 266.98 2.65492 262.88 4.04537C258.781 5.43582 251.898 8.51468 247.584 10.8983C241.695 14.1427 237.77 17.1388 231.848 22.9241L223.956 30.6295C218.158 28.9411 212.833 28.4942 208.22 28.5355C202.895 28.5852 198.166 29.1315 194.969 30.0833C192.236 30.8943 187.392 32.7648 184.203 34.2381C179.789 36.2823 177.015 38.3763 172.559 43.036C169.337 46.4045 165.553 50.8324 164.145 52.8767C162.737 54.921 160.857 58.2813 159.962 60.3256C159.076 62.3699 157.685 67.7745 156.882 72.3265C155.871 78.0042 155.598 82.159 155.987 85.5689C156.31 88.3002 157.155 92.9599 157.867 95.9146C158.588 98.8693 160.699 104.274 162.571 107.915C164.691 112.029 168.012 116.68 171.366 120.214C174.323 123.335 179.358 127.514 182.547 129.501C183.25 129.94 183.93 130.401 184.61 130.861C187.015 132.49 189.428 134.124 192.899 134.872C198.661 136.114 207.856 132.838 207.856 132.838C207.856 132.838 204.195 171.231 203.665 171.231C203.21 171.231 200.883 169.633 198.489 167.68C196.096 165.727 191.533 162.607 188.344 160.744C185.156 158.882 180.311 156.242 177.578 154.876C174.845 153.511 168.973 151.235 164.534 149.811C160.095 148.388 153.014 146.625 148.799 145.896C142.877 144.862 138.04 144.663 127.473 145.027C119.961 145.292 111.754 146.029 109.253 146.666C106.752 147.312 102.271 148.586 99.3149 149.505C96.3583 150.424 91.323 152.36 88.1345 153.8C84.946 155.249 78.6104 158.89 74.0555 161.903C68.5343 165.556 62.599 170.574 56.2496 176.958C51.0155 182.23 44.8042 189.34 42.4439 192.75C40.0919 196.168 36.1332 203.244 33.6321 208.475C31.1393 213.706 28.075 220.973 26.8245 224.614C25.1267 229.564 24.4476 233.429 24.1329 239.926C23.8016 246.663 24.0584 250.106 25.2592 255.237C26.3276 259.789 28.0005 263.803 30.6092 268.066C32.7045 271.484 37.3423 278.37 40.9201 283.377C44.5061 288.385 49.9306 295.461 52.9866 299.103C56.0343 302.744 64.5728 312.055 71.9602 319.794C79.3475 327.533 87.3974 336.289 89.8405 339.244C92.2919 342.198 94.3044 344.905 94.321 345.244C94.3293 345.584 92.764 347.446 90.8261 349.383C88.8881 351.319 86.1883 355.143 84.8301 357.866C82.9667 361.59 82.271 364.28 82.0391 368.625C81.8403 372.342 82.2047 376.124 83.066 379.178C83.8031 381.793 85.9895 386.569 87.9274 389.788C90.0062 393.248 94.1802 398.247 98.114 401.996C101.775 405.489 106.007 409.288 107.514 410.422L110.247 412.491C107.315 421.471 105.874 427.057 105.145 430.699C104.301 434.937 103.456 437.246 102.81 437.113C102.255 436.998 98.3542 436.352 94.1388 435.665C89.9234 434.986 82.006 434.424 76.54 434.415C69.7738 434.407 65.1525 434.837 62.0469 435.748C59.5375 436.484 55.6285 438.04 53.351 439.207C51.0735 440.366 47.5289 442.874 45.4833 444.786C43.4377 446.698 41.524 449.012 39.9842 452.309C37.3197 458.015 37.5825 464.947 38.4355 468.357C39.1809 471.32 41.0691 475.69 42.6344 478.082C44.1996 480.474 47.4378 483.967 49.8313 485.854C52.2247 487.741 55.4794 489.843 57.0778 490.53C58.6762 491.217 62.2125 492.268 64.9455 492.864C67.6785 493.468 74.3867 493.965 79.8527 493.965C85.3187 493.973 94.0808 493.435 99.3149 492.773C104.549 492.103 109.866 491.366 111.116 491.134C112.629 490.853 113.38 491.054 113.369 491.738C113.361 492.309 115.158 495.38 117.369 498.566C119.58 501.753 123.415 505.991 125.883 507.993C128.351 509.988 132.235 512.496 134.512 513.563C136.79 514.631 141.262 516.063 144.451 516.742C149.469 517.818 167.83 517.991 280.686 518C394.411 518.008 412.134 517.842 418.992 516.733C423.323 516.03 428.491 514.631 430.478 513.63C432.474 512.628 435.605 510.501 437.443 508.912C439.274 507.323 441.8 504.526 443.058 502.705C444.309 500.884 446.206 496.87 447.274 493.783C448.533 490.149 449.659 488.188 450.462 488.213C451.15 488.237 455.804 488.8 460.815 489.471C465.825 490.133 477.005 491.283 485.66 492.011C495.416 492.831 503.913 493.121 508.021 492.765C511.665 492.442 516.7 491.639 519.201 490.977C521.702 490.315 525.603 488.775 527.856 487.55C530.108 486.326 534.158 483.271 536.858 480.772C539.558 478.272 542.556 474.73 543.508 472.909C544.875 470.31 545.256 468.092 545.272 462.564C545.289 456.505 544.966 454.891 543.003 450.977C541.744 448.477 539.657 445.117 538.365 443.528C537.073 441.939 533.819 439.439 531.127 437.991C528.444 436.534 522.887 434.573 518.787 433.637L511.333 431.932C488.029 400.829 479.184 388.911 476.633 385.385C472.674 379.906 472.144 378.756 473.014 377.523C473.569 376.728 475.747 374.022 477.858 371.522C479.962 369.023 488.708 358.404 497.296 347.934C505.884 337.464 516.659 324.247 521.247 318.553C525.835 312.867 532.593 304.292 536.27 299.517C539.939 294.741 544.825 288.037 547.127 284.619C549.421 281.209 553.38 274.497 555.923 269.721C558.457 264.946 561.157 258.606 561.919 255.651C562.945 251.645 563.186 248.161 562.871 241.995C562.573 236.259 561.695 231.177 559.997 225.442C558.647 220.89 556.403 214.558 555.012 211.372C553.612 208.185 550.713 202.599 548.568 198.957C546.423 195.315 542.357 189.356 539.525 185.715C536.701 182.073 531.433 176.387 527.831 173.076C524.22 169.766 518.1 164.783 514.232 161.994C510.364 159.213 504.211 155.514 500.567 153.767C496.923 152.021 490.588 149.571 486.488 148.313C479.175 146.078 458.793 145.253 458.793 145.253C458.793 145.253 444.303 144.866 435.969 145.987C426.619 147.246 415.58 151.875 411.049 153.776C410.363 154.063 409.827 154.288 409.468 154.429C406.735 155.514 401.708 158.146 398.287 160.289C394.875 162.425 389.84 165.959 387.107 168.144C384.374 170.32 381.856 172.091 381.517 172.083C381.177 172.067 380.987 164.328 381.102 154.885L380.117 132.424C380.117 132.424 387.952 136.618 390.005 135.94C392.059 135.253 396.15 133.415 399.115 131.859C402.08 130.312 406.735 127.241 409.468 125.04C412.548 122.565 416.226 118.394 419.124 114.065C421.708 110.233 424.549 105.408 425.435 103.363C426.329 101.319 427.514 97.4043 428.077 94.6731C428.632 91.9418 429.071 85.8007 429.054 81.0169C429.013 73.6177 428.632 71.1595 426.454 64.4639C425.037 60.1435 423.033 55.3018 421.981 53.7044C420.938 52.107 418.486 48.9454 416.54 46.6694C414.586 44.3933 410.155 40.5613 406.677 38.1611C403.198 35.7527 397.376 32.6324 393.732 31.2254C388.838 29.3384 385.268 28.5687 380.067 28.279C375.62 28.0307 370.204 28.3783 365.367 29.2059L357.706 30.5302C347.76 20.5735 343.197 16.5263 341.143 15.1111C339.089 13.6958 334.716 11.188 331.412 9.53269C328.107 7.87739 322.144 5.43582 318.161 4.09503C313.697 2.58871 307.569 1.31412 302.219 0.776151C297.44 0.287838 290.732 -0.0514991 287.311 0.00643641C283.899 0.0643719 278.673 0.428538 275.717 0.817534ZM224.833 161.392C224.833 161.392 231.724 158.634 235.144 157.591C238.556 156.548 245.083 154.918 249.637 153.966C254.192 153.014 262.292 151.665 267.65 150.97C273 150.283 282.226 149.712 288.148 149.712C294.069 149.712 302.542 150.109 306.989 150.597C311.428 151.086 318.79 152.22 323.345 153.105C327.9 153.999 335.627 155.828 340.53 157.186C345.425 158.535 351.669 160.571 354.402 161.713L359.404 164.196C359.404 164.196 367.843 167.639 368.084 167.299C368.324 166.96 368.506 155.596 368.498 142.056C368.481 128.516 368.663 116.871 368.887 116.192C370.683 116.952 372.994 117.752 375.59 118.413C376.839 118.732 378.154 119.018 379.51 119.253C379.67 119.281 379.831 119.308 379.992 119.334C383.316 119.875 387.185 120.358 391.662 119.503C393.626 119.127 395.279 118.678 396.588 118.1C399.399 116.858 401.156 115.549 402.891 113.388C403.775 112.288 404.467 111.35 405.394 109.987C408.081 106.037 409.31 103.415 411.173 98.9042C413.36 93.6103 414.786 88.1868 415.328 84.839C415.896 81.3334 415.28 74.8357 414.064 71.4989C413.214 68.6166 410.884 63.6693 409.203 61.1781C407.53 58.6868 404.664 55.1942 402.842 53.4064C401.02 51.627 398.411 49.3013 397.045 48.2336C395.678 47.166 391.952 45.3617 388.763 44.2278C384.68 42.7629 381.252 42.1504 377.169 42.1504C373.98 42.1504 369.972 42.6056 368.257 43.1684C365.649 44.0209 365.235 44.4595 365.732 45.8417C366.055 46.7521 366.253 48.7054 366.154 50.1869C366.063 51.6684 365.491 54.0851 364.878 55.5666C364.266 57.0481 362.402 59.6552 360.738 61.3602C359.073 63.0651 357.243 64.3397 356.671 64.1907C356.1 64.0335 355.412 62.2706 355.131 60.2594C354.849 58.2482 353.971 54.5569 353.168 52.0491C352.365 49.5413 350.949 46.1976 350.021 44.6002C349.093 43.0029 346.808 39.7088 344.944 37.2755C343.081 34.834 339.694 31.4572 337.416 29.7605C335.139 28.0638 330.857 25.3325 327.892 23.6855C324.927 22.0302 319.9 19.6962 316.712 18.4879C313.523 17.2795 307.743 15.7732 303.875 15.1359C300.007 14.5069 295.527 14.0351 293.937 14.0931C292.338 14.151 287.502 14.5234 283.17 14.9124C278.839 15.3014 272.603 16.3691 269.298 17.2795C265.994 18.1982 261.149 19.9032 258.532 21.0701C255.915 22.2371 251.344 24.8028 248.387 26.7644C245.43 28.7342 241.049 32.7069 238.664 35.6037C236.271 38.5005 233.223 43.1105 231.89 45.8417C230.548 48.573 228.668 53.7872 227.707 57.4288C226.747 61.0705 225.794 64.2321 225.595 64.4639C225.388 64.6956 223.724 63.8514 221.902 62.6016C220.072 61.3519 217.943 59.2993 217.165 58.0496C216.394 56.7998 215.748 54.2838 215.74 52.4629C215.724 50.6421 215.989 47.7536 216.32 46.0486L216.916 42.9449C205.098 41.9849 203.16 42.2083 198.282 43.814C194.58 45.0306 190.539 47.2073 187.102 49.8475C184.145 52.1236 181.056 54.7555 180.253 55.7073C179.441 56.6508 177.611 58.9259 176.153 61.1532L175.794 61.7015C175.427 62.2623 175.08 62.792 174.751 63.3002L174.611 63.5167C172.024 67.5346 170.273 71.8705 169.345 76.5577C168.956 82.7395 169.439 86.4124 171.416 92.283C172.076 94.2447 173.1 96.3686 173.756 97.7299C173.984 98.2023 174.168 98.5842 174.276 98.8344C174.399 99.1175 174.522 99.3924 174.643 99.6576C174.772 99.939 174.901 100.209 175.027 100.467C175.06 100.534 175.093 100.601 175.128 100.669C175.221 100.855 175.318 101.044 175.418 101.237C175.594 101.574 175.78 101.92 175.974 102.27C176.083 102.467 176.194 102.665 176.307 102.864C176.485 103.177 176.668 103.492 176.855 103.807C176.985 104.026 177.116 104.245 177.249 104.463C177.626 105.083 178.013 105.696 178.398 106.284C178.676 106.708 178.954 107.119 179.226 107.51C179.23 107.516 179.234 107.522 179.237 107.528C179.241 107.534 179.245 107.54 179.249 107.545L179.257 107.557C179.542 107.966 179.82 108.352 180.087 108.709C180.426 109.16 180.747 109.563 181.04 109.902C182.383 111.443 184.206 113.235 185.596 114.41C188.875 117.38 196.675 123.32 201.644 123.32C206.613 123.32 217.902 115.34 217.902 115.34C217.902 115.34 217.032 127.738 217.14 140.955C217.264 155.563 217.794 164.289 217.794 164.289L224.833 161.392ZM126.173 355.242C125.237 353.959 123.183 352.254 121.618 351.46C120.061 350.665 117.477 350.045 115.887 350.086C114.288 350.127 111.87 350.475 110.504 350.856C109.137 351.245 105.575 352.975 103.091 355.242C100.021 358.044 98.6357 360.115 97.2938 364.166C97.1637 364.559 97.0428 364.919 96.9304 365.253C96.1272 367.642 95.7619 368.728 95.6374 371.201C95.5271 373.392 95.5448 374.684 96.142 376.794C96.5896 378.376 97.3052 379.769 97.838 380.647C97.9142 380.773 97.9949 380.905 98.0809 381.048C98.76 382.182 100.814 383.862 102.636 384.773C104.458 385.683 107.158 386.428 108.64 386.436C110.181 386.445 112.922 385.451 115.059 384.102C117.104 382.82 119.87 380.486 121.195 378.921C122.52 377.357 124.549 374.03 125.717 371.53C127.175 368.385 127.837 365.522 127.862 362.277C127.887 358.793 127.448 356.972 126.173 355.242ZM394.544 366.755C393.641 365.273 392.68 364.065 392.407 364.065C392.126 364.073 390.453 366.217 388.68 368.832C386.908 371.448 381.914 377.092 377.591 381.379C373.26 385.658 367.669 390.475 365.168 392.089C362.659 393.695 358.005 396.203 354.816 397.676C351.628 399.141 347.429 400.746 345.499 401.243C343.561 401.74 342.162 402.526 342.393 402.981C342.658 403.511 358.617 403.809 387.736 403.817C399.508 403.821 406.352 403.746 410.346 403.702C414.734 403.654 415.683 403.644 415.952 403.817C424.068 403.817 437.12 408.502 441.816 416.224C443.124 418.375 451 435.508 451 435.508L492.087 430.376L485.461 420.039C485.461 420.039 477.237 408.982 475.631 406.706C474.032 404.43 460.119 387.819 460.119 387.819C460.119 387.819 455.812 389.35 451.713 391.03C444.317 394.051 444.177 394.076 434.735 393.711C425.559 393.364 424.996 393.231 419.414 390.177C416.226 388.431 411.786 385.658 409.55 384.02C407.314 382.389 403.389 378.441 400.83 375.255C398.271 372.068 395.447 368.245 394.544 366.755ZM411.223 424.599C412.532 422.158 414.669 419.278 415.952 418.185C417.244 417.101 419.831 416.232 422.5 416.224C426.917 416.21 428.894 418.076 432.5 421.508C435.577 424.436 440 437.008 440 437.008L439.489 437.279C438.918 437.486 436.4 438.239 433.899 438.951C431.389 439.663 427.878 441.078 426.081 442.096C424.284 443.106 422.164 445.059 421.368 446.425C420.582 447.79 419.157 451.887 418.213 455.529C417.269 459.17 416.499 464.012 416.507 466.288C416.515 468.887 417.252 471.966 418.478 474.565C419.547 476.841 421.319 479.531 422.404 480.549C423.489 481.567 426.611 483.313 429.344 484.439C432.077 485.556 435.545 486.329 436 487.008C436.563 487.852 435.638 490.017 434.934 492.309C434.363 494.155 432.499 497.126 430.793 498.906C429.087 500.685 426.569 502.407 425.203 502.721C423.836 503.036 421.882 503.069 420.855 502.796C419.828 502.514 417.965 501.414 416.714 500.346C415.464 499.278 413.194 495.835 411.671 492.69C410.155 489.553 408.184 484 407.298 480.358C406.412 476.716 405.467 469.268 405.186 463.805C404.888 457.929 405.087 450.323 405.675 445.183C406.221 440.407 407.157 434.821 407.753 432.768C408.35 430.716 409.907 427.049 411.223 424.599ZM295.642 417.963C295.642 417.963 315.743 417.043 349.425 417.043C383.38 417.043 401.649 417.963 401.649 417.963C401.649 417.963 399.736 423.723 398.751 427.481C396.352 436.631 395.422 445.473 394.875 451.39C394.014 460.627 394.072 463.731 395.256 473.323C396.01 479.464 397.227 486.549 397.964 489.049C398.701 491.548 400.465 495.835 401.898 498.566C403.323 501.298 404.581 503.723 404.697 503.946C404.813 504.17 350.22 504.319 283.378 504.277C216.535 504.228 158.482 503.806 157 503.508C157 503.508 144.485 502.382 138.032 498.194C135.395 496.482 133.775 494.974 131.862 493.021C129.842 490.952 126.993 486.508 125.071 482.427C123.249 478.562 120.93 472.04 119.903 467.943C118.462 462.191 118.032 458.053 118.007 449.735C117.982 442.286 118.446 436.807 119.498 431.941C120.334 428.076 121.535 423.681 122.173 422.191L123.324 419.476L127.481 422.191L154.157 437.329C161.279 440.813 167.118 442.981 173.644 444.571C178.77 445.82 186.406 447.203 190.622 447.649C194.837 448.096 200.982 448.469 204.286 448.477C207.591 448.485 214.672 447.923 220.022 447.227C225.372 446.532 233.662 445.216 238.449 444.314C243.227 443.404 250.126 441.699 253.77 440.515C257.414 439.332 264.868 436.203 270.334 433.555C275.8 430.906 282.599 427.223 285.448 425.369C288.297 423.523 295.642 417.963 295.642 417.963ZM103.87 450.612C88.4658 448.394 83.8031 447.765 83.5795 447.79C53.0631 443.511 50.0876 453.139 50.0876 462.243C50.0876 467.294 51.3299 478.796 69.5498 481.693C77.4175 482.943 88.8105 481.306 100.971 479.448C104.152 478.962 108.947 478.124 109.087 478.033C109.22 477.941 108.574 475.078 107.655 471.668C106.727 468.25 105.493 462.117 104.922 458.036L103.87 450.612ZM516.43 446.228L516.419 446.226L516.352 446.218C515.615 446.118 514.857 446.026 514.081 445.942C512.292 445.749 510.404 445.596 508.44 445.48C504.994 445.275 501.313 445.183 497.517 445.176C493.429 445.169 489.209 445.262 485.004 445.422C483.922 445.463 483.006 445.499 481.726 445.555C466.1 446.244 441.816 448.907 441.816 448.907C441.816 448.907 435.343 450.563 434.106 451.39C433.079 452.069 431.315 454.585 430.189 456.977C429.062 459.369 428.135 462.44 428.135 463.805C428.135 465.171 429.062 467.869 430.189 469.806C431.754 472.487 433.071 473.605 435.762 474.507C437.7 475.152 443.754 475.905 449.22 476.179C454.686 476.443 467.73 477.619 478.206 478.794C491.424 480.267 500.17 480.822 506.779 480.606C514.091 480.366 517.164 479.903 520.029 478.612C522.075 477.685 525.214 475.649 526.994 474.085C528.775 472.529 530.912 469.764 531.74 467.943C532.568 466.123 533.247 462.862 533.264 460.702C533.28 457.275 532.468 455.39 529.967 453.046C529.621 452.832 529.123 452.409 528.508 451.879L528.384 451.772C526.75 450.364 524.34 448.288 521.735 447.345C519.841 446.66 516.98 446.297 516.43 446.228ZM74.8919 178.961C77.1694 177.124 80.1509 174.939 81.5173 174.103C89.5094 168.731 104.459 160.364 120.897 158.495C130.217 157.435 140.056 158.717 144.942 159.354L145.005 159.362C149.011 159.884 151.954 160.748 155.123 161.678C156.09 161.962 157.078 162.252 158.124 162.54C162.447 163.732 168.973 166.141 172.617 167.887C176.261 169.633 182.315 173.333 186.075 176.114C191.731 180.302 192.775 181.411 192.137 182.611C191.723 183.414 189.636 186.112 187.499 188.611C185.371 191.119 183.383 193.486 183.093 193.875C182.795 194.264 180.692 193.354 178.414 191.848C176.137 190.341 171.665 187.908 168.476 186.443C165.288 184.978 159.325 182.776 155.225 181.56C149.809 179.954 145.155 179.226 138.248 178.911C132.748 178.655 125.568 178.895 121.27 179.474C119.785 179.672 118.016 179.808 116.09 179.957C112.698 180.219 108.82 180.518 105.161 181.255C93.8933 183.526 81.734 192.195 80.1107 193.784C78.4792 195.382 78.1549 199.147 78.3123 199.371C78.4697 199.603 80.0018 199.172 81.7078 198.427C83.4222 197.682 88.7391 196.002 93.5259 194.703C101.543 192.526 103.348 192.336 116.715 192.336C129.27 192.336 131.978 192.576 137.005 194.14C140.194 195.133 145.213 197.55 148.169 199.52C151.117 201.49 155.217 205.206 157.279 207.771C159.333 210.345 162.497 215.378 164.302 218.945C166.679 223.646 167.59 226.476 167.59 229.166C167.59 231.219 167.101 237.55 166.497 243.236C165.735 250.379 165.519 260.501 165.801 275.929C166.074 291.381 166.637 300.957 167.623 306.965C168.402 311.749 169.702 318.263 170.513 321.449C171.317 324.636 173.279 329.85 174.861 333.036C176.443 336.223 180.601 343.299 184.095 348.762C187.59 354.224 190.448 359.165 190.439 359.728C190.431 360.299 189.205 361.681 187.731 362.807C186.249 363.924 182.058 366.01 178.414 367.434C172.923 369.577 171.077 369.933 167.648 369.519C165.37 369.246 161.826 368.187 159.78 367.169C157.602 366.084 151.399 360.721 144.873 354.274C138.72 348.199 134.247 343.514 134.935 343.854C134.59 343.495 134.241 343.151 133.89 342.823C133.068 342.056 132.096 341.232 130.826 340.377C129.612 339.558 128.891 339.146 127.563 338.528C121.368 335.644 113.452 336.266 110.089 337.58C108.947 337.572 106.363 335.677 106.363 335.677C106.363 335.677 104.069 333.955 101.352 331.025C98.6441 328.095 95.2233 324.025 95.2233 324.025C95.2233 324.025 87.5713 316.483 79.1488 307.379C76.9908 305.047 75.313 303.243 73.9122 301.737L73.8991 301.723C69.8419 297.362 68.1097 295.5 63.7525 290.505C63.3136 290.002 62.9478 289.589 62.6125 289.212L62.5374 289.127L62.4714 289.053L62.3331 288.897L62.1379 288.677C61.3733 287.814 60.663 286.999 59.3967 285.447C57.3428 282.947 52.0591 275.498 47.6531 268.893C43.2472 262.297 39.0401 255.03 38.303 252.754C37.334 249.75 37.0856 246.812 37.4003 241.995C37.6819 237.724 38.7668 232.584 40.4728 227.511C41.9222 223.191 45.0444 215.974 47.4047 211.479C49.765 206.994 54.0301 200.381 56.8791 196.789C59.728 193.197 64.7053 188.156 66.8503 186.071C68.9953 183.993 72.6144 180.79 74.8919 178.961ZM461.651 158.41C470.181 158.642 474.049 159.164 480.285 160.926C484.608 162.143 490.016 163.972 492.294 164.982C494.571 165.992 499.002 168.458 502.141 170.469C504.3 171.853 505.612 172.969 507.14 174.27C507.833 174.86 508.571 175.488 509.454 176.197C510.323 176.895 511.171 177.55 511.987 178.178L512.335 178.445C514.531 180.133 516.477 181.629 517.959 183.232C518.988 184.346 520.001 185.314 521.059 186.326L521.212 186.473C522.27 187.485 523.376 188.55 524.593 189.853C528.688 194.241 532.195 198.618 534.407 201.68C536.609 204.734 539.458 209.286 540.726 211.786C541.984 214.293 544.187 219.971 545.612 224.407C547.028 228.852 548.643 234.993 549.19 238.064C549.96 242.392 549.968 244.958 549.206 249.444C548.61 252.945 546.912 257.861 544.916 261.858C543.094 265.5 539.26 272.022 536.394 276.342C533.52 280.671 528.071 288.12 524.278 292.895C522.679 294.907 521.673 296.246 520.831 297.378C520.711 297.539 520.594 297.697 520.479 297.852C519.489 299.186 518.656 300.309 517.18 302.092C515.89 303.652 514.934 304.764 514.027 305.812L513.64 306.258C512.177 307.947 510.735 309.612 508.079 312.908C503.549 318.519 491.954 332.788 482.306 344.624C472.658 356.459 463.034 367.732 460.922 369.66C458.819 371.597 455.324 374.063 453.162 375.131C450.992 376.207 447.175 377.746 444.673 378.549C441.609 379.534 438.487 379.898 435.149 379.666C431.762 379.426 428.234 378.4 424.077 376.455C419.687 374.394 416.648 372.201 413.244 368.625C410.644 365.894 406.337 359.935 403.67 355.383C401.012 350.831 397.086 344.499 394.958 341.313C392.821 338.126 390.279 333.939 389.301 332.002C388.324 330.073 387.43 328.493 387.322 328.493C387.206 328.501 387.049 331.754 386.983 335.735C386.908 339.716 386.328 344.648 385.699 346.693C385.061 348.745 382.146 353.761 379.206 357.849C376.266 361.938 370.883 368.228 367.239 371.828C363.454 375.569 357.947 379.948 354.402 382.017C350.982 384.011 345.764 386.354 342.808 387.214C339.843 388.075 334.534 388.994 331.006 389.259C326.956 389.557 324.588 389.424 324.588 388.903C324.588 388.448 326.227 385.567 328.24 382.488C330.244 379.418 332.671 375.139 333.623 372.971C334.973 369.892 336.025 368.774 338.46 367.798C340.166 367.119 342.866 365.861 344.464 365.017C346.054 364.164 347.992 362.401 348.762 361.085C349.541 359.77 350.385 357.204 350.659 355.383C351.089 352.42 350.783 351.601 347.677 347.52C345.772 345.021 342.592 341.578 340.613 339.865C338.625 338.16 336.265 336.761 335.354 336.761C333.929 336.761 333.557 337.63 332.753 342.761C332.24 346.064 331.296 350.252 330.65 352.072C330.012 353.893 327.379 359.107 324.811 363.659C322.236 368.212 316.322 377.15 311.668 383.523C305.043 392.602 301.829 396.186 296.86 400.076C293.748 402.514 290.929 404.473 287.294 407.001C286.857 407.304 286.408 407.617 285.945 407.939C276.173 414.741 264.354 422.414 260.304 424.434C255.791 426.677 248.793 429.168 242.184 430.881C233.049 433.257 228.958 433.819 215.268 434.63C200.833 435.483 198.191 435.425 190.423 434.126C185.636 433.323 178.555 431.783 174.687 430.699C170.812 429.615 164.476 427.413 160.608 425.799C156.732 424.194 149.097 420.221 143.631 416.985C138.165 413.741 129.875 408.237 116.731 398.421L120.599 395.938C122.727 394.572 126.173 391.518 128.251 389.143C130.33 386.767 133.452 382.48 135.192 379.625C136.922 376.761 138.604 373.384 138.918 372.126C139.233 370.86 140.111 369.85 140.111 369.85C140.111 369.85 142.147 371.188 143.424 372.085C144.483 372.829 145.29 373.476 146.08 374.11C147.011 374.857 147.919 375.585 149.188 376.43C152.441 378.596 155.987 380.494 157.942 381.28C159.888 382.058 163.37 383.428 167.027 383.573C171.058 383.733 174.663 382.497 177.172 381.628C179.673 380.759 184.336 378.764 187.524 377.192C190.713 375.619 194.903 373.326 196.841 372.101C198.771 370.877 201.893 367.914 203.773 365.522C205.645 363.138 208.676 358.197 210.498 354.555C212.32 350.914 214.473 346.262 215.268 344.21C216.071 342.165 218.639 336.67 220.966 332.002C224.519 324.884 225.206 322.79 225.206 318.966C225.206 315.879 224.867 314.414 224.171 314.414C223.6 314.414 221.082 315.159 218.581 316.078C216.071 316.988 213.388 318.569 212.601 319.595C211.823 320.613 209.529 324.801 207.5 328.898C205.471 332.995 202.937 338.863 201.876 341.934C200.816 345.013 199.665 347.52 199.326 347.52C198.978 347.52 197.073 345.567 195.077 343.175C193.081 340.791 190.34 336.595 188.982 333.864C187.624 331.133 185.338 325.364 183.905 321.035C182.464 316.715 180.874 310.193 180.36 306.552C179.847 302.91 179.267 289.13 179.068 275.929C178.87 262.579 179.093 247.706 179.582 242.409C180.054 237.178 181.048 229.911 181.785 226.27C182.53 222.628 184.435 216.669 186.017 213.027C187.64 209.327 190.978 203.857 193.586 200.612C196.162 197.426 200.883 192.195 204.079 188.992C209.106 183.943 211.541 182.33 222.308 176.875C229.14 173.416 237.803 169.617 241.563 168.425C245.314 167.241 253.331 165.487 259.369 164.527C269.307 162.946 272.437 162.838 292.703 163.31C310.393 163.716 316.356 164.146 321.275 165.363C324.687 166.215 332.331 168.243 338.253 169.873C345.391 171.835 352.083 174.392 358.129 177.446C363.139 179.987 369.061 183.629 371.289 185.541C375.073 188.802 375.363 189.323 375.686 193.577C375.877 196.085 376.109 198.783 376.191 199.578C376.274 200.381 376.531 201.018 376.763 200.993C376.986 200.976 377.649 200.323 378.237 199.545C378.825 198.767 380.937 195.713 382.933 192.75C384.929 189.795 388.92 185.119 391.803 182.371C394.693 179.623 398.171 176.561 399.538 175.568C400.904 174.574 403.847 172.516 406.784 170.85C410.647 168.659 413.332 167.58 417.067 166.078L417.551 165.884C418.523 165.491 419.53 165.051 420.58 164.589L420.791 164.497C424.026 163.074 427.68 161.467 432.044 160.43C435.778 159.543 438.453 159.295 441.711 158.994C442.265 158.943 442.835 158.89 443.431 158.833C447.531 158.435 455.73 158.245 461.651 158.41Z" fill="#483E4B"/>
<path fill-rule="evenodd" clip-rule="evenodd" d="M387.521 105.697C385.754 106.025 383.479 106.169 381.08 106.123C380.307 106.11 379.522 106.077 378.739 106.024L378.644 106.018C378.01 105.974 377.378 105.908 376.755 105.838C375.682 105.721 374.466 105.548 373.226 105.328C370.523 104.848 367.703 104.183 365.988 103.587C363.487 102.718 358.825 100.343 355.636 98.2899C355.142 97.9734 354.621 97.6173 354.084 97.2321C351.297 95.204 348.193 92.49 346.377 90.4272L344.872 88.7201C343.183 86.5602 339.95 80.2821 339.95 80.2821C339.95 80.2821 342.186 86.9015 342.162 90.121C342.145 92.583 341.832 95.8671 340.498 99.2272L340.464 99.3129C340.447 99.3541 340.43 99.3954 340.414 99.4366C340.384 99.5088 340.354 99.581 340.324 99.6533C340.278 99.7642 340.23 99.8753 340.182 99.9866C338.981 102.776 336.836 105.706 334.517 107.725C332.464 109.521 329.018 111.88 326.857 112.964C324.708 114.05 320.902 115.457 318.003 115.457C319.946 115.569 324.414 115.778 324.414 115.778C324.414 115.778 331.352 116.825 350.085 118.146L357.756 118.675C357.756 118.675 358.909 122.12 359.404 126.217C361.05 139.818 359.404 164.196 359.404 164.196C359.404 164.196 367.843 167.639 368.084 167.299C368.324 166.96 368.506 155.596 368.498 142.056C368.481 128.516 368.663 116.871 368.887 116.192C370.683 116.952 372.994 117.752 375.59 118.413C376.839 118.732 378.154 119.018 379.51 119.253C379.67 119.281 379.831 119.308 379.992 119.334C383.316 119.875 387.185 120.358 391.662 119.503C393.626 119.127 395.279 118.678 396.588 118.1C399.399 116.858 401.156 115.549 402.891 113.388C403.775 112.288 404.467 111.35 405.394 109.987C408.081 106.037 409.31 103.415 411.173 98.9042C413.36 93.6103 414.786 88.1868 415.328 84.839C415.896 81.3334 415.28 74.8357 414.064 71.4989C414.072 77.7991 411.097 83.6948 411.097 83.6948C411.097 83.6948 409.694 87.3114 408.971 88.7802C407.347 92.0577 404.573 95.956 402.428 97.9589C400.374 99.8707 397.211 102.205 395.389 103.14C393.567 104.083 390.022 105.234 387.521 105.697Z" fill="#D4D4D4"/>
<path fill-rule="evenodd" clip-rule="evenodd" d="M381.08 106.123C383.481 106.165 385.766 106.019 387.521 105.697C390.022 105.234 393.567 104.083 395.389 103.14C397.211 102.205 400.374 99.8707 402.428 97.9589C404.573 95.956 407.347 92.0577 408.971 88.7802C409.694 87.3114 411.097 83.6948 411.097 83.6948C411.097 83.6948 414.072 77.7991 414.064 71.4989C413.214 68.6166 410.884 63.6693 409.203 61.1781C407.53 58.6868 404.664 55.1942 402.842 53.4064C401.02 51.627 398.411 49.3013 397.045 48.2336C395.678 47.166 391.952 45.3617 388.763 44.2278C384.68 42.7629 381.252 42.1504 377.169 42.1504C373.98 42.1504 369.972 42.6056 368.257 43.1684C365.649 44.0209 365.235 44.4595 365.732 45.8417C366.055 46.7521 366.253 48.7054 366.154 50.1869C366.063 51.6684 365.491 54.0851 364.878 55.5666C364.266 57.0481 362.402 59.6552 360.738 61.3602C359.073 63.0651 357.243 64.3397 356.671 64.1907C356.1 64.0335 355.412 62.2706 355.131 60.2594C354.849 58.2482 353.971 54.5569 353.168 52.0491C352.365 49.5413 350.949 46.1976 350.021 44.6002C349.093 43.0029 346.808 39.7088 344.944 37.2755C343.081 34.834 339.694 31.4572 337.416 29.7605C335.139 28.0638 330.857 25.3325 327.892 23.6855C324.927 22.0302 319.9 19.6962 316.712 18.4879C313.523 17.2795 307.743 15.7732 303.875 15.1359C300.007 14.5069 295.527 14.0351 293.937 14.0931C292.338 14.151 287.502 14.5234 283.17 14.9124C278.839 15.3014 272.603 16.3691 269.298 17.2795C265.994 18.1982 261.149 19.9032 258.532 21.0701C255.915 22.2371 251.344 24.8028 248.387 26.7644C245.43 28.7342 241.049 32.7069 238.664 35.6037C236.271 38.5005 233.223 43.1105 231.89 45.8417C230.548 48.573 228.668 53.7872 227.707 57.4288C226.747 61.0705 225.794 64.2321 225.595 64.4639C225.388 64.6956 223.724 63.8514 221.902 62.6016C220.072 61.3519 217.943 59.2993 217.165 58.0496C216.394 56.7998 215.748 54.2838 215.74 52.4629C215.724 50.6421 215.989 47.7536 216.32 46.0486L216.916 42.9449C205.098 41.9849 203.16 42.2083 198.282 43.814C194.58 45.0306 190.539 47.2073 187.102 49.8475C184.145 52.1236 181.056 54.7555 180.253 55.7073C179.441 56.6508 177.611 58.9259 176.153 61.1532L175.794 61.7015C175.427 62.2623 175.08 62.792 174.751 63.3002L174.611 63.5167C172.024 67.5346 170.273 71.8705 169.345 76.5577C172.379 87.0004 172.395 87.0233 174.86 90.6384C175.423 91.4642 176.114 92.4775 176.998 93.8454C178.217 95.7322 183.451 99.5352 188.344 101.898C191.512 103.429 194.439 104.406 196.833 104.919C199.226 105.424 203.698 105.838 206.771 105.838C209.844 105.83 214.225 105.342 216.502 104.737C218.78 104.141 222.639 102.561 225.082 101.236C226.746 100.326 229.167 98.5729 231.34 96.7539C232.088 96.1211 232.795 95.4873 233.413 94.8883C234.212 94.1116 235.027 93.2781 235.787 92.4662C238.01 89.9364 239.823 87.1587 241.082 84.3275L243.484 78.9477C252.818 88.565 257.729 92.6619 260.412 94.2593C263.584 96.138 268.503 97.9506 274.441 99.4072C279.849 100.748 285.953 101.675 289.382 101.692C292.57 101.708 298.351 101.17 302.219 100.491C306.086 99.8211 312.24 98.1078 315.883 96.6843C319.527 95.2607 324 93.0757 325.822 91.8177C327.644 90.5679 332.726 86.4053 334.31 84.8654C334.506 84.6517 339.701 80.4295 339.95 80.2821C339.95 80.2821 343.183 86.5602 344.872 88.7201L346.377 90.4272C348.193 92.49 351.297 95.204 354.084 97.2321C354.621 97.6173 355.142 97.9734 355.636 98.2899C358.825 100.343 363.487 102.718 365.988 103.587C367.703 104.183 370.523 104.848 373.226 105.328C374.451 105.539 375.666 105.717 376.755 105.838C377.378 105.908 378.01 105.974 378.644 106.018L378.739 106.024C379.522 106.077 380.307 106.11 381.08 106.123Z" fill="#FEF8EB"/>
<path d="M334.517 272.204C334.973 271.294 336.373 270.003 337.623 269.34C338.874 268.678 340.555 268.116 341.35 268.099C342.145 268.082 343.752 268.902 344.919 269.928C346.294 271.128 347.197 272.957 347.478 275.101C347.851 277.948 347.586 278.734 345.565 280.729C343.362 282.897 342.99 282.988 339.694 282.177C337.665 281.672 335.644 280.522 334.923 279.446C334.236 278.42 333.681 276.748 333.681 275.722C333.689 274.695 334.062 273.115 334.517 272.204Z" fill="#FEF8EB"/>
<path fill-rule="evenodd" clip-rule="evenodd" d="M337.623 269.34C336.373 270.003 334.973 271.294 334.517 272.204C334.062 273.115 333.689 274.695 333.681 275.722C333.681 276.748 334.236 278.42 334.923 279.446C335.644 280.522 337.665 281.672 339.694 282.177C342.99 282.988 343.362 282.897 345.565 280.729C347.586 278.734 347.851 277.948 347.478 275.101C347.197 272.957 346.294 271.128 344.919 269.928C343.752 268.902 342.145 268.082 341.35 268.099C340.555 268.116 338.874 268.678 337.623 269.34ZM438.04 180.641C435.539 181.229 431.994 182.181 430.172 182.776C428.35 183.364 424.267 185.201 421.103 186.848C417.84 188.553 413.161 192.005 410.312 194.819C407.554 197.55 403.571 202.21 401.467 205.164C399.364 208.119 396.316 213.151 394.693 216.338C393.078 219.524 390.983 225.392 390.047 229.373C388.796 234.728 388.349 239.421 388.349 247.375C388.349 254.914 388.854 260.675 390.047 266.617C390.983 271.285 393.07 279.016 394.693 283.791C396.316 288.567 398.536 294.253 399.621 296.413C400.714 298.573 401.741 300.253 401.906 300.137C402.08 300.021 401.923 297.878 401.558 295.378C401.194 292.879 400.863 285.521 400.83 279.032C400.797 272.543 401.161 264.35 401.641 260.824C402.113 257.298 403.579 250.876 404.904 246.547C406.221 242.218 408.093 236.822 409.062 234.546C410.031 232.27 412.565 227.445 414.702 223.828C416.871 220.145 421.675 214.004 425.617 209.874C429.733 205.57 435.067 201.018 438.454 198.924C441.642 196.954 447.233 194.322 450.876 193.081C456.492 191.161 458.827 190.821 466.198 190.854C472.633 190.879 477.155 191.45 483.59 193.023C488.368 194.198 495.358 196.292 499.118 197.674C502.878 199.065 506.141 200.008 506.364 199.785C506.588 199.561 503.143 196.971 498.704 194.041C494.265 191.111 488.211 187.593 485.246 186.228C482.281 184.854 476.881 182.917 473.237 181.924C468.177 180.542 463.771 180.045 454.603 179.847C446.893 179.681 440.963 179.971 438.04 180.641ZM207.392 219.599C206.937 219.772 205.537 220.137 204.286 220.401C203.036 220.675 200.609 222.14 198.903 223.662C197.197 225.185 194.986 228.256 193.984 230.49C192.99 232.717 191.905 236.218 191.566 238.27L190.961 241.995C197.918 235.821 202.837 233.263 202.837 233.263C202.837 233.263 211.044 232.411 217.529 232.287C226.291 232.121 229.322 231.798 229.331 231.028C229.339 230.457 228.13 228.653 226.647 227.023C225.165 225.392 222.092 223.158 219.815 222.065C217.537 220.973 214.001 219.897 211.947 219.681C209.893 219.458 207.848 219.425 207.392 219.599ZM336.845 221.659C335.611 222.007 333.565 222.868 332.29 223.563C331.006 224.258 328.48 226.46 326.666 228.446L323.378 232.063C347.155 232.808 351.412 233.263 353.566 234.256C355.156 234.993 358.7 237.294 361.433 239.355C364.166 241.424 366.493 243.046 366.609 242.971C366.717 242.889 366.237 241.151 365.533 239.098C364.829 237.045 363.056 233.545 361.599 231.318C360.141 229.083 357.458 226.253 355.636 225.028C353.814 223.811 351.015 222.371 349.425 221.833C347.835 221.304 344.853 220.898 342.799 220.948C340.745 220.997 338.07 221.32 336.845 221.659ZM210.291 264.416C208.237 265.583 205.86 267.164 204.99 267.925C204.129 268.687 202.688 270.979 201.794 273.032C200.651 275.655 200.187 278.469 200.245 282.55C200.286 285.736 200.709 289.643 201.181 291.24C201.661 292.837 202.597 294.973 203.268 295.999C203.939 297.025 206.075 298.747 208.013 299.839C209.951 300.924 213.488 302.041 215.881 302.322C219.136 302.703 220.991 302.463 223.252 301.379C224.916 300.584 227.649 298.441 229.339 296.62C231.641 294.12 232.652 292.084 233.43 288.343C234.035 285.413 234.225 281.681 233.886 279.239C233.571 276.963 232.685 273.611 231.906 271.79C231.128 269.969 229.206 267.495 227.641 266.286C226.068 265.078 223.293 263.679 221.471 263.183C221.356 263.151 221.244 263.12 221.134 263.089C221.063 263.069 220.992 263.049 220.921 263.029L220.9 263.023L220.794 262.992L220.717 262.97L220.701 262.965L220.675 262.958L220.622 262.942C219.172 262.525 217.873 262.151 216.088 262.289C213.71 262.473 212.374 263.232 210.358 264.377L210.291 264.416ZM337.83 263.853C336.687 264.192 334.642 265.111 333.275 265.906C331.909 266.692 329.954 268.62 328.927 270.185C327.9 271.749 326.633 274.803 326.111 276.963C325.59 279.123 325.366 282.757 325.606 285.033C325.846 287.309 326.923 291.182 328 293.64C329.085 296.107 331.172 299.177 332.654 300.468C334.136 301.768 336.745 303.059 338.451 303.349C340.157 303.63 343.048 303.647 344.87 303.382C346.692 303.117 349.11 302.19 350.253 301.337C351.387 300.477 353.466 298.325 354.866 296.545C356.265 294.766 357.914 291.257 358.518 288.757C359.52 284.594 359.462 283.708 357.831 278.411C356.787 275.035 354.891 271.236 353.292 269.307C351.777 267.486 349.168 265.343 347.495 264.548C345.822 263.754 343.429 263.133 342.178 263.174C340.928 263.208 338.965 263.514 337.83 263.853ZM255.841 297.232C252.884 298.292 248.594 300.493 246.316 302.132C244.039 303.771 241.687 305.782 241.091 306.609C240.105 307.967 240.188 308.05 241.919 307.503C242.971 307.172 247.468 306.171 251.907 305.277C256.346 304.383 262.126 303.671 264.743 303.688C267.36 303.704 271.559 304.209 274.06 304.814C276.562 305.418 280.106 306.552 281.928 307.321C283.75 308.091 286.45 309.63 287.932 310.739C289.415 311.849 290.906 312.569 291.245 312.337C291.585 312.105 291.303 310.938 290.624 309.746C289.945 308.554 287.237 305.575 284.62 303.133C281.257 299.988 278.582 298.308 275.51 297.381C273.116 296.661 268.926 295.9 266.193 295.693C262.383 295.403 259.973 295.759 255.841 297.232ZM244.246 334.154C241.745 334.94 238.291 336.413 236.585 337.415C234.879 338.424 233.488 339.525 233.496 339.865C233.505 340.204 235.459 340.162 237.844 339.773C240.229 339.376 246.466 339.269 251.7 339.525C256.934 339.79 263.087 340.518 265.365 341.147C267.642 341.785 271.692 343.382 274.359 344.706C277.034 346.022 280.893 348.778 282.947 350.831L286.674 354.555C283.941 347.504 282.218 344.052 281.092 342.347C279.957 340.642 277.257 338.126 275.096 336.761C272.934 335.395 269.39 333.905 267.228 333.45C265.066 332.995 260.031 332.639 256.048 332.664C251.584 332.697 247.054 333.26 244.246 334.154ZM229.753 362.898C229.297 363.014 227.525 363.328 225.819 363.593C224.113 363.858 222.862 364.355 223.036 364.694C223.219 365.033 225.546 365.58 228.213 365.911C230.879 366.233 235.492 367.342 238.449 368.361C241.405 369.379 246.532 371.994 249.836 374.179C253.141 376.356 257.986 380.188 260.603 382.679C263.22 385.178 265.555 387.032 265.779 386.792C266.002 386.561 265.307 384.607 264.23 382.464C263.145 380.312 261.282 377.307 260.089 375.776C258.888 374.237 255.675 371.514 252.942 369.718C250.209 367.922 245.546 365.745 242.59 364.893C239.633 364.032 235.716 363.188 233.894 363.014C232.072 362.832 230.208 362.782 229.753 362.898ZM206.961 383.73C206.961 384.069 208.726 385.725 210.895 387.405C213.073 389.085 216.933 392.619 219.484 395.267C222.043 397.916 225.72 402.311 227.666 405.042C231.078 409.826 231.186 409.9 230.664 407.111C230.366 405.522 229.314 402.542 228.328 400.49C227.335 398.437 224.618 394.903 222.274 392.627C219.939 390.351 215.724 387.281 212.916 385.799C210.109 384.318 207.616 383.109 207.392 383.109C207.169 383.109 206.97 383.391 206.961 383.73ZM206.199 274.78C206.133 273.903 207.367 272.063 208.204 271.219C209.198 270.234 210.556 269.132 212.411 268.986C214.094 268.854 215.731 269.483 216.551 270.228C217.529 271.097 218.382 274.83 218.208 276.435C217.976 278.686 215.508 281.401 212.825 281.401C211.201 281.401 208.911 281.381 207.441 279.746C206.296 278.471 206.244 276.379 206.216 275.254L206.213 275.148L206.211 275.052L206.21 275.02C206.209 275.003 206.209 274.987 206.208 274.97C206.206 274.9 206.203 274.837 206.199 274.78Z" fill="#483E4B"/>
<path d="M208.204 271.219C207.367 272.063 206.133 273.903 206.199 274.78C206.203 274.837 206.206 274.9 206.208 274.97C206.209 274.997 206.21 275.024 206.211 275.052L206.213 275.148L206.216 275.254C206.244 276.379 206.296 278.471 207.441 279.746C208.911 281.381 211.201 281.401 212.825 281.401C215.508 281.401 217.976 278.686 218.208 276.435C218.382 274.83 217.529 271.097 216.551 270.228C215.731 269.483 214.094 268.854 212.411 268.986C210.556 269.132 209.198 270.234 208.204 271.219Z" fill="#FEF8EB"/>
<path fill-rule="evenodd" clip-rule="evenodd" d="M461.651 158.41C470.181 158.642 474.049 159.164 480.285 160.926C484.608 162.143 490.016 163.972 492.294 164.982C494.571 165.992 499.002 168.458 502.141 170.469C504.3 171.853 505.612 172.969 507.14 174.27C507.833 174.86 508.571 175.488 509.454 176.197C510.323 176.895 511.171 177.55 511.987 178.178L512.335 178.445C514.531 180.133 516.477 181.629 517.959 183.232C518.988 184.346 520.001 185.314 521.059 186.326L521.212 186.473C522.27 187.485 523.376 188.55 524.593 189.853C528.688 194.241 532.195 198.618 534.407 201.68C536.609 204.734 539.458 209.286 540.726 211.786C541.984 214.293 544.187 219.971 545.612 224.407C547.028 228.852 548.643 234.993 549.19 238.064C549.96 242.392 549.968 244.958 549.206 249.444C548.61 252.945 546.912 257.861 544.916 261.858C543.094 265.5 539.26 272.022 536.394 276.342C533.52 280.671 528.071 288.12 524.278 292.895C522.679 294.907 521.673 296.246 520.831 297.378C520.711 297.539 520.594 297.697 520.479 297.852C519.489 299.186 518.656 300.309 517.18 302.092C515.89 303.652 514.934 304.764 514.027 305.812L513.64 306.258C512.177 307.947 510.735 309.612 508.079 312.908C503.549 318.519 491.954 332.788 482.306 344.624C472.658 356.459 463.034 367.732 460.922 369.66C458.819 371.597 455.324 374.063 453.162 375.131C450.992 376.207 447.175 377.746 444.673 378.549C441.609 379.534 438.487 379.898 435.149 379.666C431.762 379.426 428.234 378.4 424.077 376.455C419.687 374.394 416.648 372.201 413.244 368.625C410.644 365.894 406.337 359.935 403.67 355.383C401.012 350.831 397.086 344.499 394.958 341.313C392.821 338.126 390.279 333.939 389.301 332.002C388.324 330.073 387.43 328.493 387.322 328.493C387.206 328.501 387.049 331.754 386.983 335.735C386.908 339.716 386.328 344.648 385.699 346.693C385.061 348.745 382.146 353.761 379.206 357.849C376.266 361.938 370.883 368.228 367.239 371.828C363.454 375.569 357.947 379.948 354.402 382.017C350.982 384.011 345.764 386.354 342.808 387.214C339.843 388.075 334.534 388.994 331.006 389.259C326.956 389.557 324.588 389.424 324.588 388.903C324.588 388.448 326.227 385.567 328.24 382.488C330.244 379.418 332.671 375.139 333.623 372.971C334.973 369.892 336.025 368.774 338.46 367.798C340.166 367.119 342.866 365.861 344.464 365.017C346.054 364.164 347.992 362.401 348.762 361.085C349.541 359.77 350.385 357.204 350.659 355.383C351.089 352.42 350.783 351.601 347.677 347.52C345.772 345.021 342.592 341.578 340.613 339.865C338.625 338.16 336.265 336.761 335.354 336.761C333.929 336.761 333.557 337.63 332.753 342.761C332.24 346.064 331.296 350.252 330.65 352.072C330.012 353.893 327.379 359.107 324.811 363.659C322.236 368.212 316.322 377.15 311.668 383.523C305.043 392.602 301.829 396.186 296.86 400.076C293.748 402.514 290.929 404.473 287.294 407.001C286.857 407.304 286.408 407.617 285.945 407.939C276.173 414.741 264.354 422.414 260.304 424.434C255.791 426.677 248.793 429.168 242.184 430.881C233.049 433.257 228.958 433.819 215.268 434.63C200.833 435.483 198.191 435.425 190.423 434.126C185.636 433.323 178.555 431.783 174.687 430.699C170.812 429.615 164.476 427.413 160.608 425.799C156.732 424.194 149.097 420.221 143.631 416.985C138.165 413.741 129.875 408.237 116.731 398.421L120.599 395.938C122.727 394.572 126.173 391.518 128.251 389.143C130.33 386.767 133.452 382.48 135.192 379.625C136.922 376.761 138.604 373.384 138.918 372.126C139.233 370.86 140.111 369.85 140.111 369.85C140.111 369.85 142.147 371.188 143.424 372.085C144.483 372.829 145.29 373.476 146.08 374.11C147.011 374.857 147.919 375.585 149.188 376.43C152.441 378.596 155.987 380.494 157.942 381.28C159.888 382.058 163.37 383.428 167.027 383.573C171.058 383.733 174.663 382.497 177.172 381.628C179.673 380.759 184.336 378.764 187.524 377.192C190.713 375.619 194.903 373.326 196.841 372.101C198.771 370.877 201.893 367.914 203.773 365.522C205.645 363.138 208.676 358.197 210.498 354.555C212.32 350.914 214.473 346.262 215.268 344.21C216.071 342.165 218.639 336.67 220.966 332.002C224.519 324.884 225.206 322.79 225.206 318.966C225.206 315.879 224.867 314.414 224.171 314.414C223.6 314.414 221.082 315.159 218.581 316.078C216.071 316.988 213.388 318.569 212.601 319.595C211.823 320.613 209.529 324.801 207.5 328.898C205.471 332.995 202.937 338.863 201.876 341.934C200.816 345.013 199.665 347.52 199.326 347.52C198.978 347.52 197.073 345.567 195.077 343.175C193.081 340.791 190.34 336.595 188.982 333.864C187.624 331.133 185.338 325.364 183.905 321.035C182.464 316.715 180.874 310.193 180.36 306.552C179.847 302.91 179.267 289.13 179.068 275.929C178.87 262.579 179.093 247.706 179.582 242.409C180.054 237.178 181.048 229.911 181.785 226.27C182.53 222.628 184.435 216.669 186.017 213.027C187.64 209.327 190.978 203.857 193.586 200.612C196.162 197.426 200.883 192.195 204.079 188.992C209.106 183.943 211.541 182.33 222.308 176.875C229.14 173.416 237.803 169.617 241.563 168.425C245.314 167.241 253.331 165.487 259.369 164.527C269.307 162.946 272.437 162.838 292.703 163.31C310.393 163.716 316.356 164.146 321.275 165.363C324.687 166.215 332.331 168.243 338.253 169.873C345.391 171.835 352.083 174.392 358.129 177.446C363.139 179.987 369.061 183.629 371.289 185.541C375.073 188.802 375.363 189.323 375.686 193.577C375.877 196.085 376.109 198.783 376.191 199.578C376.274 200.381 376.531 201.018 376.763 200.993C376.986 200.976 377.649 200.323 378.237 199.545C378.825 198.767 380.937 195.713 382.933 192.75C384.929 189.795 388.92 185.119 391.803 182.371C394.693 179.623 398.171 176.561 399.538 175.568C400.904 174.574 403.847 172.516 406.784 170.85C410.647 168.659 413.332 167.58 417.067 166.078L417.551 165.884C418.523 165.491 419.53 165.051 420.58 164.589L420.791 164.497C424.026 163.074 427.68 161.467 432.044 160.43C435.778 159.543 438.453 159.295 441.711 158.994C442.265 158.943 442.835 158.89 443.431 158.833C447.531 158.435 455.73 158.245 461.651 158.41ZM438.04 180.641C435.539 181.229 431.994 182.181 430.172 182.776C428.35 183.364 424.267 185.201 421.103 186.848C417.84 188.553 413.161 192.005 410.312 194.819C407.554 197.55 403.571 202.21 401.467 205.164C399.364 208.119 396.316 213.151 394.693 216.338C393.078 219.524 390.983 225.392 390.047 229.373C388.796 234.728 388.349 239.421 388.349 247.375C388.349 254.914 388.854 260.675 390.047 266.617C390.983 271.285 393.07 279.016 394.693 283.791C396.316 288.567 398.536 294.253 399.621 296.413C400.714 298.573 401.741 300.253 401.906 300.137C402.08 300.021 401.923 297.878 401.558 295.378C401.194 292.879 400.863 285.521 400.83 279.032C400.797 272.543 401.161 264.35 401.641 260.824C402.113 257.298 403.579 250.876 404.904 246.547C406.221 242.218 408.093 236.822 409.062 234.546C410.031 232.27 412.565 227.445 414.702 223.828C416.871 220.145 421.675 214.004 425.617 209.874C429.733 205.57 435.067 201.018 438.454 198.924C441.642 196.954 447.233 194.322 450.876 193.081C456.492 191.161 458.827 190.821 466.198 190.854C472.633 190.879 477.155 191.45 483.59 193.023C488.368 194.198 495.358 196.292 499.118 197.674C502.878 199.065 506.141 200.008 506.364 199.785C506.588 199.561 503.143 196.971 498.704 194.041C494.265 191.111 488.211 187.593 485.246 186.228C482.281 184.854 476.881 182.917 473.237 181.924C468.177 180.542 463.771 180.045 454.603 179.847C446.893 179.681 440.963 179.971 438.04 180.641ZM207.392 219.599C206.937 219.772 205.537 220.137 204.286 220.401C203.036 220.675 200.609 222.14 198.903 223.662C197.197 225.185 194.986 228.256 193.984 230.49C192.99 232.717 191.905 236.218 191.566 238.27L190.961 241.995C197.918 235.821 202.837 233.263 202.837 233.263C202.837 233.263 211.044 232.411 217.529 232.287C226.291 232.121 229.322 231.798 229.331 231.028C229.339 230.457 228.13 228.653 226.647 227.023C225.165 225.392 222.092 223.158 219.815 222.065C217.537 220.973 214.001 219.897 211.947 219.681C209.893 219.458 207.848 219.425 207.392 219.599ZM336.845 221.659C335.611 222.007 333.565 222.868 332.29 223.563C331.006 224.258 328.48 226.46 326.666 228.446L323.378 232.063C347.155 232.808 351.412 233.263 353.566 234.256C355.156 234.993 358.7 237.294 361.433 239.355C364.166 241.424 366.493 243.046 366.609 242.971C366.717 242.889 366.237 241.151 365.533 239.098C364.829 237.045 363.056 233.545 361.599 231.318C360.141 229.083 357.458 226.253 355.636 225.028C353.814 223.811 351.015 222.371 349.425 221.833C347.835 221.304 344.853 220.898 342.799 220.948C340.745 220.997 338.07 221.32 336.845 221.659ZM210.291 264.416C208.237 265.583 205.86 267.164 204.99 267.925C204.129 268.687 202.688 270.979 201.794 273.032C200.651 275.655 200.187 278.469 200.245 282.55C200.286 285.736 200.709 289.643 201.181 291.24C201.661 292.837 202.597 294.973 203.268 295.999C203.939 297.025 206.075 298.747 208.013 299.839C209.951 300.924 213.488 302.041 215.881 302.322C219.136 302.703 220.991 302.463 223.252 301.379C224.916 300.584 227.649 298.441 229.339 296.62C231.641 294.12 232.652 292.084 233.43 288.343C234.035 285.413 234.225 281.681 233.886 279.239C233.571 276.963 232.685 273.611 231.906 271.79C231.128 269.969 229.206 267.495 227.641 266.286C226.068 265.078 223.293 263.679 221.471 263.183C221.356 263.151 221.244 263.12 221.134 263.089C221.063 263.069 220.992 263.049 220.921 263.029L220.9 263.023L220.794 262.992L220.717 262.97L220.701 262.965L220.675 262.958L220.622 262.942C219.172 262.525 217.873 262.151 216.088 262.289C213.71 262.473 212.374 263.232 210.358 264.377L210.291 264.416ZM337.83 263.853C336.687 264.192 334.642 265.111 333.275 265.906C331.909 266.692 329.954 268.62 328.927 270.185C327.9 271.749 326.633 274.803 326.111 276.963C325.59 279.123 325.366 282.757 325.606 285.033C325.846 287.309 326.923 291.182 328 293.64C329.085 296.107 331.172 299.177 332.654 300.468C334.136 301.768 336.745 303.059 338.451 303.349C340.157 303.63 343.048 303.647 344.87 303.382C346.692 303.117 349.11 302.19 350.253 301.337C351.387 300.477 353.466 298.325 354.866 296.545C356.265 294.766 357.914 291.257 358.518 288.757C359.52 284.594 359.462 283.708 357.831 278.411C356.787 275.035 354.891 271.236 353.292 269.307C351.777 267.486 349.168 265.343 347.495 264.548C345.822 263.754 343.429 263.133 342.178 263.174C340.928 263.208 338.965 263.514 337.83 263.853ZM255.841 297.232C252.884 298.292 248.594 300.493 246.316 302.132C244.039 303.771 241.687 305.782 241.091 306.609C240.105 307.967 240.188 308.05 241.919 307.503C242.971 307.172 247.468 306.171 251.907 305.277C256.346 304.383 262.126 303.671 264.743 303.688C267.36 303.704 271.559 304.209 274.06 304.814C276.562 305.418 280.106 306.552 281.928 307.321C283.75 308.091 286.45 309.63 287.932 310.739C289.415 311.849 290.906 312.569 291.245 312.337C291.585 312.105 291.303 310.938 290.624 309.746C289.945 308.554 287.237 305.575 284.62 303.133C281.257 299.988 278.582 298.308 275.51 297.381C273.116 296.661 268.926 295.9 266.193 295.693C262.383 295.403 259.973 295.759 255.841 297.232ZM244.246 334.154C241.745 334.94 238.291 336.413 236.585 337.415C234.879 338.424 233.488 339.525 233.496 339.865C233.505 340.204 235.459 340.162 237.844 339.773C240.229 339.376 246.466 339.269 251.7 339.525C256.934 339.79 263.087 340.518 265.365 341.147C267.642 341.785 271.692 343.382 274.359 344.706C277.034 346.022 280.893 348.778 282.947 350.831L286.674 354.555C283.941 347.504 282.218 344.052 281.092 342.347C279.957 340.642 277.257 338.126 275.096 336.761C272.934 335.395 269.39 333.905 267.228 333.45C265.066 332.995 260.031 332.639 256.048 332.664C251.584 332.697 247.054 333.26 244.246 334.154ZM229.753 362.898C229.297 363.014 227.525 363.328 225.819 363.593C224.113 363.858 222.862 364.355 223.036 364.694C223.219 365.033 225.546 365.58 228.213 365.911C230.879 366.233 235.492 367.342 238.449 368.361C241.405 369.379 246.532 371.994 249.836 374.179C253.141 376.356 257.986 380.188 260.603 382.679C263.22 385.178 265.555 387.032 265.779 386.792C266.002 386.561 265.307 384.607 264.23 382.464C263.145 380.312 261.282 377.307 260.089 375.776C258.888 374.237 255.675 371.514 252.942 369.718C250.209 367.922 245.546 365.745 242.59 364.893C239.633 364.032 235.716 363.188 233.894 363.014C232.072 362.832 230.208 362.782 229.753 362.898ZM206.961 383.73C206.961 384.069 208.726 385.725 210.895 387.405C213.073 389.085 216.933 392.619 219.484 395.267C222.043 397.916 225.72 402.311 227.666 405.042C231.078 409.826 231.186 409.9 230.664 407.111C230.366 405.522 229.314 402.542 228.328 400.49C227.335 398.437 224.618 394.903 222.274 392.627C219.939 390.351 215.724 387.281 212.916 385.799C210.109 384.318 207.616 383.109 207.392 383.109C207.169 383.109 206.97 383.391 206.961 383.73Z" fill="#AAB6BC"/>
<path d="M349.425 417.043C315.743 417.043 295.642 417.963 295.642 417.963C295.642 417.963 288.297 423.523 285.448 425.369C282.599 427.223 275.8 430.906 270.334 433.555C264.868 436.203 257.414 439.332 253.77 440.515C250.126 441.699 243.227 443.404 238.449 444.314C233.662 445.216 225.372 446.532 220.022 447.227C214.672 447.923 207.591 448.485 204.286 448.477C200.982 448.469 194.837 448.096 190.622 447.649C186.406 447.203 178.77 445.82 173.644 444.571C167.118 442.981 161.279 440.813 154.157 437.329L127.481 422.191L123.324 419.476L122.173 422.191C121.535 423.681 120.334 428.076 119.498 431.941C118.446 436.807 117.982 442.286 118.007 449.735C118.032 458.053 118.462 462.191 119.903 467.943C120.93 472.04 123.249 478.562 125.071 482.427C126.993 486.508 129.842 490.952 131.862 493.021C133.775 494.974 135.395 496.482 138.032 498.194C144.485 502.382 157 503.508 157 503.508C158.482 503.806 216.535 504.228 283.378 504.277C350.22 504.319 404.813 504.17 404.697 503.946C404.581 503.723 403.323 501.298 401.898 498.566C400.465 495.835 398.701 491.548 397.964 489.049C397.227 486.549 396.01 479.464 395.256 473.323C394.072 463.731 394.014 460.627 394.875 451.39C395.422 445.473 396.352 436.631 398.751 427.481C399.736 423.723 401.649 417.963 401.649 417.963C401.649 417.963 383.38 417.043 349.425 417.043Z" fill="#E98140"/>
<path d="M379 572.38C380.06 568.93 380.43 563.91 380.26 555.25C380.12 548.51 380.35 543 380.76 543C381.17 543.01 386.67 543.46 393 544.01C399.33 544.57 405.96 545.24 411 546L411.5 579.5L443 580V608H411L411.1 638.25C411.15 654.89 411.51 669.62 411.89 671C412.33 672.58 414.03 674.19 416.54 675.38C420.33 677.17 420.94 677.18 430.5 675.64C436 674.76 440.73 674.29 441 674.6C441.27 674.91 441.5 680.51 441.5 698.91L436 700.99C432.98 702.13 426.9 703.58 422.5 704.21C416.83 705.02 412.02 705.06 406 704.35C400.94 703.75 395.27 702.32 392 700.83C388.98 699.45 384.98 697.01 383.11 695.41C381.25 693.81 378.83 690.7 377.74 688.5C376.65 686.3 375.14 681.58 374.39 678C373.42 673.32 373.03 662.59 373 608H352V581L361.75 580.69C368.11 580.49 372.54 579.85 374.5 578.82C376.72 577.67 377.89 575.99 379 572.38Z" fill="#D5C6A6"/>
<path d="M276.75 580.05C281.01 578.97 285.85 577.88 287.5 577.63C289.15 577.37 296.12 577.32 303 577.53C311.18 577.76 318.09 578.57 323 579.86C327.12 580.95 332.64 582.77 335.25 583.92C337.86 585.06 340.01 586.34 340.01 586.75C340.02 587.16 338.87 593.12 337.47 600C336.06 606.87 334.82 612.59 334.71 612.7C334.59 612.82 330.45 611.62 325.5 610.03C320.55 608.45 312.9 606.41 308.5 605.49C300.99 603.92 300.14 603.92 294.5 605.54C290.76 606.61 287.46 608.34 285.75 610.13C284.24 611.71 282.99 614.01 282.97 615.25C282.95 616.49 283.74 618.23 284.72 619.13C285.7 620.03 287.85 621.43 289.5 622.26C291.15 623.09 297 625 302.5 626.51C308 628.02 317.45 631.57 323.5 634.42C331.34 638.1 335.74 640.86 338.81 644.04C341.28 646.59 343.95 650.75 345.06 653.75C346.37 657.29 347 661.52 346.98 666.75C346.98 671.01 346.4 676.3 345.71 678.5C345.02 680.7 343.73 683.85 342.85 685.5C341.97 687.15 339.62 689.96 337.63 691.75C335.63 693.54 331.86 696.05 329.25 697.34C326.64 698.62 320 700.93 314.5 702.47C305.09 705.11 303.74 705.23 291.5 704.63C284.35 704.28 275.12 703.33 271 702.52C266.87 701.71 261.7 700.53 259.5 699.9C257.3 699.26 253.59 697.9 251.25 696.87C247.73 695.32 247 694.53 247 692.25C247.01 690.74 247.8 684.64 248.75 678.69C250.16 670.02 250.8 667.98 252 668.37C252.82 668.63 256.65 669.99 260.5 671.38C264.35 672.78 271.1 674.67 275.5 675.59C281.06 676.75 286.09 677.1 292 676.73C296.67 676.43 302.19 675.48 304.25 674.6C307.56 673.19 308 672.59 308 669.5C308 666.94 307.19 665.19 305 663C302.68 660.68 298.68 658.95 287.25 655.35C279.14 652.8 270.47 649.76 268 648.6C265.52 647.44 261.75 645.37 259.6 644C257.46 642.62 254.65 639.7 253.36 637.5C252.07 635.3 250.34 631.02 249.52 628C248.7 624.98 248.02 618.67 248.01 614C248 606.68 248.4 604.67 250.88 599.5C252.47 596.2 255.5 591.89 257.63 589.91C259.76 587.94 263.19 585.35 265.25 584.16C267.31 582.97 272.49 581.12 276.75 580.05Z" fill="#D5C6A6"/>
<path fill-rule="evenodd" clip-rule="evenodd" d="M166.5 578.59C162.31 579.4 155.69 581.86 150 584.72C143.27 588.1 138.73 591.25 134.44 595.5C131.1 598.8 126.75 604.2 124.77 607.5C122.78 610.8 119.94 617.1 118.46 621.5C116.47 627.39 115.62 632.27 115.25 640C114.82 648.67 115.11 651.98 116.91 659C118.1 663.67 120.38 670.2 121.96 673.5C123.54 676.8 126.79 681.72 129.17 684.43C131.55 687.15 136.87 691.55 141 694.22C145.12 696.89 151.2 699.92 154.5 700.97C157.8 702.01 164.32 703.35 169 703.94C173.67 704.53 180.2 705 183.5 704.98C186.8 704.97 194.45 704.15 200.5 703.17C206.55 702.19 214.8 700.06 218.83 698.44L226.16 695.5C225.65 676.59 225.05 670.62 224.5 670.03C223.8 669.28 221.71 669.76 217.5 671.65C214.14 673.14 207.31 674.96 202 675.76C196.44 676.59 189.18 676.97 184.5 676.67C179.81 676.36 174.01 675.21 170.5 673.88C167.2 672.64 162.74 670.02 160.59 668.06C158.44 666.1 155.66 662.25 154.4 659.5C153.14 656.75 152.31 654.16 152.56 653.75C152.8 653.34 170.44 653.01 191.75 653.02L230.5 653.04C232.45 644.1 233.01 639.02 233 636C232.99 632.98 232.28 625.77 231.42 620C230.35 612.81 228.88 607.45 226.76 603C224.81 598.88 221.54 594.39 217.84 590.75C214.63 587.59 210.2 584.1 208 583C205.8 581.9 200.17 580.1 195.5 579C190.82 577.9 183.96 577.05 180.25 577.12C176.54 577.18 170.35 577.84 166.5 578.59ZM180.51 604.59C183.81 604.89 187.83 605.89 189.44 606.82C191.05 607.74 193.18 609.85 194.17 611.5C195.16 613.15 196.04 616.3 196.12 618.5C196.21 620.7 196.11 624.19 195.51 630.01L152.01 630L152.64 627.25C152.99 625.74 154.22 622.17 155.39 619.33C156.84 615.78 158.92 613.05 162.01 610.62C164.48 608.68 168.31 606.4 170.51 605.56C173.26 604.51 176.37 604.21 180.51 604.59Z" fill="#D5C6A6"/>
<path fill-rule="evenodd" clip-rule="evenodd" d="M496.5 580.61C499.25 579.71 505.1 578.59 509.5 578.12C513.9 577.65 518.17 577.2 519 577.13C519.82 577.05 523.2 577.46 526.5 578.04C529.8 578.63 535.42 580.05 539 581.2C542.57 582.36 547.97 584.67 551 586.35C554.02 588.03 559.44 592.35 563.03 595.95C566.62 599.55 570.95 605.2 572.65 608.5C574.36 611.8 576.78 617.42 578.04 621C579.67 625.63 580.45 630.53 580.77 638C581.01 643.89 580.69 651.13 580.04 654.5C579.4 657.8 576.82 664.77 574.31 670C570.59 677.75 568.39 680.83 562.37 686.75C557.457 691.583 552.917 694.973 548.75 696.92C545.31 698.52 539.8 700.57 536.5 701.48C533.2 702.38 525.55 703.38 519.5 703.69C511.31 704.12 506.33 703.84 500 702.59C495.02 701.61 487.98 699.24 483 696.85C476.7 693.84 472.95 691.2 468.5 686.64C464.77 682.83 461.07 677.66 458.74 673C456.65 668.83 454.11 661.51 453.01 656.5C451.93 651.55 451.03 644.91 451.02 641.75C451.01 638.59 451.64 632.96 452.43 629.25C453.21 625.54 454.83 620.02 456.03 617C457.23 613.98 459.9 609.02 461.96 606C464.03 602.98 468.38 598.02 471.64 595C474.89 591.98 480.69 587.87 484.53 585.87C488.36 583.88 493.75 581.51 496.5 580.61ZM524.01 607.37C521.53 606.63 518.16 606.06 516.51 606.11C514.86 606.16 512.16 606.53 510.51 606.92C508.86 607.31 505.3 608.73 502.61 610.06C499.92 611.4 496.69 613.85 495.43 615.5C494.16 617.15 492.12 620.75 490.89 623.5C488.89 627.98 488.68 629.92 488.87 642C489.03 652.37 489.49 656.43 490.84 659.5C491.81 661.7 494.61 665.7 497.06 668.4C499.5 671.09 502.97 673.9 504.76 674.65C506.54 675.39 511.27 676 515.26 675.99C519.24 675.99 524.31 675.49 526.51 674.88C528.98 674.2 532.28 672 535.15 669.14C538.86 665.43 540.27 663 542.15 657C543.89 651.45 544.49 647.29 544.43 641C544.39 635.75 543.63 630.01 542.44 626C541.39 622.42 539.29 617.81 537.77 615.75C536.25 613.69 533.54 611.26 531.76 610.36C529.97 609.46 526.48 608.12 524.01 607.37Z" fill="#D5C6A6"/>
<path d="M97.5595 545.613C108.862 545.711 126.5 545.97 126.5 545.97L127 577H87L86.56 579.75C86.32 581.26 86.19 609.73 86.42 703.5L46 704V577H6V545.5L29.8348 545.593C32.8949 545.52 45.7736 545.47 66 545.47C98.73 545.47 85.2351 545.507 97.5595 545.613Z" fill="#D5C6A6"/>
<path d="M379 572.38C380.06 568.93 380.43 563.91 380.26 555.25C380.12 548.51 380.35 543 380.76 543C381.17 543.01 386.67 543.46 393 544.01C399.33 544.57 405.96 545.24 411 546L411.5 579.5L443 580V608H411L411.1 638.25C411.15 654.89 411.51 669.62 411.89 671C412.33 672.58 414.03 674.19 416.54 675.38C420.33 677.17 420.94 677.18 430.5 675.64C436 674.76 440.73 674.29 441 674.6C441.27 674.91 441.5 680.51 441.5 698.91L436 700.99C432.98 702.13 426.9 703.58 422.5 704.21C416.83 705.02 412.02 705.06 406 704.35C400.94 703.75 395.27 702.32 392 700.83C388.98 699.45 384.98 697.01 383.11 695.41C381.25 693.81 378.83 690.7 377.74 688.5C376.65 686.3 375.14 681.58 374.39 678C373.42 673.32 373.03 662.59 373 608H352V581L361.75 580.69C368.11 580.49 372.54 579.85 374.5 578.82C376.72 577.67 377.89 575.99 379 572.38Z" stroke="#42362F" stroke-width="10"/>
<path d="M276.75 580.05C281.01 578.97 285.85 577.88 287.5 577.63C289.15 577.37 296.12 577.32 303 577.53C311.18 577.76 318.09 578.57 323 579.86C327.12 580.95 332.64 582.77 335.25 583.92C337.86 585.06 340.01 586.34 340.01 586.75C340.02 587.16 338.87 593.12 337.47 600C336.06 606.87 334.82 612.59 334.71 612.7C334.59 612.82 330.45 611.62 325.5 610.03C320.55 608.45 312.9 606.41 308.5 605.49C300.99 603.92 300.14 603.92 294.5 605.54C290.76 606.61 287.46 608.34 285.75 610.13C284.24 611.71 282.99 614.01 282.97 615.25C282.95 616.49 283.74 618.23 284.72 619.13C285.7 620.03 287.85 621.43 289.5 622.26C291.15 623.09 297 625 302.5 626.51C308 628.02 317.45 631.57 323.5 634.42C331.34 638.1 335.74 640.86 338.81 644.04C341.28 646.59 343.95 650.75 345.06 653.75C346.37 657.29 347 661.52 346.98 666.75C346.98 671.01 346.4 676.3 345.71 678.5C345.02 680.7 343.73 683.85 342.85 685.5C341.97 687.15 339.62 689.96 337.63 691.75C335.63 693.54 331.86 696.05 329.25 697.34C326.64 698.62 320 700.93 314.5 702.47C305.09 705.11 303.74 705.23 291.5 704.63C284.35 704.28 275.12 703.33 271 702.52C266.87 701.71 261.7 700.53 259.5 699.9C257.3 699.26 253.59 697.9 251.25 696.87C247.73 695.32 247 694.53 247 692.25C247.01 690.74 247.8 684.64 248.75 678.69C250.16 670.02 250.8 667.98 252 668.37C252.82 668.63 256.65 669.99 260.5 671.38C264.35 672.78 271.1 674.67 275.5 675.59C281.06 676.75 286.09 677.1 292 676.73C296.67 676.43 302.19 675.48 304.25 674.6C307.56 673.19 308 672.59 308 669.5C308 666.94 307.19 665.19 305 663C302.68 660.68 298.68 658.95 287.25 655.35C279.14 652.8 270.47 649.76 268 648.6C265.52 647.44 261.75 645.37 259.6 644C257.46 642.62 254.65 639.7 253.36 637.5C252.07 635.3 250.34 631.02 249.52 628C248.7 624.98 248.02 618.67 248.01 614C248 606.68 248.4 604.67 250.88 599.5C252.47 596.2 255.5 591.89 257.63 589.91C259.76 587.94 263.19 585.35 265.25 584.16C267.31 582.97 272.49 581.12 276.75 580.05Z" stroke="#42362F" stroke-width="10"/>
<path fill-rule="evenodd" clip-rule="evenodd" d="M166.5 578.59C162.31 579.4 155.69 581.86 150 584.72C143.27 588.1 138.73 591.25 134.44 595.5C131.1 598.8 126.75 604.2 124.77 607.5C122.78 610.8 119.94 617.1 118.46 621.5C116.47 627.39 115.62 632.27 115.25 640C114.82 648.67 115.11 651.98 116.91 659C118.1 663.67 120.38 670.2 121.96 673.5C123.54 676.8 126.79 681.72 129.17 684.43C131.55 687.15 136.87 691.55 141 694.22C145.12 696.89 151.2 699.92 154.5 700.97C157.8 702.01 164.32 703.35 169 703.94C173.67 704.53 180.2 705 183.5 704.98C186.8 704.97 194.45 704.15 200.5 703.17C206.55 702.19 214.8 700.06 218.83 698.44L226.16 695.5C225.65 676.59 225.05 670.62 224.5 670.03C223.8 669.28 221.71 669.76 217.5 671.65C214.14 673.14 207.31 674.96 202 675.76C196.44 676.59 189.18 676.97 184.5 676.67C179.81 676.36 174.01 675.21 170.5 673.88C167.2 672.64 162.74 670.02 160.59 668.06C158.44 666.1 155.66 662.25 154.4 659.5C153.14 656.75 152.31 654.16 152.56 653.75C152.8 653.34 170.44 653.01 191.75 653.02L230.5 653.04C232.45 644.1 233.01 639.02 233 636C232.99 632.98 232.28 625.77 231.42 620C230.35 612.81 228.88 607.45 226.76 603C224.81 598.88 221.54 594.39 217.84 590.75C214.63 587.59 210.2 584.1 208 583C205.8 581.9 200.17 580.1 195.5 579C190.82 577.9 183.96 577.05 180.25 577.12C176.54 577.18 170.35 577.84 166.5 578.59ZM180.51 604.59C183.81 604.89 187.83 605.89 189.44 606.82C191.05 607.74 193.18 609.85 194.17 611.5C195.16 613.15 196.04 616.3 196.12 618.5C196.21 620.7 196.11 624.19 195.51 630.01L152.01 630L152.64 627.25C152.99 625.74 154.22 622.17 155.39 619.33C156.84 615.78 158.92 613.05 162.01 610.62C164.48 608.68 168.31 606.4 170.51 605.56C173.26 604.51 176.37 604.21 180.51 604.59Z" stroke="#42362F" stroke-width="10"/>
<path fill-rule="evenodd" clip-rule="evenodd" d="M496.5 580.61C499.25 579.71 505.1 578.59 509.5 578.12C513.9 577.65 518.17 577.2 519 577.13C519.82 577.05 523.2 577.46 526.5 578.04C529.8 578.63 535.42 580.05 539 581.2C542.57 582.36 547.97 584.67 551 586.35C554.02 588.03 559.44 592.35 563.03 595.95C566.62 599.55 570.95 605.2 572.65 608.5C574.36 611.8 576.78 617.42 578.04 621C579.67 625.63 580.45 630.53 580.77 638C581.01 643.89 580.69 651.13 580.04 654.5C579.4 657.8 576.82 664.77 574.31 670C570.59 677.75 568.39 680.83 562.37 686.75C557.457 691.583 552.917 694.973 548.75 696.92C545.31 698.52 539.8 700.57 536.5 701.48C533.2 702.38 525.55 703.38 519.5 703.69C511.31 704.12 506.33 703.84 500 702.59C495.02 701.61 487.98 699.24 483 696.85C476.7 693.84 472.95 691.2 468.5 686.64C464.77 682.83 461.07 677.66 458.74 673C456.65 668.83 454.11 661.51 453.01 656.5C451.93 651.55 451.03 644.91 451.02 641.75C451.01 638.59 451.64 632.96 452.43 629.25C453.21 625.54 454.83 620.02 456.03 617C457.23 613.98 459.9 609.02 461.96 606C464.03 602.98 468.38 598.02 471.64 595C474.89 591.98 480.69 587.87 484.53 585.87C488.36 583.88 493.75 581.51 496.5 580.61ZM524.01 607.37C521.53 606.63 518.16 606.06 516.51 606.11C514.86 606.16 512.16 606.53 510.51 606.92C508.86 607.31 505.3 608.73 502.61 610.06C499.92 611.4 496.69 613.85 495.43 615.5C494.16 617.15 492.12 620.75 490.89 623.5C488.89 627.98 488.68 629.92 488.87 642C489.03 652.37 489.49 656.43 490.84 659.5C491.81 661.7 494.61 665.7 497.06 668.4C499.5 671.09 502.97 673.9 504.76 674.65C506.54 675.39 511.27 676 515.26 675.99C519.24 675.99 524.31 675.49 526.51 674.88C528.98 674.2 532.28 672 535.15 669.14C538.86 665.43 540.27 663 542.15 657C543.89 651.45 544.49 647.29 544.43 641C544.39 635.75 543.63 630.01 542.44 626C541.39 622.42 539.29 617.81 537.77 615.75C536.25 613.69 533.54 611.26 531.76 610.36C529.97 609.46 526.48 608.12 524.01 607.37Z" stroke="#42362F" stroke-width="10"/>
<path d="M97.5595 545.613C108.862 545.711 126.5 545.97 126.5 545.97L127 577H87L86.56 579.75C86.32 581.26 86.19 609.73 86.42 703.5L46 704V577H6V545.5L29.8348 545.593C32.8949 545.52 45.7736 545.47 66 545.47C98.73 545.47 85.2351 545.507 97.5595 545.613Z" stroke="#42362F" stroke-width="10"/>
</svg>
