<svg width="111" height="111" viewBox="0 0 111 111" fill="none" xmlns="http://www.w3.org/2000/svg">
<path d="M55.3672 10C59.6193 10 63.3294 10.7107 65.8652 11.748C67.1404 12.2697 67.9739 12.8154 68.4414 13.2676C68.7225 13.5394 68.7985 13.704 68.8174 13.7588C67.6773 16.2969 67.2962 20.4196 68.2725 24.6807C69.3706 29.4733 72.2442 34.7724 78.1475 38.8389L78.4424 39.042L78.7764 39.1699C96.3315 45.8941 107.709 59.5483 107.709 74.2539L107.705 74.7344C107.622 79.6607 106.256 83.4183 103.984 86.3633C101.61 89.4413 98.071 91.8549 93.4004 93.6934C83.9588 97.4097 70.6276 98.5 55.3672 98.5C40.1067 98.5 26.7756 97.4097 17.334 93.6934C12.6634 91.8549 9.12444 89.4413 6.75 86.3633C4.40494 83.3233 3.02547 79.4174 3.02539 74.2539C3.02539 59.5486 14.4025 45.8952 31.957 39.1709L32.291 39.043L32.5859 38.8398C38.5847 34.7077 41.4541 29.3043 42.5127 24.4541C43.0376 22.0494 43.1197 19.7753 42.9238 17.8438C42.774 16.3655 42.4437 14.9326 41.916 13.7588C41.9347 13.7043 42.0114 13.5399 42.293 13.2676C42.7605 12.8154 43.5939 12.2697 44.8691 11.748C47.2464 10.7756 50.6557 10.0897 54.5762 10.0078L55.3672 10Z" fill="#25324D" stroke="#548AF7" stroke-width="6"/>
<path d="M30.3242 54.1914C31.0642 54.1914 32.2669 54.2857 32.999 54.3955C32.999 54.3955 38.3544 54.544 40.4531 57.3477C42.124 59.5871 42.8473 62.3913 42.1123 66.1602C41.8116 67.7137 41.2979 69.1341 40.5791 70.4189C39.8603 71.7081 38.9171 72.8843 37.7568 73.9502C36.3683 75.2453 34.8306 76.1694 33.1348 76.7178C31.4426 77.269 29.2849 77.5449 26.6621 77.5449H22.0625C21.3211 77.5451 20.6033 78.1367 20.4609 78.8613L19.3291 84.6836C19.1859 85.4067 18.4663 86 17.7256 86H13.4756C12.7363 85.9999 12.246 85.4066 12.3877 84.6836L18.0664 55.5117C18.2095 54.7862 18.9296 54.1914 19.6689 54.1914H30.3242ZM87.5625 54.1914C88.3026 54.1914 89.5054 54.2857 90.2373 54.3955C90.2625 54.3962 95.5977 54.5504 97.6914 57.3477C99.3623 59.5871 100.086 62.3914 99.3506 66.1602C99.0498 67.7137 98.5362 69.1341 97.8174 70.4189C97.0986 71.708 96.1554 72.8843 94.9951 73.9502C93.6066 75.2452 92.0689 76.1694 90.373 76.7178C88.6808 77.269 86.5225 77.5449 83.8994 77.5449H79.3008C78.5592 77.5449 77.8406 78.1366 77.6982 78.8613L76.5664 84.6836C76.4231 85.4067 75.7036 86 74.9629 86H70.7139C69.9745 86 69.4842 85.4067 69.626 84.6836L75.3047 55.5117C75.4478 54.7863 76.167 54.1915 76.9062 54.1914H87.5625ZM54.3877 45.9082C55.1261 45.9082 55.6144 46.5013 55.4727 47.2246L54.3438 53.0469C54.2026 53.7725 54.6938 54.3623 55.4297 54.3623H58.8613C59.5984 54.3623 60.8026 54.4265 61.5352 54.502C61.5352 54.502 66.5401 54.5607 68.1641 56.3809C69.4865 57.8627 70.0607 59.9037 69.4766 62.9131L66.8623 76.3984C66.7226 77.1234 66.0024 77.7168 65.2646 77.7168H60.9746C60.2368 77.7168 59.7475 77.1234 59.8887 76.3984L62.1094 64.959C62.2498 64.2349 62.4076 63.0398 62.4619 62.3018C62.4619 62.3018 62.5609 60.9479 62.0205 60.3672C61.4823 59.7844 60.3326 59.4941 58.5762 59.4941H54.4316C53.6933 59.4943 52.9784 60.0858 52.835 60.8105L49.8125 76.3984C49.6714 77.1233 48.9545 77.7167 48.2168 77.7168H44.0322C43.2945 77.7167 42.8068 77.1233 42.9473 76.3984L48.6104 47.2246C48.7509 46.5013 49.4679 45.9082 50.2051 45.9082H54.3877ZM25.6309 59.2119C24.8922 59.2119 24.1711 59.8065 24.0303 60.5312L21.9512 71.207C21.8091 71.9309 22.3018 72.5244 23.041 72.5244H24.5703C25.309 72.5244 26.5167 72.4594 27.2539 72.3789C27.2689 72.3773 30.8012 71.9953 32.167 70.9463C33.5355 69.8943 34.4595 68.1355 34.9414 65.6738C35.3999 63.3113 35.1898 61.6414 34.3125 60.6699C33.433 59.6985 31.6774 59.2119 29.0391 59.2119H25.6309ZM82.8682 59.2119C82.1296 59.212 81.4084 59.8065 81.2676 60.5312L79.1895 71.207C79.0474 71.9309 79.5391 72.5244 80.2783 72.5244H81.8086C82.5471 72.5244 83.754 72.4594 84.4912 72.3789C84.4912 72.3789 88.0355 71.9976 89.4043 70.9463C90.773 69.8943 91.6978 68.1357 92.1797 65.6738C92.6381 63.3113 92.4271 61.6414 91.5498 60.6699C90.6703 59.6987 88.9153 59.212 86.2773 59.2119H82.8682Z" fill="#548AF7"/>
</svg>
