<svg width="111" height="111" viewBox="0 0 111 111" fill="none" xmlns="http://www.w3.org/2000/svg">
<path d="M55.3672 10C59.6193 10 63.3294 10.7107 65.8652 11.748C67.1404 12.2697 67.9739 12.8154 68.4414 13.2676C68.7225 13.5394 68.7985 13.704 68.8174 13.7588C67.6773 16.2969 67.2962 20.4196 68.2725 24.6807C69.3706 29.4733 72.2442 34.7724 78.1475 38.8389L78.4424 39.042L78.7764 39.1699C96.3315 45.8941 107.709 59.5483 107.709 74.2539L107.705 74.7344C107.622 79.6607 106.256 83.4183 103.984 86.3633C101.61 89.4413 98.071 91.8549 93.4004 93.6934C83.9588 97.4097 70.6276 98.5 55.3672 98.5C40.1067 98.5 26.7756 97.4097 17.334 93.6934C12.6634 91.8549 9.12444 89.4413 6.75 86.3633C4.40494 83.3233 3.02547 79.4174 3.02539 74.2539C3.02539 59.5486 14.4025 45.8952 31.957 39.1709L32.291 39.043L32.5859 38.8398C38.5847 34.7077 41.4541 29.3043 42.5127 24.4541C43.0376 22.0494 43.1197 19.7753 42.9238 17.8438C42.774 16.3655 42.4437 14.9326 41.916 13.7588C41.9347 13.7043 42.0114 13.5399 42.293 13.2676C42.7605 12.8154 43.5939 12.2697 44.8691 11.748C47.2464 10.7756 50.6557 10.0897 54.5762 10.0078L55.3672 10Z" fill="#25324D" stroke="#548AF7" stroke-width="6"/>
<path d="M56.4226 88.5625C66.6851 88.5625 75.5052 82.3916 77.7523 73.5712H70.9105C68.6974 78.6689 63.2642 82.3583 56.4226 82.3583C47.032 82.3583 40.2574 74.8121 40.2574 64.2812C40.2574 53.7504 47.032 46.2045 56.4226 46.2045C63.2642 46.2045 68.6974 49.8936 70.9105 54.9913H77.7523C75.5052 46.1709 66.6851 40 56.4226 40C43.1417 40 33.248 50.3631 33.248 64.2812C33.248 78.1993 43.1417 88.5625 56.4226 88.5625Z" fill="#548AF7"/>
</svg>
