<svg width="111" height="111" viewBox="0 0 111 111" fill="none" xmlns="http://www.w3.org/2000/svg">
<path d="M55.5 100.594C80.4046 100.594 100.594 80.4046 100.594 55.5C100.594 30.5954 80.4046 10.4062 55.5 10.4062C30.5954 10.4062 10.4062 30.5954 10.4062 55.5C10.4062 80.4046 30.5954 100.594 55.5 100.594Z" fill="#25324D"/>
<path d="M97.125 55.5C97.125 32.5111 78.4889 13.875 55.5 13.875C32.5111 13.875 13.875 32.5111 13.875 55.5C13.875 78.4889 32.5111 97.125 55.5 97.125C78.4889 97.125 97.125 78.4889 97.125 55.5ZM104.062 55.5C104.062 82.3203 82.3203 104.062 55.5 104.062C28.6797 104.062 6.9375 82.3203 6.9375 55.5C6.9375 28.6797 28.6797 6.9375 55.5 6.9375C82.3203 6.9375 104.062 28.6797 104.062 55.5Z" fill="#548AF7"/>
<path d="M56.4226 79.7812C66.6851 79.7812 75.5052 73.6103 77.7523 64.7899H70.9105C68.6974 69.8877 63.2642 73.577 56.4226 73.577C47.032 73.577 40.2574 66.0308 40.2574 55.5C40.2574 44.9692 47.032 37.4232 56.4226 37.4232C63.2642 37.4232 68.6974 41.1124 70.9105 46.2101H77.7523C75.5052 37.3897 66.6851 31.2188 56.4226 31.2188C43.1417 31.2188 33.248 41.5818 33.248 55.5C33.248 69.418 43.1417 79.7812 56.4226 79.7812Z" fill="#548AF7"/>
</svg>
