<svg width="111" height="111" viewBox="0 0 111 111" fill="none" xmlns="http://www.w3.org/2000/svg">
<path d="M55.3672 10C59.6193 10 63.3294 10.7107 65.8652 11.748C67.1404 12.2697 67.9739 12.8154 68.4414 13.2676C68.7225 13.5394 68.7985 13.704 68.8174 13.7588C67.6773 16.2969 67.2962 20.4196 68.2725 24.6807C69.3706 29.4733 72.2442 34.7724 78.1475 38.8389L78.4424 39.042L78.7764 39.1699C96.3315 45.8941 107.709 59.5483 107.709 74.2539L107.705 74.7344C107.622 79.6607 106.256 83.4183 103.984 86.3633C101.61 89.4413 98.071 91.8549 93.4004 93.6934C83.9588 97.4097 70.6276 98.5 55.3672 98.5C40.1067 98.5 26.7756 97.4097 17.334 93.6934C12.6634 91.8549 9.12444 89.4413 6.75 86.3633C4.40494 83.3233 3.02547 79.4174 3.02539 74.2539C3.02539 59.5486 14.4025 45.8952 31.957 39.1709L32.291 39.043L32.5859 38.8398C38.5847 34.7077 41.4541 29.3043 42.5127 24.4541C43.0376 22.0494 43.1197 19.7753 42.9238 17.8438C42.774 16.3655 42.4437 14.9326 41.916 13.7588C41.9347 13.7043 42.0114 13.5399 42.293 13.2676C42.7605 12.8154 43.5939 12.2697 44.8691 11.748C47.2464 10.7756 50.6557 10.0897 54.5762 10.0078L55.3672 10Z" fill="#E7EFFD" stroke="#3574F0" stroke-width="6"/>
<path d="M56.2756 42.6224C58.228 42.6224 59.8116 44.2051 59.8117 46.1576V76.5794C59.8117 78.532 58.228 80.1146 56.2756 80.1146C54.3231 80.1145 52.7404 78.532 52.7404 76.5794V46.1576C52.7405 44.2051 54.3232 42.6225 56.2756 42.6224ZM41.4472 42.4486C42.6631 40.921 44.8871 40.6685 46.4149 41.8841C47.9428 43.0998 48.1961 45.3232 46.9804 46.8509L28.0321 70.6547C26.8161 72.1821 24.5921 72.4347 23.0644 71.2191C21.5366 70.0033 21.2839 67.779 22.4999 66.2513L41.4472 42.4486ZM66.0322 41.7697C67.56 40.554 69.784 40.8066 71 42.3342L89.9481 66.1369C91.1642 67.6646 90.9106 69.8889 89.3827 71.1047C87.8549 72.3203 85.6309 72.0678 84.415 70.5402L65.4678 46.7365C64.2518 45.2089 64.5045 42.9855 66.0322 41.7697Z" fill="#3574F0"/>
</svg>
